{"glyphs":{":":{"x_min":0,"x_max":199,"ha":199,"o":"m 16 16 q 21 11 28 4 q 34 -3 36 -9 q 37 -10 38 -13 q 38 -16 38 -16 q 39 -17 42 -20 q 46 -23 48 -25 q 51 -27 54 -30 q 58 -33 63 -33 l 64 -33 l 83 -16 l 84 -16 q 86 -16 86 -20 q 87 -24 87 -24 q 89 -26 92 -30 q 96 -33 97 -33 l 99 -33 l 153 18 q 153 18 154 18 q 154 19 154 20 q 154 28 146 38 q 138 48 133 55 q 133 56 132 58 q 130 61 130 61 q 125 69 114 76 q 102 83 94 88 l 93 88 q 88 88 85 86 q 82 83 79 81 q 78 82 76 84 q 74 85 72 85 l 71 85 l 16 34 z m 43 223 l 43 205 q 43 204 47 200 q 51 197 54 195 l 57 194 l 58 194 l 60 194 l 85 216 l 86 216 q 86 215 86 214 q 87 213 87 213 q 89 211 93 208 q 97 205 97 205 l 99 205 l 153 254 q 153 255 154 256 q 154 257 154 257 q 154 262 152 266 q 149 270 147 275 q 147 276 146 277 q 145 278 145 278 l 120 303 q 118 303 113 305 q 108 307 107 308 q 102 310 100 312 q 98 314 93 314 l 79 303 l 77 303 q 73 303 70 304 q 68 306 65 306 l 64 305 l 10 254 l 10 252 q 17 245 20 240 q 24 236 32 229 l 33 229 q 36 229 36 231 q 38 229 40 227 q 42 225 43 223 z"},"$":{"x_min":0,"x_max":841,"ha":841,"o":"m 2 331 q 7 323 6 318 q 6 313 9 302 q 11 297 14 290 q 18 284 20 279 q 23 272 24 265 q 25 258 30 252 q 31 251 34 247 q 38 243 39 242 q 39 242 40 239 q 40 236 41 235 q 51 214 69 202 q 70 201 72 200 q 75 198 76 197 q 77 195 84 189 q 91 183 92 182 q 93 181 96 180 q 100 179 101 178 q 111 171 120 164 q 129 156 139 148 q 149 142 160 138 q 170 134 181 132 q 191 129 201 124 q 211 118 220 113 q 228 109 236 108 q 245 107 253 105 q 257 103 264 99 q 272 95 275 93 l 458 93 l 464 99 l 525 99 q 529 105 536 106 q 543 107 548 110 q 549 110 551 110 q 553 111 553 111 q 556 112 565 112 q 574 113 577 113 q 577 114 580 116 q 583 118 585 118 q 586 118 592 118 q 597 119 598 120 q 599 120 602 122 q 604 124 605 125 q 606 125 608 126 q 611 126 612 127 q 629 135 643 147 q 657 159 674 168 q 675 169 677 170 q 679 171 679 172 l 746 239 l 749 247 q 757 255 766 265 q 774 275 779 286 q 781 291 782 294 q 783 298 786 302 q 787 304 792 310 q 798 317 800 319 q 800 320 802 325 q 805 330 806 333 q 811 342 812 351 q 813 360 821 368 l 821 442 l 810 475 q 809 476 807 480 q 805 484 805 485 q 803 488 800 496 q 797 504 794 512 q 791 521 788 529 q 785 537 784 540 q 784 541 783 543 q 782 545 781 545 q 781 546 780 550 q 778 553 778 554 q 757 584 729 606 q 728 607 722 612 q 717 617 716 617 q 715 618 710 618 q 704 619 702 619 q 698 621 691 624 q 684 627 681 631 l 671 631 q 666 631 660 630 q 653 630 649 625 l 604 625 q 602 625 598 622 q 594 620 593 619 l 498 619 q 493 619 493 620 q 493 622 488 624 q 487 624 482 624 q 476 625 474 626 q 474 626 472 628 q 469 631 468 631 q 467 631 464 632 q 460 632 459 633 q 455 634 452 636 q 448 639 444 641 l 419 666 q 414 670 414 676 q 413 683 413 690 q 413 697 412 703 q 412 709 407 713 l 407 750 q 407 752 409 755 q 411 758 412 760 q 412 768 414 780 q 415 793 423 798 q 424 799 426 800 q 427 802 428 802 l 469 802 l 480 796 l 505 796 q 509 790 514 789 q 520 788 525 783 l 536 772 l 540 772 l 582 812 q 584 810 586 808 q 589 805 592 805 l 593 805 l 660 872 l 660 971 q 660 978 655 984 q 650 989 645 993 l 639 993 q 627 993 623 990 q 619 987 609 983 l 538 912 l 538 909 l 550 897 l 551 897 q 559 897 564 903 q 569 909 577 909 l 577 872 q 569 872 563 880 l 536 880 q 535 881 531 884 q 527 886 525 886 l 481 886 q 479 884 470 880 q 460 875 458 874 q 457 873 454 872 q 450 872 449 872 q 443 870 439 865 q 435 860 428 860 l 361 793 q 360 793 360 792 q 359 790 359 790 q 357 787 350 778 q 342 769 340 767 q 336 759 336 750 q 336 741 332 733 q 332 732 331 730 q 330 729 330 728 q 330 726 330 718 q 329 710 329 708 l 327 705 q 326 703 325 699 q 324 695 324 695 l 324 651 q 325 649 326 647 q 328 645 329 643 q 328 640 329 631 q 330 622 330 619 q 332 612 336 608 q 340 603 342 597 l 374 565 q 383 562 392 556 q 401 549 409 544 q 414 541 420 541 q 427 541 433 539 q 435 537 439 536 q 443 534 443 534 l 526 534 q 525 532 525 529 l 525 527 q 526 525 530 521 q 534 517 536 515 q 537 515 542 514 q 546 514 547 514 q 554 512 560 506 q 565 499 570 495 q 578 489 587 484 q 596 480 602 472 q 608 463 614 452 q 621 440 625 430 q 628 423 632 410 q 637 397 637 396 l 637 333 l 624 295 l 637 282 l 640 282 l 707 349 q 709 351 714 366 q 719 380 721 388 q 722 392 722 406 q 723 419 722 423 q 724 422 726 419 q 727 416 727 415 q 730 409 734 398 q 738 387 738 386 l 738 316 q 730 308 728 300 q 727 291 724 282 q 721 272 716 266 q 710 260 704 252 q 701 248 700 244 q 699 240 697 235 q 695 230 689 226 q 683 221 681 219 q 677 216 673 216 q 669 216 666 214 q 664 213 658 208 q 652 204 650 204 q 648 202 640 201 q 632 200 630 200 q 628 197 621 196 q 614 194 606 192 q 597 191 589 189 q 581 187 577 183 l 516 183 q 515 183 511 180 q 507 177 506 177 l 332 177 q 327 182 322 183 q 317 184 312 189 q 297 187 287 194 q 277 200 263 204 q 262 204 260 204 q 259 205 258 205 q 254 207 250 210 q 245 214 240 215 q 239 216 234 216 q 228 217 227 217 q 226 217 220 220 q 215 222 213 224 q 206 228 202 232 q 197 237 190 242 q 188 243 181 246 q 174 249 173 250 q 172 251 167 256 q 162 260 161 261 q 160 261 157 262 q 154 263 153 264 q 140 273 126 292 q 111 311 106 326 q 104 332 102 339 q 101 346 98 353 q 97 353 95 356 q 93 359 92 359 q 90 368 90 374 q 91 380 86 388 l 86 480 q 90 479 94 477 q 98 475 103 475 l 104 475 l 171 542 l 162 542 q 172 542 184 542 q 195 543 204 542 q 214 541 222 538 q 229 535 231 526 l 235 526 q 237 520 233 516 q 229 513 231 507 q 226 509 224 504 q 223 500 224 496 q 222 495 218 496 q 214 497 216 492 q 218 486 212 488 q 210 486 208 484 q 207 483 208 480 q 198 482 200 472 q 198 471 194 472 q 191 473 193 469 q 189 469 186 466 q 184 462 184 457 q 184 453 186 449 q 188 445 193 446 q 198 446 203 446 q 209 446 208 453 q 221 459 230 471 q 239 483 243 496 q 245 498 248 498 q 252 499 250 503 q 251 508 250 512 q 249 517 254 519 l 254 546 q 248 544 250 550 q 247 549 245 552 q 243 555 239 553 q 237 558 233 557 q 229 556 227 561 q 216 567 200 565 q 184 563 170 565 q 172 560 167 560 q 162 559 159 557 q 153 563 144 564 q 135 564 127 564 l 113 564 q 108 560 100 557 q 92 554 86 552 l 19 485 q 15 476 8 468 q 2 461 2 450 z m 430 -136 q 429 -142 430 -147 q 432 -152 434 -158 l 435 -158 q 438 -160 441 -158 q 444 -155 447 -155 l 466 -142 q 466 -141 467 -141 q 468 -141 468 -141 q 482 -133 497 -122 q 497 -123 498 -122 q 500 -121 501 -122 q 501 -122 504 -122 q 506 -123 506 -123 q 510 -123 514 -121 q 517 -119 521 -120 q 523 -120 527 -122 q 531 -123 531 -124 q 532 -123 534 -122 q 537 -121 539 -120 l 588 -74 l 588 -71 q 588 -71 586 -65 q 585 -59 584 -57 q 583 -56 582 -53 l 581 -53 l 580 -52 q 579 -54 576 -56 q 572 -59 571 -60 q 570 -60 566 -58 q 562 -56 561 -56 q 558 -55 556 -56 q 555 -58 553 -56 q 548 -53 547 -42 q 546 -30 546 -22 q 540 -5 539 9 q 538 23 537 42 q 536 55 536 68 q 536 81 534 93 q 534 95 534 100 q 533 106 533 107 q 533 109 534 115 q 535 121 535 123 q 536 126 535 128 q 535 129 533 138 q 531 146 531 147 q 531 149 530 151 q 530 153 530 153 q 530 155 530 160 q 531 166 532 167 q 532 177 530 188 q 529 199 527 208 q 527 215 527 222 q 527 229 525 235 q 526 238 527 246 q 528 254 528 257 q 528 258 528 262 q 529 265 529 266 q 529 272 528 279 q 528 286 528 292 q 528 300 528 306 q 529 311 528 319 q 527 321 527 326 q 527 330 527 330 q 527 338 528 343 q 530 348 530 355 q 529 357 528 366 q 527 375 528 377 q 528 379 529 387 q 530 395 530 397 q 531 405 530 412 q 529 419 528 425 q 528 434 528 442 q 529 451 529 459 q 529 465 528 469 q 527 473 526 478 q 526 484 528 490 q 529 495 526 501 l 530 521 q 528 528 528 533 q 527 538 527 542 q 527 547 528 552 q 528 558 528 566 q 527 571 527 575 q 527 579 526 584 q 526 585 526 592 q 527 598 526 600 q 526 604 524 614 q 522 623 523 628 q 523 637 524 649 q 526 661 525 670 q 525 675 524 680 q 522 684 522 689 q 522 696 522 710 q 523 723 521 729 l 529 777 l 527 784 l 537 838 q 536 844 536 850 q 537 856 538 862 q 538 867 538 872 q 539 878 537 883 l 542 914 q 542 914 542 916 q 542 917 542 919 q 542 919 542 921 q 541 923 541 925 q 541 933 542 943 q 543 953 539 960 l 544 983 q 541 990 542 998 q 544 1006 545 1013 q 545 1018 544 1018 q 544 1019 543 1025 q 543 1031 544 1032 q 544 1034 543 1040 q 544 1047 545 1056 q 546 1064 544 1072 l 557 1140 q 561 1143 562 1150 q 563 1156 565 1161 q 565 1162 566 1164 q 568 1166 569 1167 l 569 1169 l 569 1170 l 565 1185 l 561 1187 q 559 1186 556 1184 q 553 1181 550 1178 q 546 1175 542 1172 q 539 1169 538 1169 q 538 1168 536 1168 q 534 1167 534 1166 q 525 1163 519 1160 q 513 1156 505 1150 q 501 1149 498 1150 q 496 1151 492 1150 q 488 1148 486 1146 q 485 1143 481 1143 l 434 1100 l 434 1098 l 438 1083 l 450 1076 l 463 1086 q 462 1075 464 1064 q 467 1054 467 1043 q 466 1041 465 1032 q 464 1024 464 1022 q 464 1016 465 1010 q 466 1003 466 997 q 466 996 465 991 q 464 986 465 984 q 465 978 466 972 q 467 967 467 960 q 467 956 467 953 q 466 950 467 946 q 467 946 467 944 q 467 941 467 940 q 468 939 467 933 q 466 929 466 928 q 466 928 466 926 q 466 923 466 922 q 467 921 468 918 q 469 914 469 912 q 470 907 469 900 q 468 894 469 888 q 469 882 468 880 q 467 878 467 870 q 467 869 468 866 q 469 863 469 862 q 469 861 468 856 q 467 850 468 849 q 467 848 468 846 q 468 843 468 843 q 468 842 468 840 q 468 838 468 838 q 468 833 468 824 q 467 815 467 804 q 467 794 467 786 q 467 777 468 774 q 466 764 466 754 q 466 745 466 735 q 466 729 467 730 q 468 731 467 724 q 467 722 466 713 q 464 704 464 702 q 466 695 465 688 q 464 680 463 672 l 464 665 l 461 645 q 461 642 462 638 q 463 635 463 633 l 457 601 q 460 592 459 580 q 458 569 457 559 q 458 553 459 546 q 460 540 460 534 q 460 532 459 525 q 458 518 458 516 l 460 507 l 455 483 q 458 476 457 462 q 456 447 455 439 q 455 438 456 435 q 457 432 457 431 q 457 424 456 420 q 454 416 457 410 l 454 394 l 457 385 l 453 366 q 457 352 456 342 q 455 331 452 316 q 455 309 454 306 q 453 302 453 295 q 452 294 453 291 q 454 288 454 287 q 454 286 453 280 q 452 275 453 274 q 453 273 454 271 q 454 269 454 268 q 453 268 454 266 q 454 264 454 263 q 453 260 452 252 q 451 243 450 241 q 453 229 452 216 q 451 204 450 193 q 450 192 450 189 q 451 186 451 185 q 451 184 450 180 q 450 176 451 175 q 450 173 452 165 q 454 157 453 156 q 454 153 453 146 q 452 140 451 138 q 454 129 454 119 q 453 109 453 101 q 455 94 458 82 q 460 70 460 62 q 460 60 458 52 q 457 46 458 44 q 458 42 460 36 q 461 30 462 28 q 463 17 462 6 q 462 -4 463 -15 q 464 -21 466 -31 q 468 -41 467 -46 q 468 -48 467 -54 q 466 -59 466 -60 q 466 -61 467 -64 q 468 -67 468 -67 q 467 -69 466 -74 q 466 -80 466 -81 q 467 -83 468 -88 q 469 -93 470 -95 l 434 -129 q 433 -130 432 -132 q 430 -134 430 -136 z"},"?":{"x_min":0,"x_max":613,"ha":613,"o":"m 178 -67 l 200 -88 l 231 -60 l 232 -60 q 236 -60 239 -61 q 242 -62 245 -62 l 249 -62 l 296 -18 l 296 -16 q 296 -15 293 -12 q 290 -10 288 -8 q 283 -6 278 -6 q 274 -6 269 -3 q 267 -1 261 4 q 255 8 253 10 l 250 10 l 236 22 q 234 23 230 25 q 225 27 223 27 l 221 27 l 218 26 l 199 10 q 196 14 193 14 l 147 -31 q 147 -34 151 -40 q 155 -46 160 -52 q 165 -57 170 -62 q 176 -66 178 -67 z m 183 117 l 183 107 l 193 98 l 241 144 l 241 167 l 259 185 q 259 185 259 186 q 259 187 260 188 q 260 188 260 190 q 261 193 261 194 q 261 196 262 200 q 264 203 264 204 q 265 205 266 208 q 268 211 269 213 q 269 214 270 214 q 271 215 271 215 q 273 218 274 222 q 274 225 276 227 l 296 248 q 298 256 303 262 q 308 269 311 277 l 333 300 l 333 304 q 335 306 340 312 q 345 318 347 319 q 351 322 352 325 q 353 328 356 331 q 360 334 367 337 q 374 340 376 342 l 425 388 l 425 390 l 418 398 l 415 398 q 411 398 408 395 q 401 395 393 395 q 386 395 381 390 l 364 390 q 362 394 357 394 q 353 394 351 392 q 349 391 346 390 q 345 390 341 390 q 337 389 335 389 l 329 384 q 324 381 316 378 q 309 375 302 375 l 276 362 l 270 358 l 307 394 q 307 399 311 401 l 360 449 l 366 451 l 392 476 l 396 477 l 443 522 l 443 524 l 433 534 l 430 534 q 426 534 424 531 l 399 531 q 395 529 384 524 q 373 519 370 518 q 367 516 364 515 q 362 514 359 514 l 356 514 q 356 515 366 521 q 375 527 378 528 q 381 530 387 532 q 393 533 396 536 q 397 536 402 538 q 406 541 406 542 q 410 544 418 545 q 427 546 429 548 q 431 549 434 552 q 437 555 439 555 q 440 556 445 559 q 450 562 456 565 q 461 568 466 570 q 471 573 471 573 l 517 617 q 516 625 522 630 q 529 635 532 642 q 533 646 532 649 q 531 652 536 655 l 536 694 q 536 696 535 698 q 534 699 532 701 q 530 707 528 714 q 525 722 525 729 q 521 733 520 736 q 518 740 515 745 q 504 760 489 774 q 487 776 484 778 q 481 779 479 781 q 474 783 468 788 q 463 793 458 796 q 458 796 455 796 q 453 796 453 797 q 452 797 450 798 q 448 800 447 801 q 442 804 438 805 q 434 806 431 808 q 429 810 426 814 q 423 817 422 817 q 422 817 420 818 q 417 820 416 820 l 413 823 l 396 823 q 393 826 390 828 q 387 829 383 831 l 354 831 q 350 826 344 826 q 339 827 335 823 l 301 823 q 301 823 298 822 q 296 820 294 820 q 294 820 293 820 q 292 819 292 818 q 290 818 284 818 q 278 817 276 817 q 271 817 268 814 q 266 812 262 810 q 261 809 256 809 q 251 809 250 808 q 246 808 244 806 q 243 805 240 802 l 238 801 q 236 800 231 800 q 227 800 225 800 q 224 798 219 796 q 214 793 212 792 q 211 792 206 792 q 202 791 201 790 q 200 790 196 787 q 193 784 193 783 q 185 779 178 775 q 170 771 164 765 l 89 695 q 89 694 88 694 q 88 694 88 693 q 88 692 84 688 q 80 683 80 682 q 73 673 68 664 q 62 655 55 647 q 55 646 54 645 q 53 644 53 643 q 51 640 49 636 q 47 632 45 629 l 45 600 q 45 599 48 596 q 51 594 53 592 q 53 592 60 588 q 68 585 77 581 q 86 577 94 574 q 101 570 101 570 l 128 570 q 129 570 130 571 q 132 572 132 572 q 133 572 135 572 q 137 573 137 573 q 138 574 142 578 q 147 581 148 581 q 150 582 154 582 q 159 582 161 582 q 163 584 170 588 q 177 591 179 591 l 227 637 l 218 646 l 203 646 q 203 646 200 649 q 200 650 199 651 q 198 652 198 653 q 197 654 194 658 q 191 661 190 661 q 188 666 189 670 q 190 673 185 677 l 185 689 q 187 689 187 692 l 187 693 l 179 701 l 177 701 l 128 654 l 128 639 q 129 638 130 636 q 131 634 132 633 q 132 633 132 632 q 131 630 131 629 l 130 629 l 128 630 q 127 631 124 634 q 121 636 120 637 q 119 637 114 638 q 109 639 108 639 q 107 640 105 641 q 103 642 103 643 l 103 663 q 105 667 106 671 q 108 675 111 679 q 113 682 116 684 q 118 687 120 691 q 126 702 133 712 q 140 722 154 727 q 156 729 158 728 q 159 728 161 729 q 162 730 166 733 q 170 736 170 736 q 172 738 180 740 q 189 741 191 741 q 197 743 204 746 q 211 750 218 754 q 224 754 232 754 q 241 754 247 758 l 281 758 l 286 754 l 312 754 q 314 752 322 748 q 331 743 335 741 q 335 741 339 741 q 343 741 344 740 q 345 740 346 739 q 347 738 349 737 q 351 735 358 728 q 366 720 368 719 q 373 717 376 708 q 380 699 381 696 q 382 691 384 683 q 385 675 390 671 l 390 650 q 390 648 394 643 q 397 638 400 635 l 400 610 q 395 608 396 604 q 396 600 394 596 q 392 585 379 574 q 366 563 355 562 l 335 546 q 334 545 330 542 q 326 540 325 539 q 323 538 319 536 q 315 533 313 532 q 311 530 305 528 l 281 505 q 270 501 263 494 q 256 487 246 484 l 195 434 l 195 432 q 195 432 198 429 q 201 426 203 424 q 204 423 208 423 q 212 423 214 423 l 217 423 l 221 426 q 227 429 234 430 q 241 431 247 432 q 254 434 262 436 q 270 438 278 440 q 278 441 279 441 q 281 441 281 441 q 286 444 291 447 q 296 450 302 450 l 279 424 q 278 424 278 423 q 278 423 278 423 q 278 422 277 420 q 276 417 276 416 q 272 412 268 408 q 264 405 262 400 q 262 399 261 398 q 260 397 260 397 q 252 389 244 379 q 237 369 231 360 q 228 353 225 345 q 222 337 218 331 q 215 327 210 322 q 205 316 206 310 l 197 301 l 197 292 l 206 283 l 225 300 q 236 304 246 310 q 255 315 265 319 q 272 320 277 322 q 282 325 288 325 q 286 323 278 316 q 271 308 269 305 l 267 302 q 265 301 260 296 q 255 290 253 289 q 253 288 252 286 q 251 283 250 283 q 249 281 245 277 q 241 273 240 271 q 237 267 234 262 q 232 256 229 253 q 229 251 226 248 q 223 245 222 245 q 217 236 216 226 q 215 216 205 209 l 205 195 q 200 190 197 181 q 194 172 193 166 q 192 165 192 161 q 191 157 191 156 l 188 152 q 185 144 184 134 q 183 125 183 117 z m 341 460 l 332 452 q 333 455 336 456 q 339 458 341 460 z m 342 508 q 341 505 339 505 l 338 505 q 338 508 342 508 z m 349 511 q 349 508 345 508 l 344 508 q 346 511 349 511 z m 439 599 q 437 598 434 594 q 430 589 428 589 q 427 589 428 590 q 430 592 432 594 q 435 597 437 598 q 439 600 439 599 z"},"<":{"x_min":0,"x_max":532,"ha":532,"o":"m 24 392 l 25 379 l 26 378 l 28 377 q 29 376 34 375 q 39 374 41 373 q 51 372 62 368 q 72 365 84 363 q 93 359 97 357 q 101 354 111 356 l 183 312 q 190 313 200 310 q 211 306 218 303 l 238 291 q 239 290 244 290 q 250 291 252 290 q 257 289 262 286 q 266 284 272 286 l 300 269 q 308 267 314 264 q 321 261 329 260 q 341 255 353 251 q 365 247 378 243 q 378 243 380 243 q 382 243 384 242 q 385 241 387 242 q 389 244 389 244 l 399 238 l 475 266 l 477 269 l 476 284 l 471 287 q 466 290 462 289 q 459 288 454 291 q 441 294 430 298 q 418 302 404 305 q 397 308 390 311 q 384 314 376 316 l 346 334 q 340 332 336 334 q 333 336 328 337 q 327 338 321 338 q 315 337 314 338 q 312 339 304 344 q 296 349 294 349 q 287 352 277 356 q 267 360 258 358 l 188 402 q 178 401 174 403 q 169 406 160 410 q 152 412 143 414 q 134 415 126 418 q 122 420 115 423 q 108 426 102 424 l 26 396 z m 22 380 l 34 371 l 35 371 q 40 372 42 379 q 45 386 49 392 q 50 392 57 398 q 64 403 75 401 q 79 406 86 410 q 93 415 100 421 l 206 476 q 215 485 226 488 q 238 492 247 499 q 249 499 250 500 q 252 502 253 502 q 254 502 258 504 q 263 506 268 508 q 273 510 277 512 q 281 513 282 514 q 291 518 298 524 q 306 530 313 536 l 327 540 q 328 541 330 544 q 332 547 333 547 q 334 548 340 550 q 347 552 348 553 l 376 630 l 376 631 l 364 641 l 358 639 q 353 637 350 636 q 347 636 345 633 q 345 633 344 631 q 342 629 341 629 q 340 629 336 627 q 331 625 330 623 q 328 622 325 618 q 322 615 321 615 q 308 606 295 601 q 282 596 267 590 q 267 590 264 589 q 261 588 261 587 q 261 587 258 584 q 255 582 254 582 q 245 577 237 574 q 230 572 221 563 l 84 521 q 81 514 78 509 q 75 504 71 499 q 65 492 60 480 q 55 468 47 464 l 19 388 z"},"'":{"x_min":0,"x_max":231,"ha":231,"o":"m 63 657 q 63 657 63 656 q 63 656 64 656 l 73 644 l 76 644 l 130 708 q 130 708 132 714 q 133 719 134 722 q 137 734 140 747 q 143 760 146 772 l 146 814 l 141 828 l 141 935 l 130 947 l 75 883 l 75 776 l 79 760 l 79 720 q 76 709 73 699 q 70 689 68 678 q 67 673 65 667 q 63 661 63 657 z"},"=":{"x_min":0,"x_max":532,"ha":532,"o":"m 24 301 l 32 290 l 33 290 l 35 290 q 36 290 41 292 q 46 293 48 293 q 57 298 68 300 q 79 303 90 307 q 100 309 104 309 q 109 309 117 316 l 201 316 q 206 321 217 324 q 228 326 235 327 l 259 327 q 260 327 264 330 q 269 334 271 334 q 276 335 281 336 q 286 336 290 341 l 323 341 q 331 344 338 344 q 345 345 353 349 q 365 351 378 354 q 390 357 403 360 q 403 360 405 361 q 407 362 409 362 q 410 362 411 364 q 412 367 412 367 l 424 367 l 474 431 l 474 434 l 465 446 l 459 446 q 453 446 450 444 q 448 441 443 441 q 430 437 418 434 q 406 431 393 427 q 385 425 378 424 q 371 424 363 421 l 328 421 q 324 416 320 416 q 316 415 311 414 q 310 414 305 410 q 300 407 299 407 q 297 407 287 407 q 278 407 276 406 q 268 405 258 403 q 247 401 241 395 l 158 395 q 150 389 145 389 q 140 389 130 387 q 122 385 114 382 q 105 378 97 376 q 92 376 84 375 q 77 374 73 369 l 24 305 z m 19 438 l 28 425 l 29 425 q 34 425 38 430 q 43 436 48 441 q 49 441 54 448 q 59 456 60 456 q 66 463 72 466 q 78 468 83 475 l 223 475 q 234 481 246 481 q 258 481 269 485 q 271 485 273 486 q 275 486 276 486 q 277 486 282 486 q 286 487 292 488 q 297 488 302 488 q 306 489 307 489 q 317 490 326 494 q 335 497 343 501 l 358 501 q 359 501 362 504 q 364 506 365 506 q 367 506 374 506 q 380 507 382 507 l 431 572 l 431 574 l 423 586 l 416 586 q 411 586 408 586 q 405 587 402 585 q 402 585 400 584 q 398 582 397 582 q 396 582 391 582 q 386 581 385 579 q 383 579 379 576 q 375 574 374 574 q 359 570 345 569 q 331 568 315 566 q 315 566 312 566 q 309 566 308 565 q 308 565 304 564 q 301 562 300 562 q 290 560 282 560 q 274 560 263 554 l 120 554 q 115 548 110 544 q 106 541 101 537 q 93 532 84 522 q 76 512 68 510 l 19 446 z"},"a":{"x_min":0,"x_max":355,"ha":355,"o":"m 10 114 q 16 101 20 86 q 24 72 29 58 q 37 36 44 14 q 51 -7 58 -29 q 61 -36 62 -45 q 64 -54 69 -60 q 72 -65 79 -69 q 86 -73 90 -73 l 124 -73 q 127 -70 136 -62 q 146 -54 157 -46 q 168 -37 176 -30 q 185 -24 186 -24 q 188 -24 190 -30 q 192 -35 194 -42 q 197 -48 200 -55 q 202 -62 206 -65 q 210 -68 217 -70 q 224 -71 229 -73 l 230 -73 q 244 -73 258 -61 q 272 -49 277 -37 l 313 -1 q 322 2 331 12 q 340 21 345 26 l 345 28 q 345 32 343 32 q 341 32 336 32 q 332 33 326 34 q 321 35 317 38 q 313 40 313 45 l 313 161 q 315 163 315 167 l 316 169 q 316 172 314 174 q 313 176 313 179 l 313 180 q 314 181 316 185 q 317 189 318 190 l 318 191 l 318 192 q 317 194 315 198 q 313 201 312 203 l 312 319 q 305 330 302 341 q 298 352 290 363 q 290 364 289 366 q 288 367 288 367 q 287 371 286 374 q 286 377 284 380 q 276 391 264 398 q 252 405 246 418 l 189 477 q 185 485 175 496 q 165 506 154 506 l 153 506 l 86 473 q 82 470 71 462 q 60 455 48 447 q 36 439 27 432 q 18 425 18 422 q 18 421 19 418 q 20 414 21 414 q 21 412 22 406 q 22 401 23 399 l 56 331 q 61 326 66 315 q 72 304 79 304 q 81 304 83 304 q 85 304 85 306 l 85 344 q 85 349 90 354 q 95 360 102 364 q 108 369 114 372 q 121 376 124 378 q 126 379 132 382 q 138 385 144 388 q 151 392 157 395 q 163 398 166 399 q 170 400 173 400 q 176 401 180 401 q 184 401 185 399 q 185 395 186 383 q 186 371 187 367 q 187 365 189 362 q 191 358 192 357 l 192 298 q 196 293 197 290 q 198 288 198 283 q 198 279 197 279 q 197 278 196 274 q 195 271 195 270 q 195 269 196 266 q 197 263 197 262 l 197 58 q 197 56 196 52 q 194 49 193 47 l 193 46 q 193 44 194 42 q 195 39 195 37 q 195 25 187 12 q 179 0 168 -3 q 168 -4 167 -4 q 167 -4 167 -4 q 161 -4 160 5 q 160 14 160 15 q 155 34 147 63 q 139 92 129 108 l 129 148 l 124 159 l 124 199 q 124 204 131 208 q 138 211 141 213 q 142 214 146 218 q 151 222 156 226 q 160 231 164 235 q 168 239 170 241 q 175 240 175 246 q 175 253 168 253 l 109 253 l 65 222 q 62 220 62 218 q 63 215 56 209 l 44 197 q 42 195 36 188 q 31 180 25 172 q 19 164 14 156 q 10 149 10 148 z"},"L":{"x_min":0,"x_max":370,"ha":370,"o":"m 685 -744 l 693 -751 l 801 -751 l 808 -744 l 848 -744 q 850 -742 854 -736 q 858 -731 860 -729 q 860 -728 862 -728 q 863 -727 863 -727 q 865 -726 872 -726 q 880 -725 882 -725 q 891 -723 898 -714 q 906 -706 914 -701 q 915 -701 919 -700 q 923 -700 924 -699 q 925 -698 930 -693 q 934 -688 935 -687 q 935 -685 939 -685 q 941 -682 949 -672 q 957 -663 960 -660 l 967 -660 l 1047 -557 q 1048 -547 1054 -538 q 1059 -530 1063 -522 q 1065 -520 1070 -512 q 1075 -505 1077 -503 l 1077 -421 q 1068 -410 1059 -394 q 1050 -379 1039 -368 q 1034 -362 1027 -358 q 1020 -354 1013 -347 l 900 -347 q 892 -347 885 -358 q 878 -368 872 -373 q 870 -374 866 -376 q 863 -379 863 -379 l 772 -497 q 768 -501 768 -509 q 768 -511 768 -512 q 769 -513 769 -513 l 782 -531 l 844 -454 l 954 -454 q 958 -460 964 -466 q 970 -472 976 -473 l 993 -497 l 993 -561 q 991 -563 987 -569 q 983 -575 982 -577 q 980 -582 980 -586 q 979 -591 975 -593 q 970 -596 962 -598 q 953 -601 948 -606 q 947 -607 942 -612 q 937 -618 935 -619 q 934 -619 927 -620 q 920 -620 919 -620 q 913 -622 907 -626 q 901 -631 897 -636 l 860 -636 l 853 -645 l 750 -645 l 744 -636 l 676 -636 q 675 -636 674 -635 q 672 -634 670 -633 q 670 -633 668 -631 q 666 -629 665 -629 q 658 -627 652 -627 q 647 -627 642 -619 l 610 -619 q 608 -614 603 -612 q 598 -609 592 -608 q 587 -606 582 -604 q 576 -603 572 -601 q 568 -599 563 -594 q 558 -589 555 -586 l 538 -586 l 530 -577 q 514 -578 498 -567 q 497 -566 494 -564 q 492 -562 491 -561 q 489 -561 484 -560 q 479 -560 478 -559 q 472 -557 466 -551 q 461 -545 454 -543 q 452 -543 443 -542 q 434 -542 432 -541 q 431 -541 426 -538 q 421 -535 419 -533 q 417 -532 412 -526 q 407 -519 406 -518 q 404 -516 399 -516 q 394 -516 392 -515 q 384 -511 376 -500 q 368 -489 360 -483 q 358 -483 353 -482 q 348 -482 346 -481 q 345 -480 338 -474 q 331 -468 330 -466 q 328 -465 320 -460 q 311 -456 309 -454 q 304 -449 298 -442 q 292 -435 284 -433 q 282 -432 274 -431 q 267 -430 265 -431 l 258 -422 l 220 -422 q 214 -417 207 -414 q 200 -411 195 -405 l 233 -353 l 233 -253 q 233 -250 236 -246 q 238 -243 238 -241 l 238 -185 l 245 -174 l 245 87 l 252 95 l 252 203 q 252 205 255 210 q 258 214 259 215 l 259 525 l 265 534 l 265 583 l 272 591 l 272 619 q 279 624 279 633 l 279 639 l 266 654 l 259 654 q 253 654 248 654 q 242 653 238 646 l 196 646 q 191 646 185 640 q 179 633 177 628 l 126 628 q 121 622 116 620 q 110 617 105 612 l 76 612 l 10 525 l 10 469 l 23 452 l 59 497 l 63 497 q 71 486 80 482 q 90 478 101 478 l 101 423 l 97 413 l 97 378 l 101 369 l 101 333 q 101 333 100 332 q 100 330 100 329 q 99 326 98 321 q 96 316 96 315 l 96 243 q 89 237 89 224 l 89 -88 q 84 -93 83 -100 q 82 -107 82 -114 q 81 -122 80 -130 q 79 -137 75 -143 l 75 -247 q 73 -249 72 -255 q 70 -261 70 -263 l 70 -435 q 71 -436 73 -440 q 75 -444 76 -445 q 76 -445 76 -446 q 77 -446 77 -447 q 77 -447 76 -447 q 76 -447 76 -448 l 22 -520 l 35 -537 l 36 -537 l 38 -537 q 40 -537 47 -534 q 54 -531 55 -531 q 57 -530 66 -530 q 74 -529 76 -529 q 81 -521 86 -522 q 92 -522 99 -520 q 104 -518 103 -516 q 102 -513 108 -513 l 138 -513 q 144 -518 151 -522 q 158 -525 165 -530 l 199 -530 l 207 -538 l 228 -538 q 246 -558 268 -571 q 289 -584 308 -603 q 311 -607 315 -607 q 320 -607 322 -610 q 324 -612 328 -616 q 332 -620 333 -620 q 334 -621 338 -622 q 342 -624 343 -625 q 351 -631 358 -638 q 365 -646 376 -649 q 378 -649 387 -650 q 396 -650 397 -651 q 398 -651 402 -653 q 405 -655 407 -657 q 408 -658 410 -660 q 412 -661 412 -661 q 426 -669 440 -674 q 455 -679 469 -685 q 473 -685 473 -689 q 474 -689 476 -690 q 477 -691 478 -691 q 480 -691 487 -692 q 494 -693 496 -693 q 504 -701 513 -706 q 522 -711 530 -715 q 538 -719 543 -718 q 548 -718 555 -726 l 584 -726 q 589 -734 596 -734 q 604 -734 610 -738 q 612 -740 616 -742 q 621 -744 621 -744 z"},"3":{"x_min":0,"x_max":297,"ha":297,"o":"m 19 -202 l 31 -214 l 34 -214 q 34 -214 40 -211 q 45 -208 47 -206 q 49 -205 52 -202 q 54 -200 56 -199 q 57 -198 62 -193 q 67 -188 73 -183 q 79 -178 84 -173 q 90 -168 91 -167 q 94 -164 96 -164 l 163 -97 q 164 -95 166 -92 q 169 -88 170 -87 q 171 -85 176 -80 q 180 -75 186 -70 q 191 -64 196 -60 q 200 -55 202 -53 q 205 -43 210 -36 q 216 -28 222 -20 q 222 -19 224 -16 q 225 -12 225 -11 q 226 -9 230 -4 q 234 0 236 2 l 236 21 q 242 26 244 32 q 247 38 252 44 q 253 45 257 50 q 261 54 262 56 q 262 57 262 62 q 263 68 264 69 q 264 71 266 74 q 268 77 269 78 q 269 86 270 95 q 270 104 275 111 l 275 205 q 270 211 269 218 q 268 226 265 233 q 260 249 248 258 q 237 268 223 277 q 217 282 216 280 q 215 279 210 284 l 178 284 l 228 337 q 230 343 234 348 q 238 353 242 357 l 242 401 q 242 405 239 408 q 236 410 235 414 q 232 425 229 430 q 226 435 222 438 q 218 441 212 444 q 207 446 200 451 l 166 451 l 160 446 q 156 446 144 446 q 132 445 128 444 q 126 444 122 443 q 119 442 118 441 l 46 369 q 41 364 41 357 q 41 352 46 347 q 48 345 52 340 q 57 336 58 336 l 61 336 l 88 361 q 93 360 101 361 q 109 362 114 367 l 138 367 q 139 367 140 366 q 142 364 143 364 q 144 364 146 364 q 149 363 150 362 q 154 359 154 353 q 153 347 158 342 l 158 314 q 143 303 132 295 q 120 287 101 284 l 27 210 q 27 210 26 208 q 26 206 26 205 l 26 203 l 26 201 l 37 190 l 39 190 l 41 190 l 47 193 q 49 193 54 194 q 60 194 61 195 q 66 196 66 198 q 66 200 71 200 l 151 200 q 161 194 172 188 q 183 181 185 168 q 186 162 186 157 q 186 152 192 148 l 192 59 q 187 51 187 44 q 187 37 185 29 q 185 28 184 26 q 182 24 182 24 q 181 22 180 16 q 179 9 178 7 q 175 -2 165 -14 q 155 -27 153 -35 q 153 -36 152 -43 q 152 -50 151 -51 q 151 -53 148 -56 q 144 -60 143 -62 q 142 -62 141 -66 q 140 -69 140 -70 q 135 -77 132 -80 q 128 -82 126 -90 l 106 -112 q 106 -119 98 -123 q 91 -127 86 -132 l 19 -199 z"},";":{"x_min":0,"x_max":212,"ha":212,"o":"m 10 -198 l 19 -208 l 20 -208 q 21 -208 30 -205 q 38 -202 38 -202 l 102 -132 q 102 -132 104 -130 q 105 -127 106 -125 q 107 -125 107 -124 q 107 -123 107 -123 l 126 -101 q 126 -94 130 -90 q 133 -85 135 -79 q 138 -71 140 -64 q 141 -57 146 -51 l 146 20 q 146 23 142 31 q 138 39 137 43 q 135 47 135 50 q 135 54 133 59 q 132 60 130 63 q 127 66 127 67 q 126 68 126 71 q 126 74 126 75 q 126 77 124 79 q 122 84 117 92 q 112 100 106 100 l 105 100 l 84 80 l 82 79 q 79 76 75 76 l 26 23 l 26 20 l 34 11 l 36 11 q 44 11 52 16 q 59 22 64 28 q 63 22 66 19 q 69 16 73 11 q 75 6 76 2 q 76 -3 78 -8 l 79 -12 q 80 -17 80 -21 q 80 -25 84 -28 l 84 -89 q 81 -92 81 -96 q 81 -100 79 -104 q 77 -107 75 -113 q 73 -119 70 -126 q 68 -132 65 -137 q 62 -142 59 -143 l 10 -196 z m 41 191 q 44 187 48 182 q 51 177 53 172 q 54 171 54 168 q 55 165 56 164 q 57 162 60 158 q 63 155 64 155 l 67 155 l 89 178 q 88 176 89 174 q 90 171 90 169 q 92 167 95 164 q 98 160 98 160 l 101 160 l 150 214 l 150 236 q 150 241 146 248 q 141 255 138 258 q 136 260 133 264 q 130 267 129 268 q 129 269 125 269 q 121 269 121 270 q 115 273 114 276 q 112 278 106 278 l 104 278 l 41 210 z"},"J":{"x_min":0,"x_max":601,"ha":601,"o":"m 142 -465 q 152 -478 160 -485 q 168 -492 178 -501 q 185 -505 192 -506 q 198 -507 203 -514 l 214 -514 q 219 -514 222 -514 q 225 -514 230 -512 l 235 -508 q 239 -506 244 -506 q 250 -507 256 -504 q 257 -504 258 -502 q 259 -501 260 -501 q 265 -499 270 -497 q 275 -495 280 -493 q 281 -492 287 -490 q 293 -489 293 -489 q 295 -488 300 -484 q 304 -479 305 -478 q 305 -477 310 -476 q 316 -476 317 -476 l 321 -474 q 329 -468 338 -459 q 346 -450 356 -447 q 359 -446 364 -446 q 369 -446 373 -444 q 384 -436 395 -428 q 406 -420 418 -412 q 419 -412 420 -410 q 422 -407 423 -406 q 426 -403 432 -398 q 437 -392 442 -389 l 505 -312 q 505 -312 506 -311 q 507 -310 507 -309 q 512 -300 521 -284 q 530 -269 538 -260 l 538 -238 q 544 -233 548 -224 q 552 -216 557 -209 l 557 -110 q 552 -104 550 -98 q 548 -92 546 -87 l 546 -53 l 538 -47 l 538 -27 q 532 -21 532 -15 q 532 -9 525 -2 l 525 41 l 519 48 l 519 132 l 525 139 l 525 191 l 532 200 l 532 229 l 538 237 l 538 514 q 545 520 545 528 q 545 536 550 542 l 550 604 l 553 610 q 554 611 555 612 q 556 614 557 614 q 559 622 558 629 q 558 636 563 641 l 563 735 l 571 743 l 571 785 q 571 787 573 792 q 575 797 576 797 l 576 858 l 564 870 q 564 870 564 870 q 563 871 562 871 q 560 871 555 870 q 550 869 548 865 l 524 865 l 516 858 q 511 858 502 858 q 494 857 490 850 l 437 850 q 435 850 430 847 q 425 844 423 842 l 394 842 l 387 834 q 383 834 372 834 q 362 834 358 833 q 356 833 352 832 q 349 831 348 831 q 344 829 340 825 q 337 821 332 819 q 329 818 326 818 q 322 817 317 815 q 312 812 306 808 q 299 805 293 800 q 291 797 286 796 q 282 796 280 794 q 279 792 274 786 q 268 780 267 779 q 267 778 263 777 q 259 776 259 776 q 251 771 246 764 q 241 756 233 753 l 169 678 q 166 673 164 669 q 162 665 162 658 l 143 634 q 143 630 142 624 q 141 617 140 610 q 138 602 136 596 q 134 590 131 587 l 131 471 q 131 470 132 468 q 132 467 132 466 q 136 458 137 452 q 138 446 140 439 q 150 416 163 394 q 176 373 194 359 q 205 350 217 342 q 229 334 239 320 l 242 320 l 305 398 l 305 404 l 343 448 l 330 466 l 328 466 q 326 466 322 461 q 317 456 315 454 q 313 451 303 441 q 293 431 290 429 q 285 429 278 433 q 270 437 266 439 q 260 442 250 452 q 240 461 237 469 q 236 470 236 473 q 236 477 236 478 q 235 479 230 486 q 225 492 224 493 q 224 495 222 500 q 220 505 219 507 q 218 510 218 518 q 217 527 217 530 l 212 537 l 212 646 q 218 652 218 662 q 217 671 224 676 q 229 680 235 682 q 241 685 246 687 q 254 691 262 692 q 270 694 273 700 l 378 740 q 379 743 392 746 q 405 750 421 752 q 437 755 450 757 q 464 759 466 759 q 466 759 460 753 q 455 747 448 740 q 442 733 436 727 q 431 721 432 721 q 430 719 428 712 q 427 704 427 702 q 427 694 430 688 q 432 681 432 673 q 432 665 429 661 q 426 657 426 652 l 426 503 q 425 503 423 500 q 421 496 421 493 l 421 448 l 413 438 l 413 313 q 410 311 408 306 q 406 300 406 298 l 406 234 l 401 228 l 401 -119 q 405 -124 406 -130 q 408 -136 413 -141 l 413 -173 q 422 -183 422 -190 q 422 -197 427 -209 q 427 -210 430 -214 q 432 -217 432 -218 q 432 -220 432 -226 q 433 -233 433 -235 q 435 -241 439 -246 q 443 -251 444 -257 q 444 -259 444 -265 q 445 -271 446 -272 q 447 -274 451 -280 q 455 -286 457 -288 l 457 -317 q 456 -318 449 -326 q 442 -333 433 -342 q 424 -351 421 -352 q 419 -352 412 -353 q 405 -354 403 -354 q 395 -361 386 -366 q 378 -372 370 -380 q 367 -379 360 -380 q 353 -381 351 -382 q 349 -383 344 -389 q 340 -395 339 -395 q 338 -396 333 -396 q 328 -397 327 -397 q 326 -398 323 -400 q 320 -403 319 -404 q 314 -406 308 -405 q 302 -404 298 -413 l 282 -413 l 274 -420 l 259 -420 q 257 -418 254 -416 q 250 -414 248 -412 q 250 -408 255 -404 q 260 -401 262 -399 l 335 -312 l 335 -309 l 325 -296 l 321 -296 q 309 -310 297 -316 q 285 -323 268 -331 q 268 -332 266 -334 q 264 -335 263 -336 l 237 -336 l 227 -362 l 216 -358 l 194 -346 q 192 -336 189 -334 q 186 -331 181 -322 q 178 -317 176 -310 q 175 -303 172 -298 q 167 -290 164 -288 q 162 -286 160 -278 q 160 -277 160 -270 q 159 -264 159 -262 q 156 -253 149 -244 q 142 -235 137 -226 q 135 -223 132 -216 q 130 -210 127 -202 q 124 -195 121 -188 q 118 -182 117 -179 q 115 -172 116 -167 q 116 -162 114 -151 q 112 -143 108 -135 q 104 -127 103 -119 q 103 -115 102 -100 q 101 -86 101 -82 l 90 -53 l 90 78 q 95 85 96 93 q 96 101 97 109 q 102 118 116 126 q 129 134 138 132 q 146 141 158 144 q 170 148 181 147 q 182 148 184 149 q 186 150 187 151 l 189 153 l 228 153 l 233 147 q 233 139 234 130 q 235 121 239 115 l 239 64 q 237 64 237 61 q 236 58 235 53 q 234 48 234 48 l 234 -11 q 226 -16 227 -28 q 228 -41 228 -47 l 228 -65 q 232 -70 236 -76 q 239 -82 246 -82 l 247 -82 l 258 -70 q 259 -73 264 -73 q 265 -73 266 -72 q 268 -72 268 -72 q 274 -66 280 -62 q 286 -59 292 -52 l 359 26 q 359 27 360 32 q 362 37 363 39 l 363 41 l 363 42 l 351 56 l 348 56 q 337 44 328 36 q 319 27 308 16 l 308 25 q 308 33 308 36 q 309 39 314 44 l 314 111 q 314 113 316 118 q 318 122 319 123 l 319 177 q 319 181 317 183 q 315 191 316 202 q 316 212 312 220 q 312 220 307 226 q 302 232 300 234 q 298 236 294 242 q 290 247 289 248 l 267 248 q 250 248 238 246 q 227 244 212 241 l 208 239 q 203 236 196 233 q 190 230 185 228 q 183 227 178 226 q 172 226 169 224 q 158 215 154 212 q 150 209 138 204 q 137 204 134 204 q 132 203 131 203 l 111 179 l 105 176 l 34 92 q 28 84 26 76 q 24 67 21 59 q 20 57 18 53 q 17 49 16 48 q 14 41 14 34 q 15 28 10 23 l 10 -117 q 10 -121 12 -121 q 13 -124 16 -134 q 19 -143 21 -147 q 21 -150 22 -164 q 22 -177 23 -181 q 23 -183 24 -188 q 24 -192 24 -193 q 26 -199 30 -204 q 33 -209 34 -216 q 34 -218 34 -226 q 35 -233 35 -235 q 35 -237 36 -242 q 38 -246 38 -246 q 44 -267 54 -284 q 65 -302 74 -320 q 78 -327 79 -336 q 80 -345 83 -354 l 95 -366 q 97 -371 98 -378 q 100 -385 103 -391 q 104 -392 108 -397 q 111 -402 112 -404 q 113 -405 114 -409 q 114 -413 114 -415 q 115 -416 116 -418 q 116 -420 116 -420 q 122 -429 130 -440 q 138 -452 142 -465 z"},"V":{"x_min":0,"x_max":751,"ha":751,"o":"m 519 -302 l 519 -303 l 531 -315 l 534 -315 q 536 -313 541 -309 q 546 -305 548 -303 q 549 -303 552 -302 q 555 -302 556 -302 q 558 -301 560 -300 q 561 -300 561 -300 l 641 -222 q 643 -219 655 -212 q 667 -205 680 -197 q 694 -189 706 -181 q 717 -173 717 -170 q 735 -169 760 -162 q 784 -156 798 -154 q 801 -155 803 -152 q 805 -150 806 -147 q 806 -144 805 -142 q 804 -139 802 -139 q 801 -133 797 -132 q 793 -132 788 -132 q 782 -133 776 -134 q 771 -136 767 -135 q 751 -137 732 -142 q 712 -147 700 -158 q 698 -158 698 -148 q 699 -139 697 -139 l 702 -138 l 702 -57 l 696 -49 l 696 258 l 690 265 l 690 565 l 696 571 l 696 620 l 699 622 q 701 622 706 622 q 710 623 712 623 q 713 623 714 624 q 716 626 717 627 q 719 627 726 628 q 734 629 735 630 q 746 634 754 640 q 761 645 772 643 l 839 710 l 839 714 l 828 725 q 827 726 822 726 q 814 726 809 724 q 807 723 799 718 q 791 714 789 714 q 784 712 776 712 q 769 711 764 706 l 714 706 q 714 706 710 704 q 706 703 704 702 q 702 702 700 700 q 697 700 688 700 q 678 699 675 699 q 673 698 670 697 q 666 696 665 695 l 578 608 q 576 606 572 600 q 567 593 566 591 q 566 590 566 584 q 565 578 565 576 q 564 576 562 573 q 560 570 560 570 q 559 568 558 562 q 558 557 558 556 q 558 555 556 552 q 553 550 553 550 q 551 544 550 540 q 550 536 545 531 l 545 469 l 539 462 l 539 444 l 533 437 l 533 313 q 533 311 534 306 q 536 302 539 300 l 539 260 l 545 253 l 545 131 l 551 124 l 551 -22 q 551 -27 546 -32 l 546 -131 q 546 -133 548 -136 q 549 -139 551 -141 l 551 -159 q 544 -158 534 -151 q 524 -144 514 -136 q 504 -129 495 -123 q 486 -117 482 -117 l 459 -99 q 454 -98 450 -95 q 445 -92 439 -90 q 438 -90 436 -90 q 434 -89 434 -89 q 427 -84 418 -76 q 410 -69 405 -64 q 397 -64 392 -58 q 388 -52 380 -50 l 352 -25 l 348 -23 q 347 -22 342 -18 q 337 -13 329 -6 q 321 1 317 5 q 310 11 305 19 q 300 27 295 35 q 291 42 290 46 q 288 51 281 57 q 281 60 281 66 q 281 72 280 80 q 280 87 280 93 q 280 99 280 102 q 279 106 278 110 q 278 115 275 117 l 275 365 q 275 371 281 375 l 281 431 l 287 437 l 287 471 q 288 471 288 472 q 289 474 290 474 q 291 476 292 478 q 293 479 293 479 l 293 543 q 293 543 292 547 q 291 551 290 553 l 288 556 l 288 623 l 294 632 l 294 675 q 294 680 297 684 q 300 687 300 692 l 300 694 l 288 705 l 287 706 q 284 706 280 702 q 267 713 255 716 q 243 719 226 719 l 204 719 q 201 716 196 712 q 190 708 186 707 q 185 707 180 706 q 174 706 173 705 q 171 705 165 700 q 159 695 157 694 q 149 689 140 685 q 132 681 124 677 q 116 672 110 667 q 103 662 94 658 l 27 591 q 26 590 22 582 q 17 575 14 568 q 11 562 10 561 l 10 528 q 16 521 23 512 q 30 502 38 493 q 45 484 54 478 q 63 471 74 471 l 75 471 l 142 538 q 150 548 159 555 q 168 562 173 570 q 171 576 177 574 q 175 578 179 580 q 183 582 181 586 q 179 589 175 590 q 171 592 173 597 q 167 596 166 590 q 164 585 158 582 q 160 576 154 578 q 146 572 139 566 q 132 560 123 555 l 131 553 q 130 553 126 554 q 123 556 122 556 q 121 557 118 558 q 116 559 116 560 q 108 565 100 576 q 93 586 93 595 q 93 596 94 599 q 94 602 94 603 l 95 605 q 96 606 100 608 q 104 611 108 614 q 113 617 116 620 q 120 622 121 622 l 141 625 q 145 628 149 630 q 153 632 157 635 l 175 635 l 193 635 q 196 635 204 632 q 211 629 211 625 l 211 622 q 211 616 210 605 q 210 594 210 586 q 209 579 209 578 l 204 571 l 204 498 q 206 496 208 493 q 209 490 209 488 l 209 431 q 206 428 206 424 q 205 420 204 415 q 204 412 204 402 q 203 392 203 389 q 202 388 200 384 q 197 380 197 379 l 197 323 q 195 321 193 316 q 191 312 191 310 l 191 55 q 191 55 192 54 q 193 52 194 50 q 195 50 196 48 q 196 47 197 47 l 197 -2 q 208 -12 209 -20 q 210 -28 218 -39 q 229 -54 243 -66 q 257 -78 271 -90 q 274 -92 280 -98 q 286 -104 293 -110 q 300 -117 306 -123 q 312 -129 315 -131 l 328 -136 l 348 -156 q 349 -157 351 -158 q 353 -159 353 -159 q 354 -159 358 -160 q 361 -160 362 -161 q 363 -162 368 -166 q 372 -170 374 -171 q 381 -176 390 -178 q 398 -181 405 -186 q 407 -187 414 -192 q 420 -198 422 -199 q 423 -200 426 -201 q 430 -202 431 -203 q 433 -205 438 -210 q 442 -214 447 -214 q 449 -216 454 -222 q 460 -228 462 -230 q 463 -230 465 -232 q 467 -233 467 -233 q 468 -233 472 -234 q 475 -234 476 -235 q 477 -236 483 -240 q 489 -245 491 -246 q 495 -249 505 -250 q 515 -252 523 -255 q 528 -257 532 -262 q 537 -266 543 -268 l 526 -287 q 525 -291 522 -294 q 519 -297 519 -302 z"},"\"":{"x_min":0,"x_max":237,"ha":237,"o":"m 82 663 q 82 663 82 662 q 82 662 83 662 l 92 650 l 95 650 l 149 714 q 149 714 150 720 q 152 725 153 728 q 156 740 159 753 q 162 766 165 778 l 165 820 l 160 834 l 160 941 l 149 953 l 94 889 l 94 782 l 98 766 l 98 726 q 95 715 92 705 q 89 695 87 684 q 86 679 84 673 q 82 667 82 663 z m -4 684 l 7 671 l 62 736 l 62 900 q 62 911 57 917 q 55 920 52 924 q 48 928 48 928 l 45 928 l -9 865 l -9 864 q -9 859 -6 856 q -4 853 -4 848 z"},"7":{"x_min":0,"x_max":388,"ha":388,"o":"m 5 -335 l 5 -336 l 17 -348 l 20 -348 l 90 -278 q 99 -269 99 -255 q 99 -242 102 -231 q 102 -230 104 -226 q 105 -222 105 -221 q 106 -218 106 -207 q 107 -196 107 -192 q 119 -133 134 -79 q 137 -67 140 -55 q 142 -43 147 -32 q 148 -30 153 -20 q 158 -10 159 -8 q 163 0 164 8 q 165 17 169 25 q 177 43 186 60 q 194 78 202 97 q 204 102 208 106 q 212 110 214 115 q 218 123 220 134 q 222 144 226 152 q 227 153 230 158 q 232 164 235 170 q 238 177 240 182 q 243 187 244 189 q 245 190 246 194 q 247 197 248 199 q 248 200 248 205 q 249 210 249 211 q 252 219 258 224 q 265 230 269 237 q 270 240 274 247 q 278 254 282 262 q 286 271 290 278 q 293 285 294 288 q 317 314 332 344 q 346 375 370 400 q 371 402 371 407 l 371 408 l 360 420 l 358 420 q 355 420 351 416 l 244 416 q 242 416 238 414 q 233 411 231 409 l 161 409 q 160 409 156 407 q 152 405 148 402 q 144 399 140 396 q 136 394 135 393 l 65 323 q 65 322 64 321 q 64 320 64 319 q 63 319 60 316 q 57 312 57 311 q 56 310 56 304 q 55 299 55 298 q 55 297 54 295 q 54 293 54 293 q 52 291 48 287 q 45 283 43 281 l 43 278 l 57 264 l 119 325 l 179 325 q 183 331 189 331 l 273 331 q 265 325 262 316 q 259 307 254 299 q 249 291 244 284 q 240 278 236 269 q 231 259 224 252 q 216 244 211 234 q 209 231 206 224 q 202 217 198 209 q 194 201 190 194 q 187 187 186 184 q 175 173 170 166 q 166 158 164 144 q 164 141 162 139 q 161 137 158 132 q 156 127 153 120 q 150 114 148 108 q 145 103 144 102 q 140 94 138 84 q 136 74 132 65 q 130 60 126 56 q 122 52 120 47 q 115 37 112 27 q 109 17 104 7 q 99 -1 94 -9 q 90 -17 87 -25 q 83 -33 82 -42 q 81 -51 77 -59 q 76 -61 71 -70 q 66 -80 65 -82 q 57 -102 52 -124 q 47 -146 42 -167 q 37 -188 32 -207 q 27 -226 23 -248 q 23 -249 23 -253 q 23 -257 22 -262 q 22 -266 22 -270 q 22 -275 22 -276 q 22 -277 20 -281 q 19 -285 18 -286 q 16 -294 16 -300 q 16 -307 15 -315 q 14 -320 10 -325 q 5 -330 5 -335 z"},"S":{"x_min":0,"x_max":841,"ha":841,"o":"m 2 -49 q 7 -57 6 -62 q 6 -67 9 -78 q 11 -83 14 -90 q 18 -96 20 -101 q 23 -108 24 -115 q 25 -122 30 -128 q 31 -129 34 -133 q 38 -137 39 -138 q 39 -138 40 -141 q 40 -144 41 -145 q 51 -166 69 -178 q 70 -179 72 -180 q 75 -182 76 -183 q 77 -185 84 -191 q 91 -197 92 -198 q 93 -199 96 -200 q 100 -201 101 -202 q 111 -209 120 -216 q 129 -224 139 -232 q 149 -238 160 -242 q 170 -246 181 -248 q 191 -251 201 -256 q 211 -262 220 -267 q 228 -271 236 -272 q 245 -273 253 -275 q 257 -277 264 -281 q 272 -285 275 -287 l 458 -287 l 464 -281 l 525 -281 q 529 -275 536 -274 q 543 -273 548 -270 q 549 -270 551 -270 q 553 -269 553 -269 q 556 -268 565 -268 q 574 -267 577 -267 q 577 -266 580 -264 q 583 -262 585 -262 q 586 -262 592 -262 q 597 -261 598 -260 q 599 -260 602 -258 q 604 -256 605 -255 q 606 -255 608 -254 q 611 -254 612 -253 q 629 -245 643 -233 q 657 -221 674 -212 q 675 -211 677 -210 q 679 -209 679 -208 l 746 -141 l 749 -133 q 757 -125 766 -115 q 774 -105 779 -94 q 781 -89 782 -86 q 783 -82 786 -78 q 787 -76 792 -70 q 798 -63 800 -61 q 800 -60 802 -55 q 805 -50 806 -47 q 811 -38 812 -29 q 813 -20 821 -12 l 821 62 l 810 95 q 809 96 807 100 q 805 104 805 105 q 803 108 800 116 q 797 124 794 132 q 791 141 788 149 q 785 157 784 160 q 784 161 783 163 q 782 165 781 165 q 781 166 780 170 q 778 173 778 174 q 757 204 729 226 q 728 227 722 232 q 717 237 716 237 q 715 238 710 238 q 704 239 702 239 q 698 241 691 244 q 684 247 681 251 l 671 251 q 666 251 660 250 q 653 250 649 245 l 604 245 q 602 245 598 242 q 594 240 593 239 l 498 239 q 493 239 493 240 q 493 242 488 244 q 487 244 482 244 q 476 245 474 246 q 474 246 472 248 q 469 251 468 251 q 467 251 464 252 q 460 252 459 253 q 455 254 452 256 q 448 259 444 261 l 419 286 q 414 290 414 296 q 413 303 413 310 q 413 317 412 323 q 412 329 407 333 l 407 370 q 407 372 409 375 q 411 378 412 380 q 412 388 414 400 q 415 413 423 418 q 424 419 426 420 q 427 422 428 422 l 469 422 l 480 416 l 505 416 q 509 410 514 409 q 520 408 525 403 l 536 392 l 540 392 l 582 432 q 584 430 586 428 q 589 425 592 425 l 593 425 l 660 492 l 660 591 q 660 598 655 604 q 650 609 645 613 l 639 613 q 627 613 623 610 q 619 607 609 603 l 538 532 l 538 529 l 550 517 l 551 517 q 559 517 564 523 q 569 529 577 529 l 577 492 q 569 492 563 500 l 536 500 q 535 501 531 504 q 527 506 525 506 l 481 506 q 479 504 470 500 q 460 495 458 494 q 457 493 454 492 q 450 492 449 492 q 443 490 439 485 q 435 480 428 480 l 361 413 q 360 413 360 412 q 359 410 359 410 q 357 407 350 398 q 342 389 340 387 q 336 379 336 370 q 336 361 332 353 q 332 352 331 350 q 330 349 330 348 q 330 346 330 338 q 329 330 329 328 l 327 325 q 326 323 325 319 q 324 315 324 315 l 324 271 q 325 269 326 267 q 328 265 329 263 q 328 260 329 251 q 330 242 330 239 q 332 232 336 228 q 340 223 342 217 l 374 185 q 383 182 392 176 q 401 169 409 164 q 414 161 420 161 q 427 161 433 159 q 435 157 439 156 q 443 154 443 154 l 526 154 q 525 152 525 149 l 525 147 q 526 145 530 141 q 534 137 536 135 q 537 135 542 134 q 546 134 547 134 q 554 132 560 126 q 565 119 570 115 q 578 109 587 104 q 596 100 602 92 q 608 83 614 72 q 621 60 625 50 q 628 43 632 30 q 637 17 637 16 l 637 -47 l 624 -85 l 637 -98 l 640 -98 l 707 -31 q 709 -29 714 -14 q 719 0 721 8 q 722 12 722 26 q 723 39 722 43 q 724 42 726 39 q 727 36 727 35 q 730 29 734 18 q 738 7 738 6 l 738 -64 q 730 -72 728 -80 q 727 -89 724 -98 q 721 -108 716 -114 q 710 -120 704 -128 q 701 -132 700 -136 q 699 -140 697 -145 q 695 -150 689 -154 q 683 -159 681 -161 q 677 -164 673 -164 q 669 -164 666 -166 q 664 -167 658 -172 q 652 -176 650 -176 q 648 -178 640 -179 q 632 -180 630 -180 q 628 -183 621 -184 q 614 -186 606 -188 q 597 -189 589 -191 q 581 -193 577 -197 l 516 -197 q 515 -197 511 -200 q 507 -203 506 -203 l 332 -203 q 327 -198 322 -197 q 317 -196 312 -191 q 297 -193 287 -186 q 277 -180 263 -176 q 262 -176 260 -176 q 259 -175 258 -175 q 254 -173 250 -170 q 245 -166 240 -165 q 239 -164 234 -164 q 228 -163 227 -163 q 226 -163 220 -160 q 215 -158 213 -156 q 206 -152 202 -148 q 197 -143 190 -138 q 188 -137 181 -134 q 174 -131 173 -130 q 172 -129 167 -124 q 162 -120 161 -119 q 160 -119 157 -118 q 154 -117 153 -116 q 140 -107 126 -88 q 111 -69 106 -54 q 104 -48 102 -41 q 101 -34 98 -27 q 97 -27 95 -24 q 93 -21 92 -21 q 90 -12 90 -6 q 91 0 86 8 l 86 100 q 90 99 94 97 q 98 95 103 95 l 104 95 l 171 162 l 162 162 q 172 162 184 162 q 195 163 204 162 q 214 161 222 158 q 229 155 231 146 l 235 146 q 237 140 233 136 q 229 133 231 127 q 226 129 224 124 q 223 120 224 116 q 222 115 218 116 q 214 117 216 112 q 218 106 212 108 q 210 106 208 104 q 207 103 208 100 q 198 102 200 92 q 198 91 194 92 q 191 93 193 89 q 189 89 186 86 q 184 82 184 77 q 184 73 186 69 q 188 65 193 66 q 198 66 203 66 q 209 66 208 73 q 221 79 230 91 q 239 103 243 116 q 245 118 248 118 q 252 119 250 123 q 251 128 250 132 q 249 137 254 139 l 254 166 q 248 164 250 170 q 247 169 245 172 q 243 175 239 173 q 237 178 233 177 q 229 176 227 181 q 216 187 200 185 q 184 183 170 185 q 172 180 167 180 q 162 179 159 177 q 153 183 144 184 q 135 184 127 184 l 113 184 q 108 180 100 177 q 92 174 86 172 l 19 105 q 15 96 8 88 q 2 81 2 70 z"},"}":{"x_min":0,"x_max":273,"ha":273,"o":"m -40 -236 l -28 -248 l -27 -248 l -25 -248 q -23 -248 -16 -246 q -10 -243 -8 -243 q -4 -242 8 -242 q 21 -241 25 -241 q 39 -237 56 -226 q 72 -216 82 -206 l 169 -117 q 174 -112 176 -108 q 177 -104 182 -99 l 182 75 q 182 77 184 80 q 187 84 189 85 l 189 355 q 196 362 194 370 q 193 378 198 386 q 198 387 200 389 q 201 391 201 391 q 203 400 203 404 q 203 409 209 417 q 210 418 216 423 q 221 428 226 434 q 232 440 237 445 q 242 450 243 452 q 248 458 252 464 q 256 469 261 475 l 261 479 l 250 490 l 248 490 l 246 490 q 246 490 244 488 q 242 487 241 487 l 240 487 q 238 489 234 492 q 230 496 228 497 q 226 498 220 499 q 214 500 213 500 q 209 502 206 505 q 202 508 198 510 q 195 512 192 512 q 190 511 188 514 q 187 514 186 517 q 185 520 184 520 q 184 521 180 525 q 177 529 176 530 q 174 532 172 536 q 169 540 169 540 l 169 622 q 177 630 176 640 q 174 651 182 659 l 182 738 l 189 748 l 189 792 l 195 800 l 195 830 l 202 838 l 202 870 q 202 870 203 872 q 204 874 204 875 q 205 876 206 878 q 208 881 209 882 l 209 905 q 215 910 216 915 q 216 920 222 925 l 222 952 q 229 956 228 961 q 228 966 230 972 q 231 977 235 982 q 239 988 241 991 q 241 999 241 1011 q 241 1023 249 1029 l 249 1071 l 255 1083 l 255 1111 q 255 1111 254 1112 q 253 1114 253 1115 q 253 1115 252 1117 q 250 1119 250 1120 q 249 1121 248 1126 q 248 1132 248 1133 q 247 1138 246 1139 q 244 1140 241 1145 q 234 1157 228 1164 q 223 1171 211 1180 l 142 1180 q 140 1180 136 1178 q 133 1176 131 1175 q 129 1174 122 1173 q 116 1172 114 1172 q 113 1171 108 1166 q 103 1162 102 1162 q 102 1161 100 1160 q 99 1160 99 1160 l 32 1093 l 32 1090 l 44 1078 l 45 1078 q 52 1078 54 1082 q 56 1085 62 1088 q 64 1089 70 1090 q 76 1091 77 1091 q 79 1092 82 1094 q 86 1095 87 1096 l 153 1096 q 153 1096 158 1088 q 163 1079 165 1078 l 165 1059 l 171 1053 l 171 1029 l 165 1018 l 165 979 q 161 977 160 973 q 160 969 159 964 q 159 962 158 954 q 158 946 158 944 q 154 940 152 936 q 151 931 147 927 q 147 921 146 912 q 144 904 138 899 l 138 874 l 125 855 l 125 828 q 123 826 120 822 q 118 818 118 817 l 118 785 l 112 778 l 112 751 q 107 749 106 745 q 106 741 106 736 q 106 734 106 728 q 105 722 104 716 q 104 709 104 703 q 104 697 104 694 l 98 683 l 98 606 q 92 598 93 587 q 94 576 86 571 l 86 482 q 88 479 90 476 q 92 473 92 468 q 100 458 110 448 q 120 439 129 430 q 137 428 146 422 q 154 415 163 415 q 155 408 145 394 q 135 381 129 373 q 124 365 120 356 q 117 346 114 338 q 111 328 112 318 q 112 308 105 299 l 105 33 q 103 31 100 26 q 98 22 98 20 l 98 -148 q 98 -148 94 -150 q 89 -152 87 -154 q 86 -155 84 -156 q 82 -157 81 -158 q 76 -157 64 -158 q 51 -158 47 -159 q 43 -160 36 -162 q 28 -165 27 -166 l -40 -233 z"},"Z":{"x_min":0,"x_max":606,"ha":606,"o":"m 777 -282 q 777 -282 780 -285 q 782 -288 784 -288 l 873 -288 q 880 -281 884 -282 q 889 -284 897 -281 q 902 -279 908 -275 q 914 -271 919 -269 q 921 -267 926 -265 q 930 -263 930 -262 q 932 -261 936 -257 q 939 -253 941 -251 q 945 -247 953 -238 q 961 -229 970 -220 q 979 -210 988 -201 q 996 -192 999 -188 q 1003 -175 1011 -168 q 1019 -161 1019 -146 q 1019 -145 1018 -143 q 1018 -141 1018 -140 q 1017 -139 1014 -134 q 1010 -129 1009 -127 q 1008 -125 1008 -120 q 1007 -114 1007 -113 q 1007 -112 1005 -108 q 1003 -105 1003 -104 q 1002 -102 1002 -94 q 1001 -87 1001 -85 q 1000 -80 996 -76 q 993 -73 990 -69 l 979 -69 q 977 -69 973 -69 q 969 -69 966 -71 q 965 -72 960 -76 q 955 -81 953 -82 q 934 -95 915 -95 l 856 -159 l 856 -163 l 867 -173 l 887 -173 q 887 -172 898 -166 q 909 -160 918 -155 q 927 -150 929 -149 l 930 -149 q 930 -154 931 -159 q 932 -164 935 -167 l 935 -194 q 935 -195 934 -198 q 932 -201 930 -202 q 929 -204 924 -206 q 920 -209 919 -209 l 835 -209 l 828 -203 l 790 -203 q 785 -196 779 -196 q 773 -196 768 -190 l 750 -190 l 744 -184 l 728 -184 q 723 -178 719 -176 q 715 -173 710 -172 q 706 -170 701 -168 q 696 -167 691 -163 q 691 -159 687 -159 q 685 -158 680 -158 q 675 -158 672 -156 q 671 -155 667 -150 q 663 -146 662 -146 q 657 -143 652 -142 q 647 -142 641 -137 q 639 -135 632 -129 q 626 -123 624 -121 q 624 -121 620 -120 q 616 -119 614 -118 q 613 -117 607 -112 q 601 -107 601 -106 q 593 -99 583 -92 q 573 -85 562 -80 l 536 -54 q 529 -52 522 -49 q 514 -46 508 -41 q 506 -40 502 -36 q 499 -32 498 -32 q 497 -31 492 -31 q 487 -31 485 -30 q 485 -30 484 -30 q 483 -29 482 -29 q 477 -25 472 -20 q 466 -14 461 -12 q 456 -10 454 -10 q 451 -11 446 -6 q 438 -6 428 -3 q 419 0 411 8 l 366 8 l 357 14 l 322 14 l 322 102 l 327 108 l 327 169 q 330 172 334 184 q 337 195 338 200 q 339 204 340 216 q 340 227 340 231 q 342 234 342 238 q 343 242 345 247 q 347 252 350 258 q 353 263 354 268 q 354 270 354 275 q 355 280 356 281 q 357 286 358 288 q 360 290 362 297 q 368 297 373 300 q 378 303 383 303 l 385 303 q 385 301 384 294 q 382 288 381 286 q 380 283 378 281 q 376 279 376 277 l 376 275 l 387 264 q 390 261 392 261 q 395 261 399 264 q 403 268 405 270 q 415 277 429 284 q 443 290 454 292 q 456 294 459 294 q 469 301 482 303 q 484 303 493 304 q 502 304 504 305 q 505 305 508 308 q 512 310 512 310 q 514 311 520 312 q 526 312 528 312 q 532 314 535 317 l 592 381 l 592 384 l 583 395 l 581 395 q 574 395 566 392 q 557 388 549 386 q 535 383 526 382 q 518 382 505 376 q 505 375 503 374 q 501 372 500 372 q 500 372 495 372 q 490 371 489 371 q 487 370 485 368 q 483 367 482 367 q 479 365 472 361 q 465 357 460 357 q 460 363 465 368 q 470 372 470 377 q 470 378 470 378 q 469 379 469 379 l 460 391 l 455 391 q 448 391 435 387 q 422 383 417 379 l 392 379 q 392 380 392 382 q 391 385 391 386 q 392 390 397 402 q 402 414 405 417 q 405 418 408 422 q 411 426 411 427 q 413 428 413 435 q 413 442 414 444 q 414 445 416 448 q 418 451 418 452 q 420 459 420 461 q 419 463 423 468 l 462 515 l 472 537 l 505 574 q 507 575 510 576 q 513 578 515 580 l 578 650 l 578 652 q 578 656 575 658 l 601 688 l 606 688 l 667 758 l 667 765 q 666 766 664 770 q 661 774 660 776 q 660 776 660 778 q 659 780 659 781 q 657 783 653 788 q 649 792 649 792 l 611 792 q 606 784 598 786 q 590 787 585 780 l 391 780 l 384 773 l 363 773 l 357 768 l 310 768 l 304 773 l 287 773 q 285 780 280 780 q 275 779 270 781 q 267 782 262 786 q 257 790 255 792 q 252 792 244 792 q 237 792 234 793 q 233 793 230 796 q 227 798 226 798 l 221 798 q 218 798 213 798 q 208 798 206 796 l 194 784 l 184 793 l 123 728 l 123 658 l 105 603 q 103 601 100 594 q 96 588 96 585 l 96 584 l 108 572 l 110 572 l 143 600 q 143 602 150 616 q 156 629 163 645 q 170 661 176 674 q 182 686 182 686 l 184 686 q 186 683 190 680 q 194 676 199 675 q 202 674 210 674 q 218 673 221 673 q 222 672 226 670 q 229 667 230 667 l 266 667 q 268 663 272 662 q 275 662 279 661 q 283 661 296 660 q 309 660 314 660 q 314 659 315 658 q 316 658 316 658 l 325 655 l 400 655 q 406 661 414 661 q 422 661 429 667 l 473 667 l 479 673 l 500 673 l 500 668 l 446 589 l 445 587 q 443 585 440 580 q 436 574 434 572 l 434 563 l 411 537 q 409 529 406 526 q 403 524 399 518 q 396 513 394 508 q 393 502 391 497 q 387 489 385 486 q 383 484 381 476 q 381 475 380 474 q 380 472 380 471 q 372 457 362 444 q 351 430 346 416 q 346 415 345 414 q 344 412 344 412 q 344 409 343 401 q 342 393 340 391 q 340 389 336 384 q 333 379 332 377 q 328 371 324 362 q 321 354 318 346 q 316 344 310 342 l 310 365 l 300 376 l 299 376 q 298 376 293 374 q 288 371 281 368 q 274 364 272 363 l 242 331 q 240 328 235 327 q 230 326 227 326 l 209 307 q 206 305 204 304 q 203 302 199 301 l 141 237 l 141 234 l 152 223 l 153 223 q 164 223 173 232 q 182 240 190 247 q 192 249 194 250 q 197 252 199 254 q 207 262 216 269 q 225 276 234 284 q 235 284 236 285 q 237 286 238 286 q 236 284 232 280 q 227 275 227 270 l 227 243 l 238 233 l 239 233 l 240 233 q 241 233 243 234 q 245 234 245 234 l 279 270 q 281 272 284 272 q 287 271 289 271 l 289 268 q 282 262 282 256 q 281 251 278 243 q 277 242 274 238 q 271 234 270 233 q 268 228 266 222 q 265 217 263 212 q 261 208 261 204 q 261 200 259 197 q 257 196 254 192 q 252 189 251 188 q 251 187 250 183 q 249 179 249 178 q 249 176 248 174 q 246 172 246 171 q 243 166 240 161 q 236 156 234 150 q 232 142 232 134 q 232 127 229 119 q 228 118 228 116 q 227 114 227 114 q 225 102 220 89 q 216 76 211 65 q 209 60 210 58 q 211 56 209 51 q 207 46 204 42 q 201 38 199 35 q 199 33 198 26 q 198 20 198 18 q 198 17 197 15 q 196 13 195 13 q 195 13 194 12 q 194 10 194 9 q 193 7 192 2 q 192 -3 192 -5 l 163 -5 q 158 -15 146 -16 q 133 -17 124 -19 q 118 -20 113 -24 q 108 -29 101 -30 q 96 -31 92 -31 q 88 -31 84 -33 q 84 -33 82 -34 q 80 -36 79 -36 q 78 -37 74 -38 q 69 -38 67 -38 l 10 -101 l 10 -104 l 20 -116 l 40 -116 q 44 -110 48 -110 q 52 -111 57 -109 q 62 -107 67 -103 q 72 -99 77 -98 q 79 -98 86 -98 q 94 -97 96 -97 q 101 -92 108 -92 q 115 -91 119 -84 l 154 -84 q 159 -81 164 -80 q 170 -78 174 -74 q 178 -77 182 -80 q 186 -83 191 -83 l 192 -83 q 193 -83 198 -80 q 202 -78 204 -77 q 210 -73 217 -72 q 224 -71 229 -66 l 310 -66 l 319 -72 l 358 -72 q 364 -80 376 -82 q 389 -83 396 -85 q 397 -85 400 -88 q 402 -90 403 -90 q 404 -90 407 -90 q 410 -91 411 -92 q 416 -94 422 -99 q 428 -104 431 -106 q 431 -106 434 -107 q 437 -108 439 -109 q 440 -109 442 -110 q 444 -111 445 -111 q 452 -114 458 -118 q 464 -123 470 -127 q 471 -127 474 -128 q 478 -129 479 -130 q 481 -131 484 -135 q 487 -139 490 -140 q 502 -153 515 -161 q 528 -169 541 -180 q 542 -181 546 -184 q 550 -188 551 -189 q 556 -194 563 -196 q 570 -197 575 -201 q 577 -202 583 -207 q 589 -212 590 -214 q 591 -215 593 -218 q 595 -220 596 -221 q 599 -223 604 -223 q 609 -223 611 -226 q 612 -226 615 -229 q 618 -232 618 -233 q 619 -233 622 -234 q 625 -236 627 -236 q 629 -237 632 -238 q 636 -238 637 -238 q 638 -239 642 -242 q 646 -246 647 -246 q 652 -250 655 -250 q 658 -249 663 -251 q 668 -253 672 -257 q 675 -261 682 -262 q 683 -262 688 -262 q 693 -263 695 -264 q 696 -264 698 -266 q 701 -269 702 -269 q 710 -271 722 -272 q 734 -272 739 -282 z"},"x":{"x_min":0,"x_max":647,"ha":647,"o":"m 466 -216 q 470 -217 476 -222 q 482 -226 488 -232 q 495 -237 501 -242 q 507 -248 510 -250 q 518 -256 526 -259 q 535 -262 544 -269 l 569 -269 q 592 -246 619 -221 q 646 -196 679 -185 l 781 -82 l 761 -62 l 752 -62 q 744 -67 734 -74 q 723 -80 715 -85 q 713 -87 704 -94 q 695 -101 693 -102 q 691 -104 682 -107 q 674 -110 672 -111 q 671 -112 666 -116 q 662 -119 656 -124 q 651 -128 646 -132 q 642 -135 641 -136 q 640 -136 638 -137 q 637 -138 636 -138 q 635 -139 632 -142 q 629 -144 628 -145 q 617 -140 606 -130 q 595 -120 586 -113 q 584 -111 576 -106 q 567 -102 558 -96 q 549 -90 542 -84 q 536 -78 537 -73 q 526 -60 516 -53 q 506 -46 495 -33 q 493 -30 489 -24 q 485 -19 487 -14 q 485 -12 480 -6 q 474 1 472 3 q 469 8 470 12 q 471 16 468 20 l 445 50 q 447 64 440 72 q 432 80 428 92 q 429 109 424 122 q 420 134 413 149 q 411 154 411 157 q 411 161 409 166 l 575 336 q 577 347 586 353 q 595 359 596 368 q 597 370 596 376 q 596 383 596 385 q 597 389 600 394 q 603 399 605 402 q 605 403 609 408 q 613 413 613 414 q 614 417 614 426 q 614 435 613 438 q 618 448 620 452 q 622 457 622 468 l 622 482 q 611 491 613 507 l 578 542 l 476 440 l 476 433 q 478 431 482 426 q 487 421 489 419 q 492 414 491 412 q 490 410 491 404 q 492 397 496 394 q 500 390 500 382 q 500 377 498 374 q 497 370 491 366 l 491 336 q 491 334 488 330 q 486 326 483 322 q 480 317 477 312 q 474 308 474 307 l 474 296 q 474 296 473 294 q 472 293 472 292 q 468 287 460 280 q 453 273 455 265 l 415 225 q 407 222 406 219 q 404 216 394 216 l 394 231 q 386 238 378 249 q 371 260 369 271 q 367 277 368 286 q 369 294 366 301 q 364 306 359 312 q 354 318 352 324 q 349 332 350 336 q 350 339 345 347 q 345 348 344 350 q 343 351 343 351 q 341 362 338 376 q 335 391 326 400 l 326 490 l 305 511 l 278 511 q 274 504 269 503 q 264 502 258 502 q 248 502 246 507 q 243 512 237 512 l 236 511 q 231 511 229 509 l 128 408 q 128 408 128 404 q 127 399 127 397 q 127 386 128 376 q 130 367 137 357 q 139 353 146 346 q 154 338 156 338 l 158 338 l 204 383 l 204 307 q 209 301 214 292 q 219 283 221 275 q 221 274 220 267 q 220 260 221 258 q 221 257 225 253 q 229 249 229 248 q 230 246 230 240 q 229 233 229 231 q 231 223 238 216 q 245 210 246 201 l 246 184 q 248 174 252 170 q 257 166 255 155 q 257 153 262 146 q 267 140 269 138 q 272 134 272 130 q 272 126 272 122 q 271 117 272 113 q 273 109 278 106 q 270 98 261 92 q 252 85 244 77 q 206 40 166 1 q 127 -38 94 -81 q 97 -86 90 -94 q 84 -102 82 -107 l 9 -181 l 29 -202 l 30 -202 l 31 -202 q 34 -200 44 -197 q 54 -194 56 -193 l 139 -193 q 140 -193 145 -196 q 150 -198 156 -201 q 162 -204 168 -206 q 173 -208 174 -208 l 175 -208 l 276 -107 l 276 -106 l 276 -104 q 275 -103 274 -100 q 274 -98 274 -98 l 255 -79 q 247 -81 240 -78 q 232 -75 225 -71 l 177 -71 l 175 -69 l 200 -41 q 201 -39 203 -32 q 205 -26 206 -24 l 210 -16 l 288 62 q 293 59 294 54 q 296 50 296 46 q 297 41 298 36 q 300 32 305 28 l 305 -1 q 313 -10 318 -18 q 324 -25 322 -37 l 339 -58 q 337 -63 344 -70 q 351 -77 347 -90 q 349 -92 354 -98 q 360 -105 362 -107 q 364 -107 364 -111 l 394 -149 q 394 -152 400 -158 q 406 -165 414 -172 q 421 -179 428 -184 q 435 -190 438 -191 z"},")":{"x_min":0,"x_max":355,"ha":355,"o":"m 123 956 q 114 957 107 954 q 100 950 94 946 q 88 941 82 937 q 75 933 66 933 q 58 929 57 920 q 56 910 46 909 q 44 903 47 898 q 50 892 58 894 q 62 892 68 894 q 74 896 73 890 q 77 890 80 890 q 83 890 85 886 q 93 884 102 880 q 110 876 112 867 q 117 862 120 856 q 123 850 131 848 q 135 843 136 836 q 138 830 146 829 q 182 707 190 578 q 198 450 180 322 q 162 195 120 73 q 78 -49 15 -158 q 12 -165 5 -167 q -2 -169 -4 -177 q -15 -190 -29 -199 q -43 -208 -50 -224 q -55 -226 -54 -230 q -53 -233 -58 -235 q -60 -243 -56 -252 q -52 -260 -42 -258 q -27 -263 -15 -258 q -3 -252 8 -242 q 18 -232 28 -221 q 39 -210 50 -204 q 94 -158 124 -102 q 153 -46 176 14 q 198 74 218 136 q 237 197 262 254 q 290 338 305 431 q 320 524 316 616 q 311 708 284 794 q 256 881 200 952 q 193 955 188 960 q 182 966 173 963 q 168 962 164 964 q 159 967 154 969 q 149 971 144 971 q 140 971 135 967 q 127 961 118 961 q 109 961 104 952 z"},"&":{"x_min":0,"x_max":767,"ha":767,"o":"m 188 -89 q 189 -90 191 -92 q 193 -93 194 -93 l 222 -93 q 225 -87 228 -88 q 230 -90 235 -87 q 236 -87 240 -83 q 244 -79 245 -79 q 245 -78 248 -78 q 252 -77 253 -77 q 258 -74 264 -68 q 271 -61 276 -57 q 276 -57 278 -56 q 281 -56 282 -56 l 291 -47 q 296 -43 301 -40 q 306 -37 312 -35 q 315 -34 317 -32 q 319 -29 322 -27 q 328 -23 334 -20 q 340 -18 345 -13 l 459 117 q 459 118 464 124 q 469 131 471 134 q 472 134 472 136 q 473 138 474 138 q 475 139 478 143 q 481 147 481 148 q 481 149 482 154 q 484 160 484 161 q 486 163 490 168 q 495 173 496 175 q 496 180 502 188 q 508 196 510 201 q 512 206 512 210 q 513 214 515 219 l 516 221 q 516 222 517 225 q 518 228 518 229 q 518 229 520 232 q 521 234 522 236 l 522 287 l 547 287 q 550 292 556 292 q 563 293 567 293 q 572 297 577 297 q 582 297 587 301 l 591 301 q 596 303 604 304 q 611 306 617 308 q 623 310 628 316 q 633 321 639 322 l 654 337 l 661 339 l 707 392 q 709 400 715 405 q 721 410 721 419 l 721 441 q 721 443 717 456 q 713 468 711 470 q 707 475 702 481 q 696 487 695 487 l 693 487 l 647 435 l 647 431 q 654 423 659 412 q 664 401 664 390 q 664 388 664 385 q 664 382 663 382 q 662 380 654 376 q 646 372 636 368 q 625 365 616 362 q 607 358 604 358 q 602 358 596 358 q 591 357 590 357 l 585 353 q 585 353 573 353 q 562 353 546 352 q 530 352 513 352 q 496 351 484 351 q 482 351 476 354 q 469 356 466 357 q 464 357 456 358 q 448 358 446 358 q 442 360 436 363 q 429 366 425 366 l 424 366 l 399 339 l 395 337 q 375 335 362 326 q 361 326 360 326 q 360 325 359 325 q 359 325 357 324 q 355 324 354 324 q 348 320 344 314 q 339 308 331 306 l 284 254 q 283 250 282 249 q 281 248 281 244 q 281 238 282 233 q 282 228 286 223 q 288 221 290 217 q 293 213 294 213 l 296 213 l 344 266 l 344 271 l 359 271 q 363 276 368 276 q 374 277 379 278 l 384 281 l 412 281 l 412 279 q 412 275 412 265 q 412 255 412 244 q 411 232 411 222 q 411 212 411 208 q 406 203 406 197 q 406 191 403 186 q 398 173 391 160 q 384 146 380 133 l 380 131 l 380 130 l 388 121 l 391 121 l 438 174 q 439 177 444 188 q 449 199 451 203 q 453 206 456 216 q 460 225 462 227 l 462 194 q 460 189 458 184 q 457 180 454 177 q 455 160 446 146 q 436 131 426 120 q 425 106 416 100 q 408 94 399 86 q 398 86 396 85 q 395 84 394 84 q 394 83 391 82 q 388 82 387 82 q 384 81 382 78 q 379 75 376 73 q 374 73 371 72 q 368 72 366 71 q 364 70 361 67 q 358 64 356 63 q 355 63 352 62 q 349 62 348 62 q 347 62 346 62 q 345 61 345 61 q 344 60 342 59 q 341 58 341 58 q 335 55 328 54 q 322 52 317 47 l 245 47 q 242 50 238 51 q 235 52 233 55 q 231 57 228 60 q 224 64 222 65 l 221 65 q 220 65 218 64 q 217 62 216 62 q 208 60 203 67 q 195 66 188 70 q 180 73 174 78 q 168 84 162 91 q 157 98 152 104 q 150 106 142 116 q 134 126 132 130 q 132 130 132 130 q 132 131 131 131 q 131 132 130 134 q 128 136 127 137 q 126 141 124 148 q 123 156 120 161 l 120 190 q 120 195 123 202 q 126 208 128 212 l 128 234 l 133 243 l 133 262 q 138 266 138 270 q 138 274 142 278 l 142 293 q 145 295 146 300 q 147 304 152 306 q 152 307 156 309 q 160 311 161 311 l 164 311 q 169 311 176 312 q 183 312 188 317 l 203 317 l 250 373 l 241 383 l 222 383 q 219 388 215 388 q 211 389 208 393 q 192 392 183 406 q 181 408 178 412 q 176 415 176 415 l 176 468 q 176 473 181 476 l 181 503 q 181 503 182 508 q 184 513 186 516 q 188 520 190 524 q 193 527 194 530 l 194 542 q 196 548 200 554 q 203 559 204 567 q 206 569 210 573 q 213 577 214 578 q 215 578 217 580 q 219 581 220 581 q 224 583 228 582 q 232 582 234 587 l 262 587 q 264 582 270 581 q 277 580 281 581 q 284 576 290 575 q 291 574 298 568 q 304 561 305 559 q 308 557 308 554 l 308 507 l 318 496 l 366 550 l 366 601 q 366 603 364 605 q 364 606 363 608 q 362 611 362 611 q 360 613 356 618 q 353 622 352 624 l 352 628 q 352 629 348 632 q 345 636 344 638 q 339 642 334 645 q 330 648 326 653 l 302 653 l 286 671 l 278 674 l 228 674 q 226 673 224 670 q 221 667 220 665 l 217 664 q 216 664 211 664 q 206 663 204 663 q 196 660 188 654 q 181 648 176 643 q 173 640 166 632 q 160 625 152 617 q 145 609 138 602 q 132 594 129 591 q 125 586 118 578 q 112 570 110 563 q 110 563 108 558 q 107 554 107 552 q 105 546 102 542 q 98 538 95 532 q 91 524 88 515 q 86 506 83 496 q 80 489 80 482 q 79 476 79 468 l 75 463 l 75 423 q 71 417 71 413 l 71 371 q 71 370 72 368 q 74 367 74 366 q 74 365 75 364 q 76 362 76 362 q 81 355 88 349 q 94 343 99 339 q 100 339 101 338 q 102 337 103 337 l 82 311 l 76 309 l 29 257 q 29 257 29 255 q 29 254 28 253 q 28 253 26 250 q 24 247 24 246 q 22 236 22 229 q 22 223 15 215 l 15 182 q 10 179 10 174 l 10 92 q 13 89 18 79 q 22 69 23 65 q 23 64 24 60 q 24 56 24 55 q 26 47 30 42 q 34 37 34 28 q 35 26 39 22 q 43 17 44 15 q 44 14 45 14 q 46 14 46 14 q 47 13 49 11 q 51 9 51 7 l 52 2 q 53 0 56 -4 q 59 -7 60 -9 q 64 -13 66 -18 q 69 -23 74 -24 l 106 -58 q 106 -60 110 -60 q 114 -62 120 -64 q 125 -66 129 -68 q 130 -68 134 -72 q 138 -76 138 -76 q 140 -76 144 -77 q 149 -78 150 -79 q 155 -81 160 -84 q 164 -86 169 -87 q 171 -88 178 -88 q 186 -89 188 -89 z m 268 -20 l 269 -20 l 268 -21 l 267 -22 l 267 -21 q 267 -21 267 -20 q 267 -20 268 -20 z m 181 -9 l 182 -9 l 183 -9 l 182 -9 z m 180 -5 q 181 -5 181 -7 q 181 -9 180 -9 q 178 -9 178 -7 q 178 -5 180 -5 z m 174 -4 l 175 -4 l 176 -5 l 175 -5 z m 162 0 l 161 0 q 161 1 161 1 q 162 1 162 0 z m 135 489 q 135 487 134 487 q 133 487 134 488 q 135 490 135 489 z m 167 597 l 175 597 l 157 577 q 160 580 163 586 q 166 592 167 597 z"},"_":{"x_min":0,"x_max":786,"ha":786,"o":"m 24 -76 l 24 -77 l 34 -89 l 36 -89 q 38 -87 42 -84 q 45 -80 47 -79 q 48 -78 54 -78 q 60 -78 60 -77 q 61 -77 64 -75 q 67 -73 68 -72 q 73 -70 77 -69 q 81 -68 86 -66 q 88 -65 94 -60 q 101 -56 102 -55 q 103 -55 104 -54 q 106 -54 107 -54 q 108 -53 114 -52 q 119 -51 120 -50 q 121 -50 124 -48 q 126 -46 127 -45 q 129 -45 136 -44 q 142 -44 144 -44 q 146 -42 152 -36 q 157 -31 160 -31 l 285 -31 q 286 -29 288 -27 q 290 -25 293 -25 l 327 -25 l 336 -31 l 413 -31 q 421 -42 432 -44 q 443 -45 454 -45 q 456 -50 462 -50 l 514 -50 q 520 -44 526 -45 q 533 -46 541 -44 q 546 -42 552 -38 q 558 -33 564 -32 q 567 -32 578 -31 q 588 -30 591 -30 q 597 -21 608 -18 q 620 -16 629 -17 q 629 -16 631 -15 q 633 -14 633 -14 q 633 -13 634 -12 q 636 -12 636 -12 l 660 -12 l 667 -17 l 722 -17 l 778 52 l 768 66 l 713 66 l 708 72 l 697 72 q 693 72 685 72 q 677 72 672 70 q 672 70 670 68 q 669 67 668 67 q 667 67 662 66 q 656 66 654 65 q 653 65 645 62 q 637 59 634 57 l 630 53 q 628 53 619 52 q 610 52 608 52 q 607 52 604 51 q 601 50 600 50 q 596 48 592 44 q 589 41 584 40 q 582 40 576 40 q 569 39 567 38 q 562 38 557 33 l 507 33 q 502 39 494 40 q 486 40 480 40 q 471 45 465 53 l 381 53 l 373 59 l 337 59 q 336 59 332 57 q 328 55 327 53 l 204 53 q 199 53 192 48 q 186 42 181 40 q 180 40 175 40 q 170 39 169 38 q 169 38 166 36 q 164 34 164 33 q 157 31 152 30 q 147 29 141 25 l 134 32 l 115 32 l 93 7 q 89 5 86 2 q 84 0 80 -2 l 26 -69 q 25 -69 24 -71 q 24 -73 24 -74 z"},"v":{"x_min":0,"x_max":505,"ha":505,"o":"m 103 -39 l 123 -57 l 225 45 q 236 75 258 103 q 281 131 303 153 q 307 161 312 168 q 316 176 320 184 l 383 252 q 385 265 398 279 q 410 293 419 302 q 417 316 423 323 q 429 330 438 340 q 437 345 440 349 q 443 353 447 356 q 451 360 454 364 q 456 367 455 372 l 472 393 q 471 395 473 400 q 475 404 478 409 q 480 414 482 418 q 485 423 486 425 q 488 428 492 434 q 495 441 495 442 l 495 513 q 495 520 490 526 q 486 531 480 536 q 473 542 466 546 q 459 551 455 555 l 408 602 q 401 604 396 607 q 392 610 385 610 q 371 610 360 602 q 350 595 337 591 l 231 486 q 225 479 222 475 q 220 471 220 463 q 220 461 220 459 q 221 457 221 456 l 241 436 l 293 486 q 295 488 302 488 q 307 488 308 487 q 309 486 314 482 q 316 480 322 474 q 328 468 335 462 q 342 456 348 450 q 354 444 356 442 q 360 440 366 436 q 373 432 373 427 l 373 364 q 373 357 366 350 q 360 344 358 338 q 356 333 350 321 q 343 309 336 296 q 328 283 322 273 q 316 263 316 262 q 304 250 298 238 q 292 225 280 214 q 282 206 274 198 q 266 190 263 182 l 223 140 q 225 137 222 133 q 218 129 217 127 q 215 125 208 119 q 202 113 200 111 l 200 292 q 200 295 197 302 q 194 308 191 311 l 191 347 q 191 350 188 356 q 186 363 183 366 l 183 401 q 183 405 180 411 q 177 417 174 420 l 174 520 q 174 522 172 526 q 171 530 170 532 q 167 537 160 544 q 153 551 151 551 l 111 551 l 9 449 l 29 429 l 46 429 q 48 429 50 428 q 52 427 52 427 l 52 334 q 55 331 58 325 q 61 319 61 315 l 61 279 q 63 276 66 270 q 69 264 69 260 l 69 224 q 72 221 74 215 q 77 209 77 205 l 77 -20 l 96 -39 z"},"O":{"x_min":0,"x_max":651,"ha":651,"o":"m 108 -365 q 119 -372 124 -372 q 128 -373 139 -378 q 145 -380 148 -386 q 151 -391 158 -393 q 160 -394 167 -394 q 174 -395 175 -395 q 180 -397 184 -403 q 189 -409 195 -410 q 199 -411 206 -412 q 214 -414 222 -416 q 231 -418 238 -420 q 245 -423 248 -425 q 249 -426 250 -426 q 252 -427 252 -427 l 387 -427 q 391 -422 398 -418 q 405 -414 410 -412 q 412 -412 418 -412 q 424 -411 425 -410 q 433 -405 439 -397 q 445 -389 454 -386 q 462 -384 466 -384 q 469 -385 474 -380 l 572 -265 q 572 -259 576 -251 q 581 -243 586 -235 q 592 -227 598 -220 q 603 -212 605 -207 q 609 -200 610 -193 q 611 -186 614 -178 q 615 -177 616 -174 q 618 -172 618 -172 l 618 84 l 624 93 l 624 174 q 619 181 618 188 q 617 196 612 204 q 611 206 610 208 q 610 210 610 210 l 610 490 l 603 499 l 603 550 q 595 556 594 568 q 593 579 588 587 l 588 685 l 580 694 l 580 739 q 574 744 571 750 q 568 756 566 762 q 565 769 564 776 q 562 783 558 791 q 553 799 546 806 q 540 812 535 818 q 533 820 526 828 q 520 835 518 837 q 510 844 502 843 q 495 842 487 852 l 454 852 q 452 855 447 857 q 442 859 440 859 l 348 859 q 347 858 344 855 q 340 852 338 852 l 269 852 q 262 842 251 842 q 240 841 232 841 q 224 834 219 836 q 214 837 206 833 q 205 832 200 826 q 195 821 193 820 q 193 820 191 819 q 189 818 188 818 q 187 818 184 817 q 180 816 179 816 l 166 803 q 164 801 160 800 q 155 799 153 799 l 77 708 q 69 700 66 692 q 63 685 56 677 q 55 675 52 670 q 48 666 44 661 q 40 656 36 652 q 32 647 31 645 q 28 638 25 629 q 22 620 18 611 q 15 602 10 594 q 6 587 2 583 l 2 578 q 2 573 3 570 q 4 568 4 564 q 4 557 2 553 l 2 401 q 9 393 9 381 q 9 369 9 358 l 16 349 l 16 229 q 16 227 19 222 q 22 218 22 217 l 22 123 q 29 116 30 106 q 30 96 31 86 l 38 78 l 38 18 l 46 9 l 46 -23 l 52 -35 l 52 -110 l 59 -122 l 59 -288 l 75 -305 l 147 -224 l 147 -238 l 77 -322 l 77 -325 q 77 -329 80 -332 q 82 -335 84 -337 q 86 -341 96 -352 q 105 -362 108 -365 z m 310 -312 l 288 -312 l 281 -304 l 261 -304 q 253 -293 244 -292 q 234 -290 224 -286 q 223 -286 220 -283 q 218 -280 217 -280 q 215 -279 210 -276 q 204 -274 198 -272 q 193 -270 188 -268 q 184 -266 184 -266 l 184 -265 l 220 -200 q 220 -199 232 -186 q 245 -173 260 -158 q 274 -143 286 -130 q 299 -117 300 -116 l 281 -100 q 280 -99 272 -105 q 265 -111 256 -118 q 248 -126 240 -132 q 232 -138 231 -136 l 231 -97 l 223 -87 l 223 -10 q 223 -8 220 -4 q 217 1 216 3 l 216 61 q 216 63 214 69 q 212 75 209 78 l 209 181 q 209 183 206 189 q 204 195 202 198 l 202 258 q 200 260 198 263 q 197 266 195 268 q 195 281 194 288 q 194 295 187 303 l 187 332 l 180 341 l 180 399 q 180 399 178 404 q 177 409 175 411 q 172 422 172 436 q 173 451 165 459 l 165 689 q 170 687 176 686 q 182 686 181 694 q 186 695 190 693 q 194 691 193 686 q 202 678 200 671 q 203 671 204 668 q 204 665 204 661 q 204 657 204 654 q 203 650 204 647 l 204 644 q 198 645 200 640 q 201 634 197 632 q 199 626 193 628 q 191 624 194 622 q 198 621 197 617 l 200 617 q 199 611 206 613 q 212 615 216 613 q 220 615 220 618 q 220 622 224 624 q 228 629 227 636 q 226 644 235 647 q 237 660 235 675 q 233 690 227 702 q 221 713 210 719 q 198 725 181 721 q 183 715 177 717 q 173 713 169 712 q 165 710 162 705 q 154 707 148 701 q 143 695 136 692 l 108 660 l 108 669 q 108 681 110 688 q 113 694 117 698 q 121 703 126 707 q 132 711 139 716 q 140 717 144 722 q 148 726 149 726 q 155 729 164 730 q 174 732 184 734 q 193 735 201 737 q 209 739 212 744 l 277 744 q 278 744 282 746 q 285 748 288 750 q 292 750 292 752 l 379 752 q 382 752 385 749 q 388 746 390 744 l 425 744 q 428 737 434 736 q 441 734 446 735 q 448 728 452 724 q 456 720 460 716 q 464 713 468 710 q 472 706 474 700 q 475 699 475 693 q 475 687 475 685 q 476 683 476 679 q 477 675 477 675 q 479 673 484 668 q 488 662 490 660 l 490 619 l 497 608 l 497 515 q 502 505 502 493 q 503 481 511 476 l 511 424 q 511 422 514 418 q 517 413 519 411 l 519 140 q 519 139 520 134 q 522 130 524 127 q 526 120 526 114 q 527 107 532 102 l 532 27 l 526 18 l 526 -238 q 517 -244 517 -257 q 517 -271 510 -280 q 506 -285 501 -286 q 496 -288 491 -292 q 490 -293 484 -298 q 479 -302 477 -303 q 469 -308 459 -310 q 449 -312 441 -320 l 317 -320 z"},"(":{"x_min":0,"x_max":362,"ha":362,"o":"m 216 -235 q 149 -186 96 -120 q 44 -55 19 27 q -29 119 -45 225 q -61 331 -47 436 q -33 541 12 637 q 57 733 131 805 q 177 838 229 856 q 281 875 335 886 q 330 878 331 870 q 332 863 334 856 q 337 848 340 840 q 343 833 343 825 q 349 827 347 821 q 352 819 351 815 q 350 811 355 809 q 356 807 355 804 q 354 800 358 802 q 365 790 374 782 q 372 776 378 778 q 383 775 382 771 q 386 772 388 768 q 389 765 393 767 q 392 765 393 761 q 394 757 389 759 q 387 757 386 756 q 384 754 385 751 q 374 748 366 759 q 360 757 362 763 q 360 767 356 766 q 353 766 355 771 q 347 772 343 778 q 339 785 335 790 q 329 788 331 794 q 326 797 328 802 q 329 807 324 809 q 320 814 316 814 q 313 813 310 810 q 307 808 304 805 q 300 802 297 802 q 297 794 288 792 q 280 789 277 782 q 271 777 264 774 q 256 771 254 763 q 246 760 243 753 q 240 746 231 744 q 223 728 210 716 q 196 704 193 686 q 185 681 180 674 q 176 668 172 660 q 169 653 165 646 q 161 638 154 632 q 149 618 144 606 q 139 593 131 582 q 133 576 130 570 q 128 565 124 560 q 121 556 119 550 q 117 545 119 539 q 90 476 74 406 q 58 337 55 266 q 52 195 64 126 q 75 56 101 -8 q 127 -72 169 -127 q 211 -182 270 -224 q 282 -225 293 -231 q 304 -237 316 -239 q 324 -246 334 -243 q 343 -240 351 -247 q 378 -249 404 -246 q 431 -243 455 -235 q 454 -237 455 -241 q 456 -245 451 -243 q 432 -259 409 -264 q 386 -268 362 -267 q 338 -266 313 -264 q 288 -261 266 -262 q 250 -249 232 -240 q 214 -231 197 -220 z"},"C":{"x_min":0,"x_max":628,"ha":628,"o":"m 415 -408 q 417 -409 422 -412 q 427 -415 430 -415 l 567 -415 l 580 -408 l 647 -408 l 658 -399 l 696 -399 q 703 -391 713 -390 q 723 -390 732 -385 q 732 -385 734 -384 q 737 -384 738 -383 q 740 -383 746 -382 q 753 -382 755 -381 q 771 -377 786 -367 q 802 -357 816 -350 q 829 -343 838 -338 q 846 -334 858 -324 l 929 -266 q 934 -262 948 -245 q 962 -228 976 -210 q 989 -191 998 -177 q 1006 -163 1000 -166 q 985 -173 976 -182 q 966 -192 956 -202 q 946 -213 934 -225 q 921 -237 900 -250 q 895 -253 884 -257 q 873 -261 860 -264 q 848 -268 836 -272 q 825 -275 820 -276 q 816 -277 807 -279 q 798 -281 789 -283 q 780 -285 772 -288 q 764 -291 761 -294 l 723 -294 l 715 -302 l 649 -302 l 635 -310 l 500 -310 l 487 -302 l 438 -302 q 431 -294 413 -290 q 395 -286 386 -284 q 377 -283 366 -277 q 356 -271 346 -264 q 336 -258 327 -254 q 318 -250 312 -251 q 306 -244 301 -239 q 296 -234 289 -229 q 288 -229 284 -228 q 281 -226 280 -225 q 269 -217 262 -204 q 256 -192 240 -189 l 211 -158 q 209 -151 205 -145 q 201 -139 196 -134 q 192 -128 188 -122 q 185 -116 185 -107 q 183 -105 177 -96 q 171 -88 169 -86 q 164 -79 163 -74 q 162 -69 160 -61 q 160 -59 158 -54 q 157 -50 156 -48 q 154 -43 150 -40 q 147 -36 145 -31 q 143 -25 142 -18 q 141 -12 137 -6 q 137 -1 136 13 q 135 27 135 32 q 134 37 134 42 q 133 47 128 51 l 128 93 l 136 102 l 136 188 q 136 189 137 194 q 138 199 139 201 q 139 202 141 208 q 143 214 146 220 q 148 226 150 232 q 152 237 152 239 q 152 241 152 250 q 153 260 154 262 q 154 263 156 268 q 157 272 158 275 q 162 285 168 294 q 174 304 177 315 q 177 316 178 323 q 179 330 179 332 q 181 338 183 340 q 185 343 190 348 q 191 350 192 352 q 194 354 194 355 q 194 357 196 364 q 197 372 198 374 q 203 388 212 400 q 220 412 228 424 q 232 431 234 437 q 235 443 238 450 q 239 452 246 456 q 253 461 262 466 q 271 470 280 474 q 288 478 291 479 q 298 481 310 488 q 322 494 327 494 l 451 494 q 457 491 465 486 q 473 482 478 479 q 481 477 490 476 q 500 476 500 470 l 500 469 l 379 348 l 377 344 l 316 281 q 312 277 312 272 l 312 270 q 314 268 320 263 q 325 258 327 256 q 331 251 335 251 q 337 251 342 253 q 347 255 352 258 q 358 261 363 264 q 368 266 369 267 l 400 267 q 413 277 426 277 l 426 274 q 426 269 422 262 q 419 254 414 246 q 409 238 404 231 q 399 224 396 220 q 392 214 390 207 q 388 200 384 194 q 378 185 374 179 q 369 173 366 168 q 363 162 362 155 q 360 148 360 136 l 360 127 l 375 112 l 379 112 l 464 197 q 464 199 464 208 q 465 217 466 220 q 466 222 467 228 q 468 234 470 237 q 472 239 480 248 q 487 256 489 258 q 487 267 494 274 q 502 281 506 287 q 506 288 507 292 q 508 295 508 296 q 513 306 521 316 q 529 325 531 336 q 532 338 532 346 q 533 353 533 355 q 534 356 536 359 q 539 362 540 363 l 540 365 q 540 373 534 378 q 528 383 523 388 q 522 388 519 388 q 516 389 514 389 q 500 389 488 381 q 475 373 461 373 q 459 373 456 374 q 454 374 453 374 l 512 433 l 529 418 l 616 504 l 616 540 q 616 541 610 546 q 604 552 601 555 q 600 555 598 556 q 597 557 597 557 q 595 558 592 560 q 589 562 588 563 q 586 565 580 571 q 573 577 571 578 q 570 579 562 582 q 554 584 552 585 q 545 588 537 594 q 529 599 521 599 l 396 599 q 388 599 378 593 q 368 587 360 585 q 358 583 352 582 q 346 582 344 580 q 327 569 310 559 q 293 549 276 536 q 275 536 274 535 q 273 534 272 534 l 187 450 q 186 446 184 442 q 181 439 179 437 q 177 435 172 429 q 166 423 160 417 q 154 411 148 405 q 143 399 141 397 q 133 379 123 362 q 113 346 103 329 q 98 319 96 308 q 93 298 88 287 q 88 286 84 281 q 79 276 78 275 q 74 268 74 262 q 74 257 72 249 q 68 234 60 221 q 51 208 48 192 q 48 190 48 180 q 47 171 46 169 q 46 167 44 162 q 42 156 40 150 q 38 144 36 138 q 34 132 34 131 l 30 119 l 30 36 l 23 28 l 23 -27 q 23 -27 24 -30 q 26 -32 27 -33 q 30 -36 30 -38 l 30 -80 q 38 -87 36 -94 q 35 -100 40 -109 q 41 -111 46 -116 q 51 -122 53 -124 q 53 -128 55 -130 q 55 -133 56 -142 q 57 -151 57 -154 l 80 -181 q 80 -190 84 -198 q 89 -206 94 -214 q 99 -221 104 -228 q 108 -234 107 -240 l 131 -263 q 131 -266 141 -276 q 151 -285 162 -295 q 174 -305 184 -313 q 194 -321 196 -322 q 197 -323 200 -326 q 204 -329 206 -331 q 209 -333 218 -342 q 227 -350 230 -352 q 238 -355 246 -357 q 254 -359 261 -364 q 263 -366 270 -372 q 278 -378 280 -379 q 286 -383 292 -383 q 298 -383 303 -388 q 317 -389 334 -393 q 351 -397 363 -404 q 364 -405 366 -406 q 369 -408 369 -408 z"},"W":{"x_min":0,"x_max":793,"ha":793,"o":"m 124 -48 q 144 -75 172 -93 q 180 -98 190 -99 q 199 -100 207 -108 l 328 -108 q 331 -103 336 -102 q 342 -101 347 -101 l 419 -17 l 419 -45 q 428 -58 440 -76 q 451 -93 468 -95 q 472 -95 485 -96 q 498 -96 501 -96 l 506 -101 l 569 -101 q 571 -99 575 -95 q 579 -91 583 -90 q 586 -88 589 -88 q 593 -88 596 -86 q 601 -82 602 -80 q 602 -78 609 -78 l 688 19 q 688 20 688 21 q 689 22 689 22 q 689 23 690 25 q 692 27 692 27 q 692 28 692 32 q 693 35 694 36 q 695 37 699 42 q 703 48 703 49 q 708 56 708 64 q 709 72 716 79 l 716 271 l 721 276 l 721 327 q 721 329 724 332 q 727 336 727 337 q 727 344 727 354 q 727 365 732 371 l 732 493 l 739 502 l 739 572 q 739 578 742 586 q 746 595 750 599 l 750 665 q 750 667 752 670 q 754 674 756 675 l 756 735 l 758 738 q 759 740 760 742 q 761 743 761 743 l 761 793 q 761 795 760 798 q 758 801 757 803 l 757 855 l 761 864 l 761 896 q 761 898 763 902 q 765 905 765 906 q 766 934 776 944 q 785 953 805 962 q 808 962 808 964 q 816 969 822 975 q 829 981 837 984 q 848 988 858 988 q 868 989 878 997 q 892 998 904 1003 q 917 1008 931 1010 q 947 1012 964 1016 q 980 1019 996 1019 l 1007 1019 q 1011 1016 1012 1009 q 1013 1002 1015 999 q 1015 998 1017 996 q 1019 993 1019 992 q 1019 991 1017 988 q 1015 986 1015 985 q 1014 984 1013 976 q 1012 969 1011 967 q 1011 964 1010 956 q 1008 949 1006 941 q 1005 933 1004 927 q 1003 921 1002 921 l 963 921 l 984 947 l 972 960 l 971 960 l 969 960 l 964 960 l 894 874 q 889 868 889 855 l 889 853 q 891 851 894 847 q 897 843 899 841 q 899 841 901 840 q 903 840 904 840 q 905 839 908 838 q 910 836 911 835 l 969 835 l 1000 870 q 1003 872 1005 874 q 1007 875 1010 877 l 1066 945 q 1066 957 1070 968 q 1075 978 1077 989 q 1077 991 1078 1000 q 1079 1009 1080 1011 q 1080 1013 1082 1020 q 1084 1028 1084 1029 l 1084 1035 l 1084 1042 l 1080 1048 q 1080 1049 1082 1052 q 1084 1054 1084 1055 l 1084 1058 q 1084 1062 1082 1066 q 1080 1070 1080 1074 l 1081 1075 l 1093 1090 l 1081 1103 q 1080 1103 1072 1104 q 1065 1104 1062 1104 q 1033 1104 1006 1099 q 978 1094 951 1086 q 943 1084 934 1084 q 926 1084 918 1080 q 915 1078 910 1076 q 904 1073 902 1073 q 900 1072 892 1071 q 884 1070 882 1070 q 875 1067 868 1060 q 861 1053 853 1048 q 849 1045 846 1044 q 842 1044 837 1042 q 832 1040 828 1035 q 823 1030 819 1028 q 814 1024 806 1024 q 798 1024 793 1023 q 791 1022 782 1015 q 774 1008 769 1005 l 751 985 q 750 985 749 984 q 748 984 747 984 q 745 981 738 974 q 731 968 730 967 l 652 872 q 650 861 644 854 q 637 846 634 836 q 634 835 634 829 q 633 823 633 822 q 632 822 630 819 q 629 816 629 816 q 620 800 621 780 l 616 773 l 616 735 q 616 735 616 733 q 615 731 614 730 q 614 729 613 727 q 612 725 611 725 q 611 724 610 719 q 610 714 610 713 q 609 712 608 708 q 607 705 606 704 l 606 667 q 606 665 604 661 q 601 657 599 656 l 599 549 q 599 547 597 544 q 595 541 594 540 l 594 468 l 589 459 l 589 230 q 589 230 590 227 q 591 224 592 222 q 592 219 593 218 q 592 208 592 196 q 593 184 598 175 l 598 63 l 594 56 l 594 36 q 589 32 589 27 q 589 22 587 15 q 585 3 574 0 q 562 -2 554 -9 l 515 -9 q 510 -9 506 -5 q 501 -1 499 4 q 497 6 493 12 q 489 17 489 17 l 489 49 l 530 99 l 518 112 l 516 112 q 512 112 507 110 q 502 107 500 106 l 428 22 l 423 22 l 400 -5 l 400 -3 l 430 36 q 435 44 440 54 q 444 63 450 71 q 451 72 455 78 q 459 83 460 85 q 461 87 462 94 q 463 102 463 104 q 464 105 464 108 q 465 110 465 111 q 466 114 468 120 q 469 125 472 132 q 474 139 476 144 q 477 150 478 153 l 484 159 l 484 193 q 484 193 484 194 q 485 196 485 197 q 486 198 490 202 q 494 206 494 207 q 495 208 496 214 q 496 220 496 222 q 496 222 496 223 q 497 224 498 225 q 498 226 499 228 q 500 229 500 230 q 502 241 504 250 q 507 260 506 271 q 507 271 509 274 q 511 278 512 282 q 514 287 515 291 q 516 295 516 296 q 516 305 514 310 q 513 316 505 322 l 503 322 q 498 322 492 316 q 487 310 483 307 q 478 303 473 300 q 468 298 463 295 q 461 293 458 290 q 454 286 452 285 l 450 285 l 450 288 l 465 308 q 467 322 473 332 q 479 343 485 354 q 486 359 486 364 q 487 369 489 372 q 490 374 494 379 q 499 384 500 386 q 501 387 501 393 q 501 399 501 400 q 502 408 506 419 q 508 424 512 428 q 516 432 516 437 q 516 438 516 438 q 515 439 515 439 l 505 450 q 505 450 504 450 q 504 451 503 451 q 495 451 489 444 q 483 437 479 437 l 478 437 q 477 437 476 438 q 474 440 474 440 l 472 440 q 465 440 462 434 q 458 429 452 427 l 483 467 l 485 476 q 487 478 493 486 q 499 493 501 495 q 501 495 502 498 q 503 501 505 503 q 505 504 506 505 q 506 506 506 507 q 507 508 512 514 q 516 520 516 521 q 517 523 517 529 q 517 535 518 536 q 518 537 520 540 q 521 542 522 543 q 522 544 522 545 q 523 546 523 547 l 539 569 q 540 578 542 585 q 545 592 545 600 l 545 606 l 533 619 l 518 603 q 518 604 518 608 q 517 612 516 614 q 515 616 512 620 q 508 624 506 624 l 503 624 l 478 559 q 453 502 436 468 q 420 435 404 412 q 388 390 369 371 q 350 352 320 324 l 313 308 l 321 296 q 322 296 324 296 q 325 295 326 295 l 328 295 q 332 295 337 300 q 342 305 347 307 q 348 307 352 308 q 356 308 357 308 q 366 314 374 324 q 382 335 393 335 l 396 335 q 388 323 385 306 q 382 289 378 275 q 376 270 372 266 q 369 262 367 258 q 365 254 364 246 q 363 239 362 235 q 360 233 354 225 q 348 217 347 215 q 342 208 338 201 q 333 194 331 186 l 311 159 l 311 146 l 321 133 l 332 143 q 336 137 339 137 q 341 137 341 138 q 346 143 348 145 q 349 147 354 149 q 355 149 358 150 q 362 151 362 151 q 367 154 366 156 q 366 157 374 158 l 390 176 l 394 178 l 394 176 q 394 168 390 160 q 386 152 385 144 q 385 141 384 130 q 383 120 383 117 q 383 116 381 112 q 379 107 379 106 l 379 61 q 376 58 374 52 q 371 47 369 43 q 368 41 366 31 q 363 21 362 19 q 360 13 356 8 q 353 3 353 -3 l 353 -5 l 361 -14 l 361 -15 q 359 -17 358 -20 q 356 -22 356 -22 l 311 -22 q 307 -15 302 -16 q 296 -18 290 -15 q 289 -15 285 -10 q 281 -5 279 -5 q 278 -4 276 -4 q 273 -3 273 -3 q 272 -3 270 -1 q 256 10 250 20 q 243 31 238 48 q 237 48 236 50 q 234 52 234 53 q 232 61 233 67 q 234 73 229 79 l 226 102 l 223 107 l 223 371 l 227 377 q 227 385 228 396 q 228 406 234 411 l 234 502 q 234 504 238 516 q 242 529 244 530 l 244 619 q 244 621 246 625 q 249 629 251 631 l 251 728 l 256 735 l 256 795 q 256 795 255 796 q 254 798 254 800 q 254 800 253 803 q 252 806 251 806 q 251 808 250 817 q 250 826 250 828 q 249 833 246 837 q 243 841 241 845 q 240 847 236 852 q 231 858 231 858 l 152 858 l 141 844 l 104 844 q 104 844 102 843 q 100 842 99 841 q 99 841 98 840 q 96 838 95 838 q 93 838 88 836 q 83 835 81 835 q 75 832 69 826 q 63 821 57 819 q 56 819 53 818 q 50 816 49 816 q 44 811 41 806 q 38 802 31 800 l -41 715 l -41 689 l -30 677 l 27 743 q 27 743 28 744 q 29 745 30 745 q 31 745 34 748 q 36 750 37 750 q 42 752 48 752 q 55 751 59 757 l 106 757 q 108 757 109 753 q 110 749 110 748 l 110 623 q 110 622 108 618 q 106 615 106 614 l 106 551 l 100 543 l 100 513 q 98 510 96 505 q 94 500 94 498 l 94 402 l 89 394 l 89 227 q 89 226 87 223 q 85 220 85 218 l 85 170 l 89 156 l 89 78 l 94 71 l 94 31 q 101 24 103 14 q 105 3 109 -5 q 109 -6 110 -8 q 110 -10 110 -10 q 111 -12 112 -18 q 112 -23 112 -24 q 115 -30 120 -35 q 125 -40 124 -48 z"},"A":{"x_min":0,"x_max":847,"ha":847,"o":"m 892 -446 q 901 -451 910 -452 q 920 -452 931 -456 q 932 -457 934 -458 q 935 -458 935 -458 l 1057 -458 q 1065 -452 1075 -452 q 1085 -453 1090 -445 l 1112 -445 q 1117 -439 1118 -439 q 1119 -439 1126 -437 q 1131 -435 1134 -430 q 1138 -426 1144 -424 q 1145 -423 1151 -423 q 1157 -423 1159 -423 l 1234 -350 l 1234 -343 l 1280 -297 q 1281 -295 1284 -290 q 1288 -284 1291 -278 q 1294 -272 1296 -266 q 1299 -261 1299 -259 l 1299 -253 l 1286 -240 l 1210 -240 q 1202 -243 1198 -244 q 1193 -245 1185 -245 q 1178 -245 1172 -242 q 1166 -240 1158 -240 l 1156 -240 l 1082 -312 l 1082 -316 q 1082 -318 1087 -322 q 1092 -326 1096 -328 q 1104 -333 1110 -334 q 1115 -336 1123 -336 q 1131 -336 1136 -335 q 1141 -334 1149 -330 l 1195 -330 q 1193 -332 1188 -338 q 1182 -345 1180 -347 q 1172 -352 1164 -353 q 1157 -354 1147 -356 q 1143 -357 1132 -362 q 1120 -366 1116 -368 l 998 -368 q 993 -364 987 -364 q 981 -363 976 -362 q 970 -362 964 -361 q 959 -360 955 -355 l 924 -355 q 917 -348 906 -347 q 895 -346 887 -347 q 880 -345 873 -342 q 866 -338 861 -333 l 841 -333 l 823 -317 l 815 -317 q 814 -316 810 -312 q 805 -307 798 -300 q 791 -292 787 -288 q 784 -285 780 -280 q 775 -274 770 -268 q 766 -261 762 -255 q 759 -249 758 -245 q 758 -244 758 -241 q 757 -238 757 -237 q 755 -231 750 -226 q 746 -221 743 -216 q 738 -207 734 -200 q 729 -192 723 -184 q 718 -177 716 -168 q 714 -159 707 -154 l 707 -130 q 700 -125 698 -116 q 697 -106 696 -100 l 693 -95 q 693 -86 692 -77 q 692 -68 685 -61 l 685 50 q 685 53 688 56 q 690 59 692 61 l 692 81 q 694 80 702 80 q 710 81 712 82 q 713 82 716 84 q 719 87 720 87 q 722 89 725 89 l 798 162 q 801 166 804 171 q 808 176 808 182 q 808 183 806 186 q 805 188 805 188 l 805 189 l 805 190 q 811 195 817 202 q 823 209 823 219 l 823 221 q 823 223 822 224 q 822 225 822 225 l 796 249 l 793 249 l 720 178 l 720 172 q 713 172 706 171 q 699 170 693 166 l 693 204 q 693 207 696 210 q 698 213 700 215 l 700 247 l 706 256 l 706 358 q 706 364 700 372 q 695 381 693 386 q 690 395 688 406 q 687 417 682 425 q 680 426 676 431 q 671 436 670 437 q 669 438 669 445 q 669 452 668 453 q 668 454 662 460 q 656 466 655 467 q 650 475 646 482 q 641 490 636 498 q 625 512 612 528 q 600 543 585 553 q 581 556 576 557 q 572 558 567 561 q 566 562 560 567 q 555 572 553 573 q 551 575 544 576 q 538 576 536 576 l 515 597 l 505 597 q 503 599 498 604 q 492 610 490 612 l 486 613 q 485 614 484 616 q 482 617 481 617 q 477 617 466 618 q 456 619 454 619 q 452 620 446 622 q 439 624 438 625 q 422 627 412 626 q 402 624 389 632 l 318 632 l 308 640 l 227 640 q 227 645 230 652 q 233 659 235 664 q 237 668 242 672 q 246 677 246 682 l 246 684 l 233 696 l 230 696 l 152 621 q 147 610 140 600 q 134 589 134 576 l 134 571 q 134 571 137 568 q 140 565 142 563 q 144 559 148 554 q 153 548 153 548 l 245 548 q 245 548 248 547 q 251 546 252 545 q 254 544 256 543 q 257 542 258 542 l 327 542 q 335 537 344 536 q 353 534 362 534 q 371 533 380 532 q 388 531 397 527 l 280 412 q 277 409 274 406 q 272 404 274 399 l 171 296 l 197 270 l 198 270 q 202 270 206 273 q 211 276 215 274 l 233 289 q 239 287 245 293 q 251 299 258 299 q 258 299 260 298 q 261 297 262 297 l 263 297 q 267 297 272 301 q 278 305 283 305 q 283 305 284 305 q 285 305 285 304 q 286 303 288 301 q 289 299 289 299 q 289 299 288 297 q 286 295 285 294 q 283 292 279 288 q 275 283 274 281 q 275 274 272 268 q 270 263 266 258 q 263 252 260 246 q 258 241 260 235 l 246 217 l 246 214 l 231 196 q 233 191 230 190 q 228 189 228 185 l 228 184 l 230 182 q 230 181 229 180 q 228 180 228 180 q 220 176 214 170 q 208 164 200 162 l 173 137 l 161 149 l 180 168 l 180 178 q 180 178 175 183 q 170 188 166 190 q 161 195 156 198 q 152 200 146 200 q 145 200 144 200 q 143 199 143 199 l 68 127 q 67 124 64 120 q 61 117 59 115 l 59 89 q 59 87 64 82 q 68 77 74 72 q 80 68 86 64 q 93 61 97 61 l 98 61 l 123 82 q 122 81 120 76 q 119 72 118 70 l 118 68 l 118 66 l 134 52 l 172 87 q 172 87 174 88 q 175 89 176 89 q 176 90 178 92 q 181 93 181 93 q 189 97 197 96 q 205 95 210 102 l 252 102 q 251 99 247 94 q 243 90 238 85 q 234 80 231 75 q 228 70 230 66 l 215 50 q 216 47 215 44 q 214 42 212 40 q 210 39 208 36 q 207 34 209 31 q 198 21 192 10 q 185 0 176 -9 q 178 -15 174 -18 q 170 -22 168 -24 q 168 -24 168 -26 q 169 -29 168 -30 q 163 -38 155 -48 q 147 -59 142 -65 l 142 -72 q 137 -77 134 -80 q 132 -83 131 -86 q 130 -89 129 -92 q 128 -96 125 -100 q 123 -102 117 -109 q 111 -116 109 -118 l 109 -120 l 143 -151 l 159 -136 l 160 -136 l 161 -136 q 161 -136 162 -138 q 162 -140 162 -142 l 162 -143 q 161 -144 158 -148 q 155 -151 152 -154 q 149 -158 146 -162 q 144 -165 143 -166 q 141 -169 137 -180 q 133 -191 134 -195 q 126 -203 120 -208 q 115 -214 113 -224 q 111 -230 104 -240 q 98 -249 99 -255 l 91 -266 l 91 -270 q 82 -281 76 -293 q 70 -305 62 -318 q 60 -322 52 -335 q 43 -348 34 -362 q 25 -376 18 -388 q 11 -399 11 -400 l 11 -401 l 36 -425 l 164 -299 q 166 -294 176 -280 q 186 -266 196 -250 q 207 -235 215 -222 q 223 -208 222 -204 q 224 -202 227 -198 q 230 -193 231 -191 q 234 -187 238 -182 q 243 -178 241 -174 l 250 -161 q 249 -159 251 -156 q 253 -152 256 -148 q 258 -145 260 -142 q 263 -139 264 -138 l 264 -132 q 264 -128 267 -125 q 271 -120 277 -114 q 283 -109 285 -102 q 287 -98 286 -94 q 286 -91 287 -88 q 288 -83 290 -84 q 291 -84 289 -81 q 297 -73 302 -64 q 308 -56 316 -48 l 316 -42 q 324 -33 330 -24 q 337 -15 346 -3 l 346 -1 l 322 21 l 321 21 l 320 21 l 318 20 l 314 21 l 313 21 l 312 21 q 311 21 310 20 q 309 20 308 20 q 308 20 306 20 q 305 21 304 21 l 303 21 q 298 21 293 19 q 288 17 283 15 q 285 16 288 20 q 291 23 293 24 q 295 28 300 32 q 304 37 302 40 l 322 66 l 322 67 l 322 68 q 322 72 320 72 l 329 82 q 327 86 332 93 q 337 100 340 102 l 348 102 q 359 102 368 96 q 376 91 385 89 q 390 88 402 88 q 414 87 419 87 l 429 81 l 564 81 l 573 74 l 599 74 l 599 5 q 597 3 597 1 q 595 -1 594 -4 q 593 -8 593 -9 l 593 -127 l 600 -134 l 600 -161 q 607 -168 606 -177 q 606 -186 614 -191 l 614 -221 q 618 -223 622 -230 q 627 -237 628 -242 q 629 -244 630 -250 q 630 -255 630 -256 q 635 -264 642 -266 q 649 -269 651 -278 q 651 -279 652 -282 q 652 -286 653 -286 q 655 -290 661 -300 q 667 -311 669 -316 q 674 -325 682 -334 q 689 -344 694 -354 q 695 -355 696 -357 q 698 -359 699 -359 l 738 -397 q 749 -402 760 -412 q 770 -421 780 -423 q 782 -423 788 -423 q 795 -423 796 -424 q 804 -426 810 -430 q 817 -435 825 -437 q 827 -437 836 -438 q 846 -438 848 -438 q 849 -438 852 -440 q 855 -442 856 -442 q 864 -446 874 -446 q 884 -446 892 -446 z m 484 179 l 446 179 q 441 182 435 184 q 429 187 424 192 l 402 192 l 411 204 l 411 210 q 414 213 424 224 q 435 235 438 238 q 439 240 440 242 q 442 245 442 246 q 443 246 442 248 q 442 250 442 251 q 443 252 444 254 q 446 255 446 256 q 447 258 452 262 q 456 267 457 269 l 457 270 l 434 295 l 433 295 l 432 295 q 431 295 430 294 q 429 294 429 294 q 428 294 426 294 q 425 295 424 295 l 423 295 q 418 295 412 292 q 406 289 402 286 q 401 286 400 286 q 399 287 399 287 l 398 287 q 393 287 390 286 q 386 284 383 284 l 383 289 l 397 307 l 397 311 l 411 331 q 409 340 415 348 q 421 355 426 362 l 427 363 l 426 364 l 424 366 l 426 370 q 429 373 426 376 l 440 394 l 440 395 l 440 396 l 439 399 q 439 400 440 403 q 441 406 442 406 l 472 436 l 446 461 l 445 461 q 444 461 442 460 q 441 459 440 459 l 438 461 l 437 461 l 436 461 l 432 459 q 431 459 430 460 q 429 461 429 461 l 428 461 l 426 461 q 426 461 424 460 q 423 459 422 459 l 419 461 l 418 461 l 417 461 q 416 461 414 460 q 413 459 413 459 q 412 459 411 460 q 410 461 409 461 l 408 461 l 407 461 q 407 461 406 460 q 405 459 404 459 q 404 458 403 458 q 402 458 402 458 l 402 461 l 411 472 l 411 477 l 442 507 l 465 487 q 469 484 478 484 q 486 483 492 478 q 497 473 500 470 q 503 468 511 469 q 525 456 538 440 q 551 425 559 408 q 560 406 562 402 q 563 398 564 398 q 565 396 570 390 q 576 385 576 383 q 577 382 578 377 q 578 372 578 370 q 579 368 584 363 q 590 358 591 356 q 592 355 593 352 q 594 348 594 347 q 595 346 597 344 q 599 343 600 342 l 600 322 q 607 317 608 310 q 608 304 612 299 l 612 199 l 607 191 l 607 172 l 492 172 z"},"f":{"x_min":0,"x_max":474,"ha":474,"o":"m 75 -661 l 75 -663 l 92 -680 l 182 -590 l 195 -590 q 197 -588 204 -581 q 212 -574 214 -572 q 219 -569 229 -560 q 239 -552 244 -552 l 324 -552 q 324 -552 326 -551 q 329 -550 330 -549 q 335 -547 343 -542 q 351 -537 351 -537 l 450 -437 q 454 -431 462 -424 q 470 -418 470 -410 q 470 -408 469 -408 l 453 -391 l 394 -447 l 313 -447 q 302 -447 296 -455 q 290 -463 282 -467 q 281 -467 276 -469 q 272 -471 271 -471 q 269 -473 264 -478 q 258 -482 256 -484 l 250 -484 q 254 -481 254 -477 q 255 -473 255 -468 q 255 -464 256 -460 q 257 -456 262 -454 l 262 -304 q 262 -302 264 -297 q 265 -292 268 -290 l 268 -146 l 274 -140 l 274 -87 l 281 -81 l 281 73 l 339 73 q 341 69 345 69 q 350 69 355 69 l 362 69 l 446 154 q 444 167 449 179 q 454 191 463 200 l 463 204 l 446 221 l 404 181 l 283 181 q 283 192 281 204 q 279 217 286 227 l 286 390 q 285 392 284 398 q 282 403 282 405 q 281 410 280 426 q 279 442 279 447 q 279 451 277 453 q 277 454 276 456 q 275 457 275 458 q 275 460 274 470 q 273 480 273 483 q 272 484 269 494 q 266 504 262 516 q 259 529 256 540 q 254 551 254 554 l 254 555 q 258 555 258 559 l 270 559 q 289 559 301 547 q 313 535 326 522 l 332 522 l 358 497 l 364 497 l 400 462 q 404 458 410 458 q 416 459 419 453 q 412 448 407 435 q 402 422 396 413 q 394 411 390 404 q 385 398 383 396 l 383 392 l 398 377 l 402 377 l 491 466 q 499 474 508 490 q 518 506 516 517 l 535 538 l 535 542 q 535 544 530 550 q 524 555 520 557 q 518 558 509 558 q 501 558 499 559 q 498 559 496 561 q 493 563 493 563 q 491 564 488 564 q 484 565 482 565 q 479 568 470 577 q 460 586 457 588 q 454 590 448 595 q 442 600 436 605 q 429 610 424 614 q 418 618 417 618 l 377 654 q 371 656 366 658 q 360 661 355 664 l 320 664 q 309 664 298 654 q 286 645 279 639 q 274 634 262 622 q 251 610 238 596 q 224 583 212 571 q 200 559 195 555 q 194 549 191 545 q 188 541 184 537 q 180 533 176 530 q 173 526 172 521 l 144 491 l 144 490 q 144 486 146 483 q 148 480 149 477 q 151 466 152 456 q 154 447 157 436 q 157 436 159 434 q 161 431 161 430 q 164 417 166 406 q 167 396 170 384 q 170 382 172 380 q 173 378 174 377 q 174 372 174 356 q 175 340 176 335 q 176 333 178 328 q 179 322 180 320 l 180 189 q 180 186 174 183 q 169 180 162 178 q 155 176 148 175 q 142 174 140 173 q 132 170 126 166 q 119 162 111 160 q 109 159 106 158 q 104 158 104 158 l 3 57 l 3 52 l 18 38 l 28 38 q 35 44 41 50 q 47 55 56 59 q 57 59 60 60 q 63 60 64 61 q 65 61 68 64 q 72 67 73 67 q 84 72 93 73 q 102 74 113 82 q 115 83 117 84 q 119 86 119 86 l 153 86 q 153 86 158 84 q 163 82 166 80 q 168 78 171 76 q 174 74 174 73 l 174 -142 l 169 -148 l 169 -205 q 167 -207 164 -210 q 162 -214 162 -216 l 162 -357 q 159 -359 158 -366 q 156 -372 156 -374 l 156 -520 q 153 -522 151 -529 q 149 -536 147 -544 q 145 -552 144 -560 q 142 -567 142 -570 q 140 -572 136 -576 q 132 -581 128 -586 q 123 -591 118 -596 q 114 -600 113 -602 q 105 -610 104 -617 l 81 -642 q 79 -647 77 -652 q 75 -656 75 -661 z"},"Q":{"x_min":0,"x_max":794,"ha":794,"o":"m 327 -162 l 341 -175 q 341 -176 345 -176 q 349 -177 351 -177 l 377 -177 l 394 -177 l 409 -164 q 410 -163 414 -162 q 418 -162 420 -162 q 424 -162 438 -161 q 453 -160 458 -160 l 492 -130 q 492 -130 493 -130 q 494 -129 495 -128 q 497 -128 502 -128 q 506 -127 508 -127 l 525 -111 l 542 -111 l 569 -88 q 570 -89 572 -90 q 574 -92 575 -93 q 576 -93 577 -94 q 578 -95 579 -95 l 592 -108 l 602 -110 l 707 -184 q 708 -184 712 -180 q 717 -176 719 -174 q 727 -166 739 -154 q 751 -142 762 -131 q 773 -120 781 -112 q 789 -103 789 -103 l 789 -100 l 776 -87 l 759 -100 l 663 -26 q 661 -21 656 -16 q 651 -11 646 -9 l 646 4 l 678 41 q 678 41 678 45 q 679 49 679 51 q 680 53 680 61 q 681 69 681 71 l 696 90 q 693 101 700 110 q 706 119 714 125 l 714 175 l 745 207 l 747 217 l 747 393 q 758 403 760 411 q 763 419 763 433 l 763 445 q 759 453 753 458 q 747 462 747 472 l 747 545 l 716 579 q 716 579 716 584 q 715 588 715 591 q 714 593 714 602 q 713 610 713 612 q 708 618 704 621 q 700 624 696 629 q 694 631 688 638 q 683 646 681 648 q 682 650 681 656 q 680 661 679 663 q 679 663 674 668 q 670 672 668 674 q 666 676 664 676 q 663 676 663 680 l 632 713 q 630 726 624 732 q 618 737 611 740 q 604 744 600 748 q 595 752 596 763 l 567 794 l 537 794 l 518 810 q 516 810 510 810 q 504 811 502 812 q 500 813 495 818 q 490 823 488 824 q 485 827 483 827 q 473 829 467 830 q 461 831 451 835 q 450 836 444 838 q 439 841 433 844 q 427 848 422 850 q 416 853 415 854 q 410 856 408 856 q 405 857 401 861 l 332 861 q 325 866 318 868 q 311 871 304 876 q 300 876 286 876 q 273 877 269 877 l 184 877 l 99 877 q 82 875 66 871 q 50 867 34 861 l -35 861 q -54 849 -73 838 q -92 827 -110 814 q -115 810 -124 805 q -132 800 -137 795 l -204 728 l -204 725 l -192 713 l -191 713 q -186 713 -180 718 q -173 724 -169 726 q -154 737 -139 746 q -124 756 -108 765 q -106 767 -98 772 q -90 776 -88 778 l -21 778 q -7 783 11 788 q 29 794 44 794 l 213 794 l 247 792 q 252 790 258 788 q 264 786 267 782 q 264 777 257 777 q 250 777 247 777 l 148 676 q 147 673 146 668 q 145 662 143 659 l 111 626 q 113 611 102 600 q 90 588 81 579 q 77 571 76 560 q 76 550 76 542 l 46 510 l 42 473 l 27 456 l 27 224 l 43 205 l 43 140 q 43 139 48 134 q 53 130 56 128 q 61 124 65 116 q 69 109 77 108 l 77 69 q 77 69 82 64 q 87 60 89 58 q 91 56 94 56 l 94 19 l 106 7 q 109 5 118 -2 q 127 -8 128 -13 l 158 -46 q 159 -49 160 -53 q 160 -57 161 -60 q 175 -72 188 -86 q 200 -100 212 -113 q 214 -115 218 -120 q 223 -125 223 -125 q 225 -126 230 -126 q 236 -126 237 -127 q 238 -127 240 -128 q 243 -128 244 -128 q 245 -130 250 -135 q 255 -140 257 -142 q 260 -145 266 -151 q 271 -157 274 -159 q 274 -159 280 -160 q 286 -160 289 -160 q 294 -161 308 -162 q 323 -162 327 -162 z m 344 -77 q 344 -71 338 -68 q 332 -64 327 -60 q 325 -58 320 -52 q 314 -46 312 -44 l 294 -44 l 326 -9 l 326 -6 l 314 6 q 309 10 304 14 q 298 19 296 24 q 295 26 294 34 q 293 41 292 43 q 290 49 287 52 q 284 56 279 61 l 279 93 l 295 110 l 295 145 l 328 178 l 328 210 l 344 229 l 344 236 q 344 247 344 258 q 343 268 331 274 l 329 274 l 327 274 q 325 274 320 274 q 314 273 312 272 q 307 264 298 259 q 289 254 279 255 q 271 247 262 240 q 254 233 245 227 l 245 230 l 260 247 q 260 250 260 258 q 261 265 261 274 q 261 283 262 290 q 262 298 262 301 q 262 303 262 306 q 263 310 264 311 l 278 326 l 278 376 l 311 413 l 311 430 l 328 447 l 328 460 l 361 495 l 347 509 l 342 509 q 340 509 335 509 q 331 509 329 507 q 327 505 322 500 q 316 495 314 493 l 279 490 l 264 477 q 262 475 254 475 q 247 475 245 475 l 245 502 q 245 504 246 508 q 247 512 247 512 l 261 527 l 261 564 l 277 581 q 278 591 281 600 q 284 609 289 618 q 291 621 292 623 q 294 625 294 629 l 294 631 l 282 643 l 279 643 l 212 576 q 199 546 180 525 q 178 514 178 499 q 177 484 176 475 q 169 468 165 462 q 161 456 161 447 l 161 343 l 175 329 l 228 381 q 228 381 228 380 q 229 380 229 379 q 229 372 223 367 q 217 362 213 358 l 213 344 l 194 324 l 194 274 q 186 266 182 261 q 179 256 178 245 q 178 240 178 225 q 177 210 176 205 l 163 190 q 163 179 160 170 q 162 178 154 184 q 146 190 141 195 l 127 209 l 127 264 l 111 282 l 111 495 l 126 512 q 126 517 126 532 q 127 546 128 550 q 128 552 128 556 q 129 560 130 562 q 133 565 143 576 q 153 587 156 591 q 157 591 158 593 q 159 595 160 596 q 160 598 160 608 q 161 617 161 619 q 162 621 162 625 q 163 629 163 629 l 242 711 q 243 713 250 718 q 256 724 259 726 q 264 730 270 729 q 275 728 280 731 q 282 733 288 738 q 294 742 296 744 l 361 744 l 376 758 l 378 759 q 386 759 394 753 q 401 747 409 745 q 411 744 418 744 q 425 744 426 743 q 428 743 433 738 q 438 733 440 731 q 445 727 448 726 q 452 726 460 726 l 478 711 l 507 711 l 512 705 q 509 695 514 688 q 519 682 526 676 q 534 671 541 666 q 548 660 550 653 q 553 650 562 641 q 570 632 572 629 q 574 627 576 624 q 579 621 579 621 q 579 619 580 613 q 581 607 582 606 q 583 604 588 599 q 594 594 596 592 l 597 589 q 599 587 604 580 q 610 573 612 571 q 611 561 616 554 q 621 547 629 542 l 632 520 l 663 487 l 663 416 q 663 408 668 400 q 674 393 679 388 l 679 377 q 679 375 680 366 q 680 358 678 356 l 663 341 l 663 157 l 630 123 l 630 111 l 616 123 l 567 123 q 557 123 548 116 q 539 110 530 106 l 463 39 l 463 36 l 475 24 l 476 24 q 486 24 494 32 q 502 39 512 39 l 547 39 q 547 37 547 29 q 547 22 545 21 l 532 6 q 532 5 531 0 q 530 -6 530 -9 q 530 -14 530 -28 q 529 -42 528 -46 l 498 -76 q 481 -77 470 -78 q 458 -80 446 -93 l 411 -93 q 411 -93 410 -92 q 410 -90 409 -90 q 407 -87 402 -82 q 398 -77 398 -77 z m 178 91 q 178 94 178 105 q 177 116 176 120 l 176 122 l 176 123 l 208 155 q 210 155 215 156 q 220 156 222 157 q 223 157 224 158 q 226 158 227 158 l 244 173 q 246 173 250 174 q 255 175 257 175 q 260 175 260 177 q 257 170 252 165 q 246 160 244 153 l 215 123 q 214 122 213 116 q 212 111 212 108 q 211 103 210 90 q 210 76 210 71 l 205 66 q 204 67 201 70 q 198 72 197 73 q 191 77 188 82 q 184 86 178 91 z"},"w":{"x_min":0,"x_max":725,"ha":725,"o":"m 305 11 l 305 -17 q 306 -18 310 -22 q 314 -25 320 -31 q 326 -37 329 -40 q 335 -45 345 -53 q 355 -61 363 -61 q 370 -61 373 -59 q 376 -57 381 -55 l 569 131 l 569 135 q 586 154 598 176 q 609 198 628 215 q 627 218 634 230 q 641 241 649 254 q 657 267 664 280 q 672 292 673 298 q 673 299 672 303 q 672 307 673 308 q 674 312 677 318 q 680 325 684 332 q 687 338 691 344 q 695 350 698 353 l 698 382 q 700 384 706 392 q 711 401 713 403 q 713 404 714 406 q 715 407 715 408 l 715 505 q 713 506 710 510 q 707 515 706 517 l 706 521 q 691 540 673 557 q 668 560 662 559 l 638 584 l 536 481 q 535 481 535 480 q 535 480 535 479 q 535 479 536 479 q 536 478 540 473 q 543 468 544 467 q 544 466 545 464 q 546 463 546 462 l 569 439 q 575 437 584 432 q 592 426 592 418 l 592 336 q 592 332 585 320 q 578 308 576 304 l 576 275 q 565 265 558 249 q 552 233 550 220 q 550 219 550 216 q 549 214 548 213 q 547 210 544 205 q 542 200 539 194 q 536 189 534 185 q 532 181 531 180 q 521 163 508 147 q 496 131 485 114 q 480 106 475 96 q 470 86 464 78 q 461 75 456 70 q 450 64 449 64 l 443 64 q 442 64 437 68 q 432 73 430 76 q 428 79 428 86 q 428 91 430 93 q 431 95 436 99 l 436 173 q 436 177 439 183 q 442 189 445 192 l 445 391 q 445 396 440 400 q 436 403 436 408 l 436 450 q 436 454 433 458 q 430 463 428 465 l 428 507 q 423 512 420 518 q 417 523 417 531 q 417 541 422 548 q 428 555 428 565 l 428 566 l 408 586 l 305 483 q 304 476 299 470 q 294 463 289 458 q 292 450 284 440 q 277 430 267 420 q 257 410 248 400 q 240 391 240 385 l 240 384 l 260 364 l 305 408 l 305 372 q 307 370 310 366 q 314 361 314 357 l 314 315 l 322 304 l 322 249 l 272 196 q 272 189 270 178 q 268 168 270 161 l 244 133 q 242 128 236 120 q 231 113 224 106 q 217 100 210 96 q 203 91 197 91 q 197 97 194 101 q 191 105 191 112 q 191 120 194 123 q 198 126 200 133 q 200 135 200 142 q 199 148 200 150 q 201 152 204 156 q 206 160 208 161 l 208 291 q 208 292 209 294 q 210 295 210 296 q 216 304 217 314 q 218 323 225 332 l 225 416 q 225 420 223 422 q 218 431 216 440 q 215 448 210 456 q 210 457 209 458 q 208 460 208 460 l 208 502 q 208 506 206 512 q 203 518 200 521 l 200 551 q 200 552 199 554 q 198 557 198 557 l 179 576 q 179 576 174 576 q 170 577 168 577 q 153 577 145 573 q 137 569 124 564 l 9 449 l 29 429 l 31 429 q 36 435 42 438 q 47 440 52 442 q 58 444 63 446 q 68 449 73 454 l 78 452 q 77 450 77 443 q 77 437 78 435 q 78 434 80 432 q 81 429 82 429 q 83 427 84 422 q 86 417 86 416 l 86 367 q 93 358 94 347 q 94 336 103 329 l 103 260 q 103 260 102 258 q 101 257 101 256 q 96 248 96 241 q 97 234 94 226 q 94 224 91 220 q 88 215 86 213 l 86 89 q 86 89 85 88 q 84 86 84 85 q 79 77 80 73 q 80 69 78 61 q 76 56 72 54 q 69 53 69 47 l 69 13 q 70 12 72 10 q 73 8 73 7 q 74 5 74 4 q 75 2 75 2 q 74 -4 72 -8 q 69 -13 69 -22 l 69 -25 l 88 -44 l 109 -44 q 110 -43 112 -42 q 115 -40 116 -40 q 116 -40 118 -39 q 119 -38 120 -38 q 122 -36 130 -30 q 137 -23 139 -21 l 143 -21 l 164 -4 l 170 -4 l 314 139 q 315 145 320 148 l 322 146 l 322 114 q 320 111 317 105 q 314 99 314 95 l 314 21 z"},"-":{"x_min":0,"x_max":608,"ha":608,"o":"m 200 254 q 205 249 208 247 q 211 245 218 245 q 221 245 223 246 q 225 248 229 249 q 231 249 238 250 q 245 250 247 250 q 252 254 258 254 q 264 255 269 257 l 273 258 q 275 259 282 259 q 289 259 291 259 q 297 264 306 266 q 316 268 323 270 q 324 270 326 271 q 328 272 328 273 q 336 274 352 275 q 367 276 373 283 l 407 283 q 409 283 412 285 q 414 287 416 287 l 485 287 l 539 337 l 529 347 l 459 347 q 457 347 455 346 q 453 344 451 343 l 416 343 q 416 343 414 342 q 413 342 412 341 q 403 336 392 335 q 382 334 371 332 q 369 332 366 330 q 364 329 363 329 q 361 329 357 328 q 353 328 352 328 q 347 326 342 323 q 337 320 332 319 q 331 319 324 319 q 318 319 317 318 q 309 317 300 313 q 292 309 283 309 l 278 309 l 313 342 q 315 346 315 347 l 315 348 l 306 357 l 303 357 q 296 357 291 353 q 285 353 276 353 q 268 353 262 348 q 254 348 249 347 q 244 346 240 344 q 236 343 231 341 q 226 339 219 336 l 235 352 l 225 361 q 225 362 224 362 q 223 362 223 362 q 217 362 209 354 q 201 346 196 344 q 188 341 180 336 q 178 335 174 332 q 170 329 169 329 q 168 328 162 326 q 157 324 156 324 q 155 323 150 319 q 144 315 143 314 q 142 314 140 313 q 138 312 137 312 q 137 312 136 311 q 134 310 134 309 l 79 259 q 77 259 77 256 l 77 254 l 86 246 l 87 246 l 89 246 q 90 246 92 248 q 95 249 95 249 q 97 249 101 249 q 105 249 106 250 q 111 251 114 254 q 117 256 122 258 q 133 263 146 270 q 159 276 173 274 q 179 279 191 283 q 203 287 211 287 l 218 287 q 213 279 206 274 q 200 270 200 259 z"},"E":{"x_min":0,"x_max":786,"ha":786,"o":"m 942 -414 q 947 -421 960 -421 l 1021 -421 l 1029 -414 l 1055 -414 q 1056 -413 1060 -410 q 1063 -406 1065 -406 l 1186 -406 q 1191 -399 1200 -398 q 1208 -398 1215 -389 l 1244 -389 q 1244 -389 1248 -387 q 1253 -385 1255 -383 q 1256 -382 1260 -378 q 1263 -375 1264 -373 l 1293 -373 q 1304 -362 1312 -358 q 1320 -354 1334 -349 q 1342 -346 1348 -340 q 1354 -335 1360 -332 l 1437 -253 q 1438 -251 1447 -240 q 1456 -228 1461 -222 q 1465 -218 1468 -212 q 1472 -206 1472 -200 l 1472 -124 q 1470 -122 1468 -120 q 1467 -117 1467 -113 l 1428 -73 l 1412 -66 q 1410 -65 1397 -64 q 1384 -64 1377 -64 q 1372 -64 1364 -64 q 1357 -64 1350 -64 q 1342 -65 1336 -66 q 1329 -66 1328 -66 q 1322 -66 1310 -68 q 1298 -70 1286 -72 q 1273 -74 1262 -76 q 1251 -78 1248 -79 l 1242 -81 l 1165 -163 q 1164 -163 1164 -165 q 1164 -167 1166 -170 q 1169 -173 1171 -175 q 1169 -177 1162 -184 q 1155 -192 1153 -194 q 1153 -194 1152 -196 q 1151 -197 1151 -198 q 1148 -204 1142 -214 q 1135 -224 1134 -226 q 1133 -228 1129 -232 q 1125 -237 1124 -238 q 1124 -238 1124 -240 q 1123 -242 1123 -244 q 1123 -245 1124 -246 q 1124 -248 1124 -248 l 1138 -262 l 1140 -262 l 1219 -182 q 1220 -176 1222 -175 q 1225 -174 1230 -172 q 1237 -171 1250 -168 q 1263 -166 1264 -166 l 1347 -166 q 1353 -166 1364 -176 q 1375 -186 1375 -194 l 1375 -257 q 1374 -257 1372 -258 q 1371 -259 1370 -259 q 1368 -261 1361 -266 q 1354 -272 1352 -274 l 1323 -274 l 1307 -289 l 1275 -289 q 1272 -294 1268 -296 q 1265 -298 1261 -299 q 1257 -300 1254 -301 q 1250 -302 1246 -306 l 1130 -306 q 1129 -306 1125 -308 q 1121 -309 1119 -311 q 1109 -316 1099 -314 q 1089 -313 1082 -321 l 1024 -321 q 1022 -321 1018 -318 q 1013 -315 1013 -314 l 979 -314 l 970 -306 l 886 -306 l 872 -298 q 864 -300 853 -299 q 842 -298 834 -289 l 782 -289 q 777 -280 768 -280 q 758 -281 751 -278 q 745 -276 739 -272 q 733 -269 727 -267 q 720 -264 716 -265 q 712 -266 707 -259 q 687 -260 667 -248 q 667 -248 664 -246 q 661 -243 660 -242 q 648 -238 638 -236 q 629 -235 620 -225 l 591 -225 q 586 -220 578 -214 q 569 -209 561 -203 q 547 -203 532 -199 q 516 -195 504 -186 l 476 -182 q 471 -179 466 -176 q 461 -174 457 -169 l 430 -169 q 425 -161 420 -162 q 415 -163 407 -161 q 406 -160 402 -158 q 399 -155 398 -154 q 395 -153 384 -148 q 374 -144 362 -138 q 351 -132 342 -126 q 332 -120 330 -115 l 281 -95 q 281 -95 282 -94 q 283 -92 283 -91 q 283 -89 284 -79 q 284 -69 285 -67 q 285 -66 288 -62 q 291 -58 291 -57 q 294 -46 296 -36 q 298 -25 307 -17 l 307 8 q 315 13 314 18 q 314 23 316 31 q 318 37 319 37 q 321 37 321 43 l 321 138 l 308 152 q 308 153 304 153 q 298 153 294 152 q 291 150 285 148 l 285 150 q 285 151 286 155 q 288 159 290 164 q 293 170 295 174 q 297 179 298 181 q 298 183 298 190 q 299 196 300 198 q 304 210 310 219 q 316 228 316 242 q 316 242 322 246 q 328 250 336 255 q 343 260 349 264 q 355 268 356 268 q 357 268 362 269 q 366 270 367 270 q 368 270 371 273 q 374 276 374 276 q 379 278 384 278 q 389 279 394 282 q 393 275 397 269 q 401 263 408 258 q 415 253 422 250 q 430 247 436 247 l 504 247 q 498 246 496 242 q 493 238 492 234 q 490 229 488 224 q 487 220 482 218 q 479 213 474 211 q 468 209 468 204 q 463 200 461 193 q 459 186 464 181 q 470 188 478 192 q 485 197 493 200 l 496 200 q 497 202 496 206 q 495 209 500 208 q 500 213 504 216 q 509 219 510 225 q 523 240 523 256 l 603 341 l 603 345 l 590 359 l 589 359 q 588 359 584 358 q 579 356 574 354 q 570 352 566 350 q 561 348 560 347 l 500 347 q 497 347 493 353 q 489 359 484 366 q 479 372 474 378 q 468 384 462 384 q 458 384 456 382 q 454 379 450 378 q 449 377 442 376 q 435 376 433 376 q 432 375 430 373 q 427 371 426 370 q 424 370 418 368 q 411 367 409 366 q 400 363 395 355 q 390 347 382 345 l 332 294 l 332 352 l 337 361 l 337 390 q 338 392 341 396 q 344 399 344 401 q 344 401 344 402 q 345 402 345 403 q 345 411 340 415 q 334 419 330 424 l 327 424 q 322 424 318 421 q 314 418 310 414 q 307 411 303 408 q 299 404 293 404 l 293 406 q 299 413 306 424 q 312 436 315 447 q 315 448 316 454 q 316 461 316 462 q 316 463 318 466 q 321 470 321 471 q 323 478 322 485 q 322 492 330 498 q 330 512 333 522 q 336 532 344 544 l 344 590 q 344 595 340 600 q 337 604 335 606 q 336 606 342 607 q 347 608 349 608 q 351 609 358 611 q 365 613 367 614 q 371 614 382 615 q 394 616 399 616 q 405 623 414 623 q 423 623 431 627 q 433 628 435 630 q 437 632 438 632 l 476 632 q 478 632 482 635 q 487 638 488 639 l 538 639 q 540 641 544 644 q 547 646 549 646 l 600 646 q 605 641 612 640 q 620 639 627 639 l 658 610 q 660 609 670 606 q 680 602 683 600 q 688 598 694 593 q 700 588 705 588 l 707 588 l 784 668 q 785 678 791 682 q 797 687 796 695 q 800 697 801 702 q 802 708 807 707 q 805 710 808 711 q 812 712 814 714 q 812 718 814 720 q 816 723 818 725 q 821 727 823 730 q 825 732 825 736 q 827 741 830 740 q 834 739 835 744 q 840 747 839 750 q 844 750 843 754 q 848 751 846 758 q 851 756 850 761 q 849 766 850 769 q 841 773 836 766 q 832 760 825 758 q 827 752 821 754 q 818 751 815 748 q 812 745 807 747 q 802 745 802 740 q 802 735 796 736 q 789 734 784 728 q 779 723 772 721 q 768 722 766 720 q 764 717 761 718 q 759 713 754 714 q 749 715 747 710 q 743 710 739 710 q 735 710 738 705 q 735 705 733 707 l 703 739 l 675 739 q 674 741 670 744 q 667 747 663 747 l 614 747 q 612 747 606 744 q 600 742 598 739 l 551 739 q 549 739 546 736 q 542 734 540 732 l 502 732 q 502 732 497 730 q 492 727 490 726 q 482 722 474 721 q 466 720 459 716 q 445 717 421 712 q 397 708 384 700 q 374 700 360 698 q 347 696 336 696 l 335 696 l 323 707 l 320 707 q 318 705 311 699 q 304 693 302 691 q 300 689 296 686 q 293 683 293 683 l 255 683 q 252 678 248 676 q 244 675 240 674 q 235 674 230 673 q 226 672 223 668 q 213 667 201 666 q 189 665 181 660 l 149 660 l 159 669 q 153 674 146 679 q 139 684 143 693 q 147 695 150 700 q 153 704 158 703 q 160 705 162 708 q 164 711 167 710 q 169 715 174 714 q 180 713 182 718 q 187 720 194 720 q 201 721 207 721 l 207 724 l 206 720 l 206 724 q 206 725 200 730 q 195 736 192 738 q 191 739 187 740 q 183 740 182 740 q 181 741 176 744 q 172 746 171 747 l 143 747 q 137 741 130 740 q 123 739 118 735 q 117 735 116 734 q 114 733 113 733 l 20 637 q 18 635 18 624 q 18 613 18 611 l 18 602 q 18 600 21 594 q 24 588 26 586 q 32 577 38 574 q 45 571 50 570 q 56 568 61 566 q 66 565 70 560 l 121 560 q 126 567 139 567 q 153 567 160 568 q 179 570 196 583 l 223 583 q 220 569 212 560 q 204 552 198 541 q 198 540 198 535 q 197 530 196 529 q 192 523 187 519 q 182 515 182 507 l 182 506 l 200 487 l 201 486 q 207 486 214 490 q 220 493 226 496 q 233 500 238 504 q 244 507 249 507 l 249 487 q 241 477 239 464 q 237 450 233 439 q 231 431 226 421 q 220 411 219 403 q 219 401 218 394 q 218 386 217 384 q 215 374 208 365 q 202 356 198 347 q 195 341 196 337 q 196 333 194 326 q 192 321 190 318 q 187 315 187 308 q 187 307 188 306 q 188 305 188 305 l 201 291 l 203 291 q 213 291 222 298 q 231 306 239 306 q 239 305 240 302 q 241 300 241 298 q 240 297 238 294 q 236 290 234 289 l 234 222 q 231 219 228 212 q 226 204 224 195 q 221 186 220 177 q 218 168 217 164 q 215 157 212 150 q 208 144 206 138 q 203 132 203 129 q 203 127 201 120 q 200 113 194 106 q 189 99 188 91 q 187 89 186 81 q 186 73 186 71 q 184 63 178 58 q 172 52 172 42 q 172 41 172 39 q 173 37 173 37 l 186 24 q 186 23 186 23 q 187 23 187 23 q 198 23 206 32 q 214 41 225 41 l 225 -23 q 220 -29 216 -46 q 211 -63 206 -82 q 200 -100 194 -114 q 189 -129 182 -129 l 149 -129 l 70 -212 l 85 -228 l 119 -228 q 121 -228 125 -226 q 129 -223 131 -222 q 143 -218 152 -214 q 161 -211 171 -205 l 172 -205 l 173 -205 q 174 -205 177 -208 q 180 -210 181 -210 l 182 -210 q 189 -210 194 -203 q 198 -196 203 -198 l 239 -211 q 242 -214 252 -218 q 263 -223 275 -228 q 287 -232 298 -236 q 309 -239 313 -240 q 330 -246 348 -258 q 367 -270 386 -271 q 391 -277 408 -280 q 424 -284 431 -287 q 441 -289 450 -294 q 460 -299 469 -301 q 471 -302 478 -302 q 486 -303 488 -304 q 496 -306 506 -312 q 515 -318 523 -323 q 528 -326 535 -326 q 542 -325 547 -327 q 556 -329 564 -334 q 572 -339 582 -341 q 583 -341 587 -342 q 591 -342 591 -343 q 599 -345 606 -350 q 613 -356 622 -358 q 623 -358 630 -358 q 637 -359 639 -359 q 644 -361 650 -365 q 656 -369 661 -371 q 672 -375 682 -377 q 692 -379 702 -383 q 703 -383 706 -384 q 708 -386 709 -386 q 710 -387 712 -388 q 715 -389 715 -389 l 768 -389 q 777 -397 786 -398 q 795 -399 806 -400 l 820 -406 l 904 -406 l 911 -414 z"},"s":{"x_min":0,"x_max":463,"ha":463,"o":"m 99 -59 q 101 -61 109 -68 q 117 -74 120 -76 q 124 -79 135 -86 q 146 -93 158 -100 q 170 -108 180 -114 q 190 -120 193 -120 l 231 -119 l 254 -100 q 260 -94 270 -83 q 281 -72 287 -66 q 289 -64 292 -62 q 296 -59 300 -58 l 413 45 q 417 49 422 56 q 426 64 428 70 q 428 71 428 75 q 427 79 428 80 q 428 82 432 87 q 436 92 436 93 q 437 95 437 104 q 437 114 436 116 l 444 127 l 444 264 q 444 267 447 274 q 450 280 453 283 l 453 386 q 453 392 448 400 q 442 409 434 416 q 426 423 418 428 q 410 433 404 433 q 387 433 378 424 q 370 415 356 407 q 346 402 336 399 q 326 396 316 390 l 262 374 l 250 382 q 250 385 246 391 q 243 397 243 400 q 242 404 240 416 q 237 429 235 432 q 235 432 234 436 q 232 441 230 446 q 229 450 228 454 q 227 459 227 459 q 228 474 230 482 q 231 490 232 494 q 232 498 233 500 q 234 502 235 505 q 237 511 242 509 q 248 507 250 513 q 254 515 256 511 q 258 507 262 509 q 264 507 266 506 q 267 504 270 505 q 269 499 275 496 q 281 492 281 486 l 285 486 l 286 481 q 291 471 298 463 q 306 455 314 447 q 318 445 323 445 q 329 445 333 445 l 341 445 l 443 547 l 423 568 q 422 568 414 562 q 407 557 399 551 q 391 545 384 540 q 376 536 375 538 l 335 578 l 330 588 l 307 611 l 280 611 q 273 606 264 604 q 255 602 252 599 l 236 582 q 234 584 231 584 q 231 584 231 584 q 231 585 230 585 l 229 584 l 128 483 l 128 449 l 137 439 l 137 397 q 139 395 142 390 q 145 386 145 382 l 145 340 l 153 329 l 153 300 q 153 297 158 292 q 162 286 168 280 q 174 275 180 272 q 187 268 191 268 l 258 307 q 266 312 278 317 q 291 322 300 324 q 311 327 313 328 q 315 328 324 328 q 327 328 331 324 q 335 320 335 318 l 331 205 q 328 202 325 196 q 322 189 322 186 l 322 49 q 317 45 314 40 q 311 34 314 28 l 290 4 q 288 2 283 2 q 270 2 250 7 q 230 12 220 19 q 204 30 184 42 q 164 55 150 71 q 151 75 148 79 q 146 81 140 88 q 135 94 133 96 q 135 102 131 106 q 127 111 127 116 l 127 117 l 213 206 q 219 200 222 193 q 226 186 224 177 q 224 175 224 172 q 225 168 220 170 q 219 165 214 160 q 209 155 204 154 q 202 150 206 148 q 209 147 208 143 q 213 144 220 144 q 226 143 231 143 q 237 143 241 146 q 245 148 247 154 q 251 158 250 162 q 261 170 258 184 q 256 197 258 208 q 250 220 238 224 q 226 229 212 227 l 207 230 q 196 230 185 228 q 174 225 166 217 l 115 169 l 111 169 l 10 68 l 10 59 q 21 48 34 32 q 46 17 44 0 q 52 -10 60 -20 q 67 -30 75 -40 l 94 -59 z"},">":{"x_min":0,"x_max":532,"ha":532,"o":"m 463 384 l 462 371 l 461 370 l 459 369 q 458 368 453 367 q 448 366 446 365 q 437 364 426 360 q 416 357 404 355 q 395 351 392 349 q 388 346 378 348 l 307 304 q 300 305 290 302 q 280 298 273 295 l 253 283 q 252 282 247 282 q 242 283 240 282 q 235 281 230 278 q 226 276 220 278 l 193 261 q 185 259 178 256 q 172 253 164 252 q 152 247 140 243 q 129 239 116 235 q 116 235 114 235 q 112 235 110 234 q 109 233 107 234 q 105 236 105 236 l 95 230 l 21 258 l 19 261 l 20 276 l 25 279 q 30 282 34 281 q 37 280 42 283 q 54 286 66 290 q 77 294 91 297 q 97 300 104 303 q 110 306 118 308 l 147 326 q 153 324 156 326 q 160 328 165 329 q 166 330 172 330 q 178 329 179 330 q 181 331 189 336 q 196 341 198 341 q 205 344 215 348 q 225 352 234 350 l 302 394 q 312 393 316 395 q 321 398 330 402 q 338 404 346 406 q 355 407 363 410 q 367 412 374 415 q 381 418 387 416 l 461 388 z m 465 372 l 453 363 l 452 363 q 447 364 445 371 q 443 378 439 384 q 438 384 431 390 q 424 395 413 393 q 409 398 402 402 q 395 407 389 413 l 285 468 q 276 477 265 480 q 253 484 244 491 q 243 491 242 492 q 240 494 239 494 q 238 494 234 496 q 229 498 224 500 q 219 502 215 504 q 211 505 210 506 q 201 510 194 516 q 187 522 180 528 l 166 532 q 165 533 163 536 q 161 539 160 539 q 159 540 152 542 q 146 544 145 545 l 118 622 l 118 623 l 130 633 l 136 631 q 141 629 144 628 q 146 628 148 625 q 148 625 150 623 q 151 621 152 621 q 153 621 158 619 q 162 617 163 615 q 165 614 168 610 q 171 607 172 607 q 185 598 198 593 q 210 588 225 582 q 225 582 228 581 q 231 580 231 579 q 231 579 234 576 q 237 574 238 574 q 246 569 254 566 q 261 564 270 555 l 404 513 q 407 506 410 501 q 413 496 417 491 q 423 484 428 472 q 433 460 441 456 l 468 380 z"},"l":{"x_min":0,"x_max":290,"ha":290,"o":"m 51 -363 l 65 -378 q 66 -378 68 -378 q 71 -379 73 -379 q 80 -379 85 -377 q 90 -375 95 -367 l 129 -367 l 135 -373 l 160 -373 l 167 -378 l 203 -378 l 289 -292 l 272 -274 l 247 -274 l 241 -267 l 215 -267 l 207 -260 l 207 354 q 210 359 212 368 q 213 377 218 381 l 218 588 l 224 594 l 224 636 q 221 639 219 643 q 219 643 218 646 q 218 648 217 649 q 215 651 210 656 q 205 662 203 664 q 199 666 191 668 q 183 669 181 674 q 181 692 176 704 q 172 716 156 727 l 154 727 l 152 727 q 150 727 148 726 q 146 725 146 725 l 17 598 l 17 594 l 32 579 l 36 579 q 45 587 55 594 q 65 601 74 609 q 73 595 84 585 q 95 575 103 567 q 106 566 112 563 q 118 560 118 558 l 118 529 l 113 518 l 113 314 q 108 309 106 300 q 105 292 100 286 l 100 -302 l 51 -353 z"},"8":{"x_min":0,"x_max":378,"ha":378,"o":"m 38 209 q 36 202 30 198 q 25 193 23 186 q 23 185 22 182 q 22 178 22 177 q 17 169 14 166 q 10 164 10 154 l 10 75 l 22 63 q 27 58 32 53 q 36 48 42 43 q 45 40 50 38 q 55 37 59 35 q 60 34 66 28 q 72 23 74 22 q 74 21 76 20 q 78 20 79 20 l 207 20 q 209 21 216 22 q 222 24 224 25 q 225 25 228 26 q 232 26 232 27 q 234 28 240 32 q 245 37 246 38 q 246 39 248 40 q 249 40 249 40 l 330 120 q 330 121 331 123 q 332 125 333 125 q 335 128 343 136 q 351 145 353 147 q 354 157 358 166 q 362 174 366 182 l 366 246 q 366 251 361 258 q 356 264 353 268 q 351 270 347 276 q 343 281 341 283 l 330 294 q 321 301 312 302 q 302 303 293 308 q 292 308 290 308 q 288 309 288 309 q 287 310 280 310 q 274 311 271 313 l 298 341 q 302 350 308 358 q 313 365 318 373 q 319 375 324 385 q 329 395 331 400 q 333 402 333 405 l 333 468 q 333 469 331 471 q 329 473 328 475 q 326 477 321 482 q 316 488 314 490 l 314 498 q 314 500 308 506 q 302 511 298 514 q 293 517 285 517 q 278 517 273 519 q 268 520 268 522 q 268 524 263 524 l 234 524 q 223 516 212 508 q 200 499 189 492 q 188 491 186 490 q 184 489 184 488 l 114 418 q 112 412 109 409 q 106 406 104 398 l 102 395 q 99 390 93 383 q 87 376 85 371 q 85 370 84 363 q 82 356 82 355 q 80 348 76 342 q 72 335 70 328 q 70 327 70 324 q 69 322 69 321 q 67 318 66 316 q 64 315 64 311 l 64 273 q 66 269 72 262 q 77 255 77 250 l 77 249 z m 110 120 l 94 137 l 94 209 q 94 210 94 212 q 95 215 95 216 q 97 218 102 222 q 106 227 107 227 l 149 227 l 159 232 l 204 232 q 206 231 212 230 q 217 228 219 227 q 220 227 226 226 q 231 226 232 226 q 234 225 238 223 q 241 221 243 221 q 250 219 255 219 q 261 219 266 212 q 268 209 274 203 q 279 197 279 196 q 280 194 282 192 q 283 190 283 189 l 283 129 q 279 123 276 114 q 272 104 263 104 l 134 104 q 130 108 124 114 q 117 119 110 120 z m 147 336 l 147 363 q 153 367 152 372 q 152 377 154 383 q 155 388 160 393 q 164 398 166 403 q 168 412 169 418 q 170 424 176 432 q 178 434 180 437 q 183 440 184 440 l 202 440 l 209 434 l 231 434 q 232 426 240 418 q 249 411 249 406 l 249 350 l 236 323 q 231 323 219 318 q 207 314 202 311 l 166 311 q 157 311 154 321 q 152 331 147 336 z"},"\\":{"x_min":0,"x_max":653,"ha":653,"o":"m 388 -149 q 388 -155 392 -159 q 397 -163 402 -167 l 404 -167 q 409 -167 414 -163 q 419 -159 424 -157 l 452 -134 q 453 -133 454 -132 q 455 -132 455 -132 q 478 -116 499 -98 q 500 -98 502 -96 q 505 -95 506 -95 q 507 -95 511 -94 q 515 -94 516 -93 q 522 -91 528 -87 q 534 -83 541 -82 q 543 -81 550 -80 q 558 -80 559 -80 q 561 -79 565 -76 q 569 -74 571 -72 l 641 -1 l 641 2 q 641 3 636 8 q 632 12 630 14 q 627 14 625 16 l 623 16 l 621 16 q 620 14 615 10 q 610 5 608 4 q 606 3 598 2 q 591 2 589 2 q 584 1 582 -1 q 580 -3 575 -3 q 566 -3 560 8 q 555 18 553 26 q 537 39 531 52 q 525 65 517 83 q 512 95 508 108 q 504 120 497 131 q 496 133 494 138 q 491 143 491 144 q 490 146 490 152 q 489 158 489 160 q 489 163 487 165 q 486 166 480 173 q 475 180 474 181 q 473 183 472 184 q 471 186 471 186 q 470 188 470 194 q 469 200 469 201 q 467 211 460 220 q 454 230 449 238 q 446 244 444 251 q 442 258 437 263 q 437 266 436 274 q 436 283 435 285 q 435 287 434 290 q 434 294 434 295 q 432 301 429 307 q 426 313 424 319 q 422 327 420 332 q 419 338 415 345 q 414 347 412 351 q 410 355 410 355 q 408 363 409 368 q 410 374 407 381 q 406 383 402 391 q 397 399 397 401 q 396 403 396 412 q 395 420 395 422 q 394 430 390 436 q 386 442 383 448 q 380 456 378 464 q 376 473 373 481 q 371 486 368 490 q 365 493 363 498 q 361 504 362 510 q 363 516 356 520 l 356 541 q 350 547 348 552 q 345 556 344 560 q 343 565 342 570 q 341 576 338 583 q 336 588 334 592 q 332 595 330 600 q 329 601 328 608 q 326 614 325 615 q 323 619 317 627 q 311 635 310 640 q 308 649 306 662 q 305 674 301 682 q 299 687 296 690 q 292 694 290 699 q 287 706 284 719 q 281 732 275 737 l 275 788 l 269 794 l 269 851 q 265 856 264 862 q 263 868 262 874 q 262 880 261 886 q 260 891 255 895 l 255 927 q 255 927 254 928 q 254 930 253 932 q 253 932 252 934 q 250 936 249 937 q 246 945 244 955 q 243 965 235 970 l 235 995 q 228 1000 228 1008 q 229 1017 228 1024 q 227 1029 225 1029 q 224 1029 221 1035 q 219 1041 220 1042 q 221 1044 216 1049 q 216 1057 216 1066 q 215 1074 209 1081 l 209 1154 q 216 1159 215 1166 q 214 1172 216 1178 q 216 1179 218 1182 q 221 1185 221 1186 l 221 1188 l 221 1189 l 209 1201 l 201 1201 q 199 1199 194 1195 q 189 1191 184 1186 q 179 1181 174 1176 q 169 1172 167 1171 q 167 1170 164 1168 q 162 1167 161 1166 q 148 1158 138 1152 q 129 1145 116 1134 q 111 1131 106 1130 q 100 1130 95 1127 q 88 1123 86 1120 q 84 1116 77 1114 l 10 1047 l 10 1044 l 22 1032 l 45 1032 l 64 1049 q 65 1038 73 1030 q 81 1021 84 1010 q 84 1008 84 999 q 85 990 85 988 q 87 982 91 976 q 95 971 97 965 q 97 964 98 958 q 98 953 99 952 q 101 946 104 941 q 108 936 110 930 q 112 926 112 923 q 112 920 114 916 q 114 916 116 914 q 117 912 117 911 q 118 910 118 904 q 118 899 119 898 q 119 898 120 896 q 121 894 122 893 q 123 892 126 889 q 128 886 129 885 q 132 880 132 874 q 133 867 136 861 q 138 856 137 854 q 136 851 139 843 q 139 842 142 840 q 144 837 144 836 q 144 835 144 830 q 145 824 146 823 q 146 822 148 820 q 149 818 149 818 q 149 817 150 815 q 151 813 151 813 q 152 808 154 799 q 156 790 159 780 q 162 770 165 762 q 168 753 171 751 q 170 740 173 731 q 176 722 179 712 q 181 706 182 708 q 183 709 184 702 q 185 700 186 690 q 186 681 186 679 q 191 673 192 666 q 192 658 193 650 l 198 644 l 198 622 q 200 620 202 617 q 205 614 205 612 l 205 578 q 214 571 216 560 q 217 548 219 538 q 221 532 225 526 q 229 521 231 515 q 232 513 232 506 q 233 498 233 496 l 239 489 l 239 463 q 246 458 248 443 q 251 428 253 421 q 253 420 256 418 q 258 415 258 414 q 260 407 259 402 q 258 398 265 394 l 265 376 l 272 369 l 272 349 q 283 338 284 327 q 286 316 286 300 q 293 295 292 291 q 291 287 293 280 q 293 279 296 276 q 298 274 298 273 q 298 272 298 266 q 299 261 300 260 q 300 259 302 258 q 303 256 303 255 q 303 254 304 252 q 305 251 305 250 q 305 247 306 238 q 306 229 306 227 q 315 217 317 204 q 319 192 320 180 q 321 179 322 176 q 324 174 325 173 q 325 172 326 168 q 326 164 327 163 q 327 161 332 154 q 338 148 338 146 q 339 144 340 137 q 340 130 340 128 q 348 121 350 111 q 351 101 355 93 q 360 88 368 78 q 376 67 378 59 q 379 57 379 49 q 379 42 380 41 q 381 39 386 34 q 391 29 392 27 q 398 18 400 8 q 402 -3 407 -13 q 411 -19 418 -28 q 424 -36 425 -41 q 426 -43 426 -48 q 427 -54 427 -55 q 427 -56 430 -58 q 432 -61 432 -61 q 432 -63 432 -68 q 433 -74 434 -75 q 435 -77 438 -81 q 442 -85 444 -87 l 393 -139 q 391 -141 390 -144 q 388 -146 388 -149 z"},"e":{"x_min":0,"x_max":345,"ha":345,"o":"m 82 -78 l 122 -116 q 127 -121 136 -120 q 145 -120 151 -124 l 198 -124 q 198 -124 200 -124 q 201 -123 202 -122 l 219 -105 q 223 -100 234 -86 q 245 -72 256 -56 q 267 -40 276 -26 q 285 -12 285 -8 q 285 -3 280 7 q 276 17 269 26 q 262 36 254 44 q 247 51 241 51 l 240 51 q 236 51 236 47 q 237 13 224 -21 q 211 -55 198 -86 q 196 -88 196 -94 q 195 -99 190 -99 l 189 -99 q 188 -98 186 -98 q 185 -97 185 -97 l 149 -61 q 145 -57 144 -50 q 142 -42 140 -38 l 140 9 l 134 19 l 134 186 l 139 190 q 139 191 143 191 q 148 191 150 191 q 164 191 176 187 q 188 183 202 180 q 212 177 222 176 q 232 174 242 171 q 251 169 262 165 q 272 161 282 161 q 284 161 286 161 q 289 161 291 163 q 304 174 320 194 q 335 213 335 233 q 335 235 328 256 q 320 276 311 300 q 302 324 294 344 q 286 364 284 365 l 210 403 q 201 411 189 415 q 177 419 165 419 q 163 419 158 418 q 153 418 151 418 q 151 418 150 418 q 148 417 147 416 q 146 415 140 410 q 134 405 132 403 q 128 400 110 386 q 92 372 72 356 q 51 340 35 327 q 19 314 19 313 l 19 273 q 12 265 11 250 q 10 236 10 226 q 10 225 11 222 q 12 219 12 218 l 12 214 l 12 209 q 12 208 11 205 q 10 202 10 201 q 10 200 11 196 q 12 193 12 192 l 12 191 l 12 190 q 12 189 11 186 q 10 183 10 182 q 10 181 11 178 q 12 174 12 173 l 12 169 l 12 165 q 12 164 11 160 q 10 157 10 157 q 10 155 10 152 q 11 149 12 148 l 12 7 q 11 6 10 3 q 10 0 10 -2 q 10 -2 10 -4 q 11 -5 12 -6 q 14 -10 18 -16 q 22 -22 23 -23 l 71 -71 z m 198 223 l 158 223 q 153 227 144 226 q 134 226 134 235 l 134 294 l 140 304 l 140 363 q 140 369 148 374 q 156 380 162 380 q 165 380 166 380 q 168 380 170 376 q 174 368 176 359 q 177 350 179 342 q 180 337 184 334 q 187 330 189 325 q 195 307 202 289 q 209 271 217 254 q 221 243 224 238 q 228 234 228 226 q 228 219 223 218 q 222 218 220 218 q 217 217 216 217 q 205 217 198 223 z"},"b":{"x_min":0,"x_max":415,"ha":415,"o":"m 12 -244 l 12 -246 l 27 -260 l 31 -260 l 118 -184 q 128 -174 135 -162 q 142 -150 151 -140 q 157 -145 161 -150 q 165 -155 169 -160 q 175 -168 183 -176 q 191 -185 199 -191 l 204 -191 q 221 -191 242 -178 q 263 -166 274 -157 q 285 -147 302 -132 q 320 -117 336 -102 q 353 -88 365 -77 q 377 -66 377 -66 l 381 -59 l 388 -25 l 390 -21 l 396 57 q 397 57 398 60 q 398 62 398 62 q 398 63 398 68 q 399 73 400 78 q 400 84 400 88 q 400 93 400 95 q 400 96 402 102 q 403 109 405 112 q 405 113 407 118 q 409 124 410 126 q 412 135 412 143 q 412 152 412 163 l 412 184 q 408 198 394 222 q 381 246 364 270 q 347 295 330 314 q 312 334 300 340 q 288 347 274 347 q 272 347 266 346 q 261 346 259 344 l 169 265 l 169 266 q 169 269 170 283 q 170 297 170 312 q 170 328 170 342 q 171 356 171 359 q 171 369 172 393 q 172 417 172 443 q 172 470 172 494 q 171 518 171 527 q 172 533 174 540 q 176 548 176 554 q 176 557 175 558 q 174 559 171 561 q 169 563 164 568 q 158 573 156 575 l 153 575 q 147 575 141 572 q 135 568 130 563 l 8 453 l 25 438 l 27 438 l 29 438 q 31 438 33 439 q 35 440 35 440 l 62 460 q 62 452 62 430 q 63 409 63 385 q 63 361 64 340 q 64 318 64 310 l 64 302 l 64 297 q 64 289 63 270 q 62 252 62 231 q 61 210 60 191 q 60 172 60 165 q 59 164 58 162 q 58 159 57 157 q 57 156 56 150 q 56 145 56 138 q 55 132 54 126 q 53 120 53 119 q 53 117 51 110 q 49 104 49 102 q 49 99 48 90 q 47 82 46 72 q 46 62 46 54 q 45 45 45 42 q 44 37 42 34 q 40 30 40 25 q 40 21 42 18 q 43 16 43 13 q 43 6 41 1 l 41 -66 l 43 -69 l 43 -81 q 43 -85 43 -92 q 43 -100 41 -105 l 41 -167 q 49 -176 49 -190 q 49 -196 43 -203 q 37 -210 30 -216 q 24 -223 18 -230 q 12 -237 12 -244 z m 236 -29 l 236 -27 q 238 -25 242 -20 q 247 -16 248 -14 q 251 -10 255 -6 q 259 -1 259 4 l 259 6 l 244 18 l 240 18 l 147 -63 l 147 -53 q 147 -43 148 -34 q 150 -26 150 -16 q 150 -13 150 -8 q 149 -3 149 -3 l 147 1 l 147 64 q 149 69 149 77 q 149 80 148 82 q 147 84 147 87 q 147 91 149 96 q 151 100 151 104 q 151 107 152 116 q 153 125 154 134 q 154 144 155 153 q 156 162 156 165 l 158 169 q 167 177 178 186 q 189 196 197 207 q 205 218 208 228 q 211 237 222 246 l 224 246 q 227 246 240 228 q 252 211 266 189 q 280 167 292 146 q 303 126 304 121 l 304 100 q 304 90 304 81 q 304 73 302 62 q 302 61 300 56 q 298 51 298 49 q 294 35 294 20 q 295 6 290 -6 l 282 -83 q 280 -86 278 -94 q 275 -92 268 -82 q 261 -72 254 -61 q 247 -50 242 -40 q 236 -31 236 -29 z"},"%":{"x_min":0,"x_max":817,"ha":817,"o":"m 326 -89 q 326 -94 322 -97 q 318 -100 314 -103 l 313 -103 q 310 -102 307 -98 q 304 -94 301 -92 l 285 -70 q 285 -69 284 -68 q 283 -68 283 -68 q 270 -52 258 -34 q 257 -34 256 -32 q 254 -31 254 -31 q 253 -31 250 -30 q 248 -29 247 -28 q 243 -26 240 -22 q 236 -18 232 -16 q 231 -15 226 -14 q 220 -13 220 -13 q 219 -12 216 -10 q 214 -7 213 -5 l 175 62 l 175 65 q 176 66 180 69 q 183 72 184 74 q 187 73 188 75 l 190 75 l 191 74 q 191 73 194 68 q 197 64 198 63 q 199 62 204 60 q 209 59 211 59 q 214 58 215 56 q 216 54 219 53 q 226 52 231 60 q 236 69 238 75 q 251 84 257 94 q 263 105 271 119 q 276 128 280 138 q 285 148 291 157 q 292 158 294 162 q 296 166 297 167 q 298 168 299 173 q 300 178 300 180 q 301 182 302 184 q 303 185 308 190 q 312 195 313 196 q 314 197 315 198 q 316 200 316 200 q 317 201 318 206 q 319 211 319 212 q 322 220 328 228 q 334 235 338 241 q 341 245 343 251 q 345 257 350 260 q 350 263 352 270 q 353 277 354 278 q 354 280 355 283 q 356 286 356 287 q 358 291 361 296 q 364 301 366 306 q 369 312 370 316 q 372 321 376 326 q 377 328 378 331 q 380 334 380 334 q 383 341 383 346 q 383 350 386 355 q 387 357 391 363 q 395 369 396 371 q 397 373 398 380 q 400 387 400 388 q 402 395 406 400 q 409 404 412 409 q 415 415 418 422 q 420 429 423 435 q 425 439 428 442 q 430 444 432 448 q 434 453 434 458 q 434 463 440 466 l 443 483 q 447 488 450 492 q 452 495 454 498 q 455 502 456 506 q 458 511 461 517 q 463 520 464 523 q 466 526 468 530 q 469 531 471 536 q 473 541 474 542 q 476 545 481 551 q 486 557 487 561 q 490 568 492 578 q 495 589 499 595 q 501 599 504 602 q 507 604 509 608 q 512 614 516 624 q 520 635 524 638 l 531 681 l 536 685 l 544 733 q 547 736 548 741 q 550 746 552 751 q 553 756 554 760 q 556 765 560 768 l 564 795 q 564 795 564 796 q 565 797 566 799 q 566 799 568 800 q 569 802 569 802 q 573 809 575 817 q 577 825 583 828 l 587 849 q 592 853 593 860 q 594 867 596 873 q 597 877 598 877 q 599 876 602 881 q 604 886 604 888 q 603 889 607 892 q 608 899 610 906 q 611 913 616 918 l 626 979 q 622 984 624 990 q 625 995 625 1000 q 625 1001 624 1004 q 622 1006 622 1007 l 623 1009 l 623 1010 l 633 1018 l 638 1018 q 639 1016 642 1012 q 645 1008 648 1003 q 650 998 653 994 q 656 990 657 989 q 657 988 658 986 q 660 985 660 984 q 668 976 674 970 q 679 963 687 952 q 690 949 694 948 q 697 947 700 944 q 704 940 705 937 q 706 934 710 931 l 747 868 l 746 865 l 736 856 l 721 859 l 710 875 q 708 866 702 860 q 695 854 691 845 q 691 843 690 836 q 688 828 688 827 q 686 822 682 818 q 679 814 676 809 q 676 808 675 804 q 674 799 673 798 q 671 793 668 790 q 665 786 663 781 q 661 778 660 775 q 660 773 658 770 q 658 770 657 768 q 656 767 655 766 q 655 765 654 760 q 653 756 652 755 q 652 755 651 754 q 650 752 650 752 q 649 751 647 748 q 645 746 644 746 q 641 742 640 736 q 639 731 636 726 q 634 722 634 720 q 634 718 631 712 q 631 711 629 709 q 627 707 627 706 q 627 705 626 700 q 625 696 624 696 q 624 695 622 694 q 621 692 621 692 q 621 691 620 690 q 619 688 619 688 q 618 684 615 676 q 612 669 609 661 q 606 653 602 646 q 599 640 597 638 q 596 629 593 622 q 590 615 586 607 q 584 602 584 604 q 583 605 581 599 q 580 597 578 589 q 577 581 577 580 q 573 575 572 569 q 570 563 568 556 l 564 552 l 561 534 q 559 532 557 530 q 555 528 555 526 l 550 498 q 543 493 540 484 q 538 474 535 466 q 533 461 530 457 q 526 453 524 448 q 523 446 522 440 q 520 434 520 432 l 515 427 l 511 405 q 506 402 502 390 q 498 377 496 372 q 496 371 494 369 q 492 367 492 366 q 489 361 490 357 q 490 353 484 351 l 482 335 l 476 330 l 473 314 q 464 306 462 297 q 459 288 457 274 q 452 271 452 268 q 452 264 450 258 q 449 258 447 256 q 445 254 445 253 q 445 252 444 248 q 443 243 442 242 q 442 242 441 240 q 440 239 439 239 q 439 238 438 237 q 438 236 437 235 q 437 232 436 224 q 434 217 434 216 q 426 208 423 198 q 420 188 418 178 q 417 177 416 175 q 414 173 413 173 q 413 172 412 168 q 411 165 411 164 q 410 163 406 158 q 401 153 401 151 q 400 150 398 144 q 397 138 397 137 q 391 132 388 124 q 386 115 382 109 q 378 105 371 98 q 364 90 362 83 q 361 82 360 75 q 359 69 358 68 q 357 67 353 64 q 349 60 348 58 q 343 51 340 42 q 337 34 332 26 q 329 22 323 16 q 317 9 316 5 q 315 3 314 -2 q 313 -6 313 -7 q 313 -7 311 -9 q 309 -11 309 -11 q 308 -13 307 -18 q 306 -22 305 -22 q 304 -24 302 -27 q 299 -30 297 -31 l 324 -80 q 325 -82 326 -84 q 327 -87 326 -89 z m 610 66 l 610 38 q 610 38 616 34 q 621 29 624 26 q 624 26 626 25 q 627 24 628 24 l 630 24 q 636 24 638 30 q 641 35 647 32 l 674 60 l 689 46 l 763 122 l 763 127 q 763 133 760 136 q 758 140 755 146 q 746 162 741 188 l 740 193 q 738 196 734 202 q 729 207 727 208 q 721 216 714 231 q 708 246 696 246 q 693 246 690 244 q 688 241 685 240 l 677 238 q 675 238 670 232 q 666 227 664 227 l 661 226 l 639 204 l 618 204 l 544 127 l 560 112 l 580 112 l 594 96 q 592 87 598 79 q 603 71 610 66 z m 627 112 l 619 120 l 608 120 l 600 128 l 640 169 l 651 169 l 663 181 l 665 182 q 666 182 668 185 q 671 188 672 188 l 676 189 q 678 189 679 190 q 680 192 682 192 q 689 192 692 184 q 695 176 699 172 q 699 171 702 168 q 705 165 705 164 l 706 161 q 709 147 714 138 q 715 135 716 134 q 718 132 718 128 l 718 126 l 678 85 l 670 92 l 656 77 q 652 79 651 76 q 650 73 646 73 l 646 73 q 645 73 644 74 q 643 74 643 74 q 641 76 638 78 q 635 81 635 81 l 635 96 q 632 98 629 102 q 626 107 627 112 z m 610 66 l 610 38 q 610 38 616 34 q 621 29 624 26 q 624 26 626 25 q 627 24 628 24 l 630 24 q 636 24 638 30 q 641 35 647 32 l 674 60 l 689 46 l 763 122 l 763 127 q 763 133 760 136 q 758 140 755 146 q 746 162 741 188 l 740 193 q 738 196 734 202 q 729 207 727 208 q 721 216 714 231 q 708 246 696 246 q 693 246 690 244 q 688 241 685 240 l 677 238 q 675 238 670 232 q 666 227 664 227 l 661 226 l 639 204 l 618 204 l 544 127 l 560 112 l 580 112 l 594 96 q 592 87 598 79 q 603 71 610 66 z m 627 112 l 619 120 l 608 120 l 600 128 l 640 169 l 651 169 l 663 181 l 665 182 q 666 182 668 185 q 671 188 672 188 l 676 189 q 678 189 679 190 q 680 192 682 192 q 689 192 692 184 q 695 176 699 172 q 699 171 702 168 q 705 165 705 164 l 706 161 q 709 147 714 138 q 715 135 716 134 q 718 132 718 128 l 718 126 l 678 85 l 670 92 l 656 77 q 652 79 651 76 q 650 73 646 73 l 646 73 q 645 73 644 74 q 643 74 643 74 q 641 76 638 78 q 635 81 635 81 l 635 96 q 632 98 629 102 q 626 107 627 112 z m 251 623 l 251 595 q 251 595 256 590 q 262 586 265 583 q 265 583 266 582 q 268 581 269 581 l 271 581 q 277 581 280 586 q 282 592 288 589 l 315 617 l 330 603 l 404 679 l 404 684 q 404 690 402 694 q 399 697 396 703 q 387 719 382 745 l 381 750 q 379 753 374 758 q 370 764 368 765 q 362 773 356 788 q 349 803 337 803 q 334 803 332 800 q 329 798 326 797 l 318 795 q 316 795 312 790 q 307 784 305 784 l 302 783 l 280 761 l 259 761 l 185 684 l 201 669 l 221 669 l 235 653 q 233 644 238 636 q 244 628 251 623 z m 268 669 l 260 677 l 249 677 l 241 685 l 281 726 l 292 726 l 304 738 l 306 739 q 307 739 310 742 q 312 745 313 745 l 317 746 q 319 746 320 748 q 321 749 323 749 q 329 749 332 741 q 336 733 340 729 q 340 728 343 725 q 346 722 346 721 l 347 718 q 350 704 355 695 q 356 692 358 690 q 359 689 359 685 l 359 683 l 319 642 l 311 649 l 297 634 q 293 636 292 633 q 291 630 287 630 l 287 630 q 286 630 285 630 q 284 631 284 631 q 282 633 279 636 q 276 638 276 638 l 276 653 q 273 655 270 660 q 267 664 268 669 z"},"m":{"x_min":0,"x_max":752,"ha":752,"o":"m 588 -142 q 589 -142 597 -145 q 605 -148 614 -152 q 624 -156 633 -160 q 642 -163 644 -163 l 645 -163 l 731 -77 q 731 -69 734 -64 q 738 -59 744 -54 q 749 -50 754 -46 q 760 -41 763 -35 q 769 -37 767 -31 q 769 -29 770 -28 q 772 -26 775 -27 q 773 -22 778 -20 q 783 -17 782 -12 q 787 -10 786 -4 q 785 2 790 4 q 792 15 789 28 q 786 40 775 42 q 772 48 768 49 q 763 50 758 50 q 753 50 748 50 q 743 50 740 54 q 730 55 721 53 q 712 51 709 42 q 705 38 701 39 q 701 34 701 28 q 701 22 709 23 q 708 26 710 26 q 712 27 715 27 q 718 27 720 28 q 722 28 721 31 q 726 30 732 31 q 737 32 740 27 q 746 29 752 26 q 757 23 755 15 q 755 13 756 10 q 756 6 751 8 q 754 0 746 -6 q 739 -11 736 -15 q 738 -21 732 -19 q 734 -25 730 -28 q 727 -32 723 -36 q 716 -38 710 -34 q 705 -30 699 -28 q 691 -25 678 -22 q 666 -18 666 -6 q 666 1 670 5 q 673 9 674 14 q 676 26 676 32 q 675 38 683 48 l 683 128 l 691 139 l 691 225 q 691 229 694 235 q 697 241 699 244 q 698 257 699 266 q 700 274 708 284 l 708 333 q 708 337 711 341 q 714 345 716 347 l 716 463 q 716 473 708 482 q 699 490 693 495 q 669 493 650 502 q 631 512 613 529 q 612 529 612 530 q 611 531 611 531 l 613 535 l 613 539 l 631 559 l 611 579 l 610 580 q 605 580 601 577 q 597 574 594 571 l 464 443 l 444 461 q 442 461 438 462 q 435 462 434 463 l 368 529 l 368 531 q 371 534 377 542 q 383 551 383 557 l 383 558 l 364 577 l 363 577 l 362 577 q 358 577 356 575 q 354 573 344 564 q 335 556 332 554 q 331 553 328 552 q 324 550 322 550 l 290 520 q 282 518 278 514 q 275 509 267 504 q 265 502 256 498 q 248 494 246 493 q 240 488 232 482 q 224 475 216 470 l 216 471 l 216 472 q 217 473 218 474 q 218 475 219 476 l 219 518 q 219 527 224 532 q 228 537 228 546 q 228 547 228 550 q 227 552 227 552 l 208 571 l 185 571 q 183 573 174 580 q 166 586 164 588 q 162 589 156 592 q 150 595 143 598 q 136 601 130 603 q 124 605 122 605 l 115 605 l 13 502 l 33 482 q 36 483 44 480 q 51 478 60 474 q 68 470 76 466 q 83 462 86 459 l 96 449 l 96 404 q 96 404 96 402 q 95 401 94 400 q 94 400 92 398 q 90 395 90 394 q 87 387 87 379 q 87 371 88 364 l 79 354 l 79 299 q 78 297 76 292 q 74 288 73 286 q 72 285 72 282 q 71 280 71 280 l 71 137 q 71 136 70 134 q 69 133 69 132 q 64 125 63 120 q 62 115 58 107 q 57 105 56 100 q 54 95 54 94 l 54 52 l 46 39 l 46 -9 q 46 -9 45 -10 q 44 -12 44 -13 q 43 -14 42 -16 q 40 -19 39 -20 q 39 -21 38 -22 q 37 -24 37 -24 q 35 -38 32 -45 q 28 -52 28 -68 q 28 -70 28 -74 q 29 -78 29 -79 l 50 -100 l 103 -100 q 103 -100 104 -100 q 106 -101 107 -102 q 109 -104 114 -108 q 120 -112 122 -114 l 126 -114 l 227 -13 q 237 -2 243 9 q 249 20 254 31 q 260 29 258 35 q 262 39 262 44 q 261 48 266 50 q 266 55 266 61 q 266 67 258 66 q 259 70 256 72 q 252 73 254 77 q 250 75 244 77 q 238 79 239 73 q 234 68 234 62 q 235 55 236 48 q 236 41 235 35 q 234 29 227 27 l 227 23 l 224 23 q 225 20 224 20 q 222 19 219 19 q 217 19 215 18 q 213 18 212 15 q 208 15 208 14 l 204 16 q 203 17 200 20 q 197 22 195 23 l 153 23 l 151 27 q 161 34 160 44 q 160 54 168 63 l 168 118 q 168 118 168 120 q 169 121 170 122 q 171 123 173 126 q 175 129 176 130 l 176 172 q 176 173 178 178 q 179 183 181 185 q 181 186 183 188 q 185 191 185 191 q 185 192 184 196 q 184 201 185 202 q 186 204 189 208 q 192 213 193 215 l 193 358 q 193 359 196 368 q 198 376 200 386 q 203 396 203 396 q 204 398 206 403 q 209 408 210 409 q 212 418 212 423 q 213 428 227 432 l 258 462 q 260 463 270 454 q 280 445 281 438 l 300 420 l 320 400 l 339 343 q 340 340 340 333 q 341 326 341 324 l 341 312 q 339 307 336 304 q 333 300 332 295 q 332 293 332 286 q 333 279 332 278 q 332 278 332 276 q 331 275 330 274 q 330 273 328 270 q 327 268 326 267 q 326 266 325 264 q 324 263 324 263 l 324 236 q 331 232 332 227 q 333 222 332 217 q 332 212 333 207 q 334 202 341 198 l 341 77 l 332 65 l 332 35 q 332 35 332 34 q 331 32 330 31 q 327 25 326 22 q 326 19 324 12 l 324 -104 l 351 -131 q 359 -134 363 -138 q 367 -143 375 -148 q 377 -150 382 -152 q 388 -153 392 -155 l 393 -155 l 394 -155 l 495 -53 q 494 -50 496 -48 q 497 -45 497 -42 l 497 -41 l 478 -22 l 477 -22 l 476 -22 q 475 -22 472 -25 q 468 -28 467 -28 q 467 -28 464 -28 q 462 -27 461 -26 q 458 -23 452 -18 q 446 -12 446 -11 l 446 90 q 446 94 450 99 q 453 104 455 107 l 455 143 q 455 143 456 144 q 456 146 457 147 q 458 148 460 151 q 462 154 463 155 l 463 284 q 463 289 460 292 q 456 296 455 301 l 455 312 q 455 315 456 322 q 456 330 458 339 q 459 348 460 356 q 461 364 461 367 q 461 373 464 376 q 468 379 470 385 q 472 390 470 392 q 468 395 472 399 l 508 437 q 508 438 509 440 q 510 441 510 441 q 511 443 515 448 q 519 454 520 456 q 533 443 546 425 q 559 407 574 400 q 574 400 578 396 q 581 391 584 386 q 588 380 591 376 q 594 371 594 371 l 594 276 q 592 274 589 270 q 586 265 586 261 l 586 212 q 586 212 585 210 q 584 209 583 208 q 583 208 582 206 q 580 203 579 202 q 577 195 577 183 q 577 171 577 166 q 574 163 572 157 q 569 151 569 147 l 569 67 q 569 62 564 58 q 560 55 560 50 l 560 -24 q 560 -24 560 -26 q 559 -27 558 -28 q 553 -36 554 -45 q 555 -54 550 -62 q 549 -62 548 -64 q 546 -67 546 -68 q 544 -73 544 -80 q 543 -86 543 -91 l 543 -102 q 555 -115 565 -122 q 575 -130 588 -142 z"},"#":{"x_min":0,"x_max":532,"ha":532,"o":"m 381 658 l 313 609 q 307 605 306 598 q 305 590 305 585 q 303 577 300 568 q 296 560 294 552 q 292 542 292 537 q 292 532 285 524 l 285 441 q 279 435 277 424 q 275 414 274 406 q 273 404 273 395 q 273 385 273 383 q 273 382 269 377 q 265 372 265 371 q 264 366 264 362 q 263 358 258 354 l 258 319 q 255 311 254 304 q 254 297 251 289 q 247 276 244 264 q 241 252 237 239 q 237 234 234 232 q 231 229 231 223 l 231 217 l 244 208 l 247 208 l 315 258 l 315 270 q 315 270 318 271 q 321 272 321 273 q 321 275 322 277 q 323 279 323 279 q 326 292 329 304 q 332 317 334 329 q 339 337 340 344 q 340 351 343 359 l 343 392 q 348 396 348 401 q 349 406 350 411 q 350 413 354 418 q 358 422 358 423 l 358 447 q 359 454 362 465 q 364 476 369 481 l 369 565 q 377 573 377 578 q 377 582 379 592 q 383 603 386 614 q 388 625 394 634 q 394 636 396 641 q 397 646 397 647 l 397 649 l 397 650 l 385 658 z m 231 663 l 163 614 q 161 606 150 598 q 139 589 134 581 q 130 576 126 572 q 122 567 116 562 l 116 419 q 110 408 110 400 q 110 392 108 382 q 108 381 106 378 q 104 374 104 374 q 103 373 103 370 q 103 367 103 367 q 101 351 100 337 q 99 323 95 308 q 95 307 92 303 q 90 299 90 297 q 87 296 86 291 q 86 286 86 285 q 86 284 84 282 q 83 280 83 280 q 81 277 82 274 q 82 271 82 266 l 82 259 l 95 251 l 97 251 l 166 300 q 166 302 166 308 q 167 315 167 317 q 167 318 170 320 q 173 323 173 324 l 173 339 q 177 347 180 356 q 184 365 185 375 q 185 376 186 380 q 186 385 186 390 q 187 396 188 400 q 188 405 188 406 q 188 407 189 409 q 190 411 190 413 q 194 424 194 436 q 194 448 200 459 l 200 599 q 207 604 210 610 q 213 616 220 622 q 220 623 228 628 q 236 633 236 634 q 241 639 247 644 q 253 648 253 653 l 253 654 l 239 663 z m 24 301 l 32 290 l 33 290 l 35 290 q 36 290 41 292 q 46 293 48 293 q 57 298 68 300 q 79 303 90 307 q 100 309 104 309 q 109 309 117 316 l 201 316 q 206 321 217 324 q 228 326 235 327 l 259 327 q 260 327 264 330 q 269 334 271 334 q 276 335 281 336 q 286 336 290 341 l 323 341 q 331 344 338 344 q 345 345 353 349 q 365 351 378 354 q 390 357 403 360 q 403 360 405 361 q 407 362 409 362 q 410 362 411 364 q 412 367 412 367 l 424 367 l 474 431 l 474 434 l 465 446 l 459 446 q 453 446 450 444 q 448 441 443 441 q 430 437 418 434 q 406 431 393 427 q 385 425 378 424 q 371 424 363 421 l 328 421 q 324 416 320 416 q 316 415 311 414 q 310 414 305 410 q 300 407 299 407 q 297 407 287 407 q 278 407 276 406 q 268 405 258 403 q 247 401 241 395 l 158 395 q 150 389 145 389 q 140 389 130 387 q 122 385 114 382 q 105 378 97 376 q 92 376 84 375 q 77 374 73 369 l 24 305 z m 19 438 l 28 425 l 29 425 q 34 425 38 430 q 43 436 48 441 q 49 441 54 448 q 59 456 60 456 q 66 463 72 466 q 78 468 83 475 l 223 475 q 234 481 246 481 q 258 481 269 485 q 271 485 273 486 q 275 486 276 486 q 277 486 282 486 q 286 487 292 488 q 297 488 302 488 q 306 489 307 489 q 317 490 326 494 q 335 497 343 501 l 358 501 q 359 501 362 504 q 364 506 365 506 q 367 506 374 506 q 380 507 382 507 l 431 572 l 431 574 l 423 586 l 416 586 q 411 586 408 586 q 405 587 402 585 q 402 585 400 584 q 398 582 397 582 q 396 582 391 582 q 386 581 385 579 q 383 579 379 576 q 375 574 374 574 q 359 570 345 569 q 331 568 315 566 q 315 566 312 566 q 309 566 308 565 q 308 565 304 564 q 301 562 300 562 q 290 560 282 560 q 274 560 263 554 l 120 554 q 115 548 110 544 q 106 541 101 537 q 93 532 84 522 q 76 512 68 510 l 19 446 z"},",":{"x_min":0,"x_max":222,"ha":222,"o":"m 8 -156 l 19 -166 l 20 -166 q 22 -166 23 -164 q 27 -162 34 -156 q 41 -151 41 -151 l 109 -83 q 111 -78 114 -74 q 118 -69 122 -64 q 130 -52 139 -36 q 148 -21 152 -7 q 154 1 156 8 q 157 16 162 24 l 162 109 l 154 119 l 151 119 q 140 119 130 112 q 121 105 110 104 l 59 53 l 59 50 l 69 41 l 72 41 q 80 41 86 45 q 92 49 99 49 l 99 -13 q 95 -17 95 -21 q 95 -26 91 -31 q 91 -40 87 -50 q 83 -61 78 -72 q 73 -83 67 -92 q 61 -101 55 -107 z"},"n":{"x_min":0,"x_max":420,"ha":420,"o":"m 292 -373 q 300 -371 310 -378 q 319 -384 326 -387 q 343 -395 366 -389 q 388 -383 404 -375 q 410 -372 415 -368 q 420 -363 427 -360 l 512 -267 q 520 -260 524 -252 q 529 -243 534 -233 l 534 -232 l 518 -214 l 472 -261 q 471 -263 466 -265 q 461 -267 455 -270 q 449 -272 444 -274 q 438 -276 436 -277 l 422 -277 q 405 -277 396 -272 q 388 -268 374 -261 q 369 -259 366 -258 q 362 -258 362 -250 q 362 -246 363 -244 q 365 -242 371 -234 q 377 -227 379 -225 q 379 -224 380 -222 q 380 -221 380 -221 q 380 -216 376 -213 q 373 -210 372 -206 q 371 -197 371 -190 q 371 -184 367 -179 q 367 -178 366 -176 q 365 -175 365 -175 l 365 -107 q 365 -103 362 -99 q 360 -95 358 -93 l 358 23 q 358 27 360 32 q 363 38 365 41 l 365 275 l 372 286 l 372 301 q 372 306 372 316 q 373 325 371 333 q 363 349 352 358 q 340 366 327 372 q 314 379 302 387 q 289 395 280 410 q 280 412 280 417 q 280 423 278 425 l 262 443 l 256 443 q 252 443 247 443 q 243 443 240 441 q 237 440 234 437 q 231 434 227 435 l 147 350 q 147 352 146 356 q 145 360 146 361 q 147 363 150 366 q 152 370 152 371 l 152 410 l 172 432 l 154 451 l 110 451 q 105 448 100 448 q 95 449 89 445 q 89 445 88 444 q 87 443 86 443 l 0 349 l 17 331 l 17 330 q 22 330 24 332 q 26 335 30 337 l 37 337 q 38 337 41 338 q 44 339 45 339 q 45 339 46 338 q 47 337 48 337 l 50 335 l 50 300 l 43 290 l 43 124 l 37 112 q 37 111 36 108 q 36 106 36 106 l 36 21 q 36 16 33 13 q 30 10 30 6 l 30 -138 q 29 -140 27 -144 q 25 -147 24 -148 q 24 -150 23 -152 q 22 -154 22 -155 l 22 -193 q 22 -193 22 -194 q 21 -196 20 -197 q 19 -199 18 -202 q 16 -204 15 -206 l 15 -235 q 15 -237 22 -244 q 28 -251 32 -254 q 33 -256 36 -257 q 40 -258 42 -258 l 93 -258 q 93 -258 94 -258 q 96 -258 97 -259 q 98 -259 100 -261 q 102 -263 102 -263 l 103 -263 l 111 -259 q 139 -234 156 -220 q 174 -207 184 -200 q 193 -192 197 -188 q 201 -185 202 -180 q 204 -175 206 -166 q 207 -157 212 -139 q 205 -129 198 -124 q 192 -119 181 -119 q 177 -121 171 -119 q 165 -117 166 -123 q 163 -132 167 -138 q 171 -144 176 -150 q 180 -155 181 -160 q 182 -165 173 -173 l 173 -177 q 167 -179 163 -176 l 111 -176 q 109 -176 108 -172 q 108 -169 108 -168 q 108 -163 110 -160 q 112 -158 117 -153 l 125 -84 q 125 -81 127 -77 q 127 -76 129 -72 q 131 -68 132 -66 l 132 78 l 138 87 l 138 178 q 138 178 139 180 q 140 182 141 183 q 141 185 143 190 q 145 194 146 195 l 146 298 q 148 299 152 302 q 155 304 157 306 q 158 307 160 310 q 163 312 166 315 q 169 318 172 320 q 175 323 176 324 l 216 343 q 219 341 227 336 q 235 332 244 326 q 252 321 258 316 q 265 310 265 307 l 265 284 q 265 279 261 276 q 257 272 257 267 l 262 -31 q 260 -34 258 -40 q 255 -45 255 -49 l 255 -179 q 256 -181 259 -184 q 262 -187 262 -191 l 262 -259 q 270 -272 270 -286 l 270 -298 q 264 -303 260 -314 q 255 -324 255 -330 l 255 -331 z"},"h":{"x_min":0,"x_max":497,"ha":497,"o":"m 131 -1000 q 131 -1000 135 -992 q 139 -985 142 -978 q 145 -972 146 -971 q 172 -944 190 -925 q 207 -906 230 -882 q 254 -859 291 -824 q 328 -790 392 -730 q 393 -719 400 -710 q 406 -700 411 -692 q 416 -684 418 -673 q 419 -662 425 -658 l 425 -616 l 431 -609 l 431 -576 l 438 -569 l 438 -546 l 444 -540 l 444 -422 l 450 -415 l 450 -373 l 456 -367 q 455 -358 456 -342 q 457 -327 462 -316 l 462 -46 q 462 -41 457 -35 q 452 -29 450 -27 l 450 19 q 450 21 448 26 q 447 30 445 32 q 443 34 436 42 q 430 49 428 51 l 441 66 l 441 68 l 441 70 q 440 72 440 74 q 439 76 439 76 l 380 140 l 377 144 l 353 169 l 353 176 q 353 176 344 184 q 336 192 331 197 q 328 199 326 200 q 325 200 323 205 l 287 241 l 276 241 l 191 157 l 191 150 l 156 116 l 156 180 l 161 190 l 161 309 q 161 311 164 315 q 166 319 168 321 l 168 414 q 175 419 174 426 q 174 434 181 439 l 181 520 q 181 527 179 526 q 177 525 175 532 q 174 534 174 542 q 173 551 173 553 q 171 558 166 564 q 160 571 160 575 l 160 576 q 161 578 162 582 q 164 587 164 587 l 190 615 l 173 631 q 173 632 171 632 q 169 632 168 632 q 163 632 161 631 q 159 630 154 625 l 84 556 l 74 556 l -17 465 l 0 448 l 2 448 q 5 448 14 452 q 23 455 33 460 q 43 465 52 470 q 60 474 63 477 l 67 473 q 67 467 68 458 q 69 450 76 446 l 76 380 q 68 374 68 363 q 68 352 62 344 l 62 256 q 59 254 58 248 q 56 241 56 239 l 56 121 l 50 112 l 50 -291 l 55 -297 l 55 -322 l 12 -367 q 11 -370 14 -374 q 17 -379 20 -384 q 24 -388 28 -392 q 31 -396 31 -400 l 50 -400 q 54 -400 52 -400 q 49 -401 48 -400 q 46 -400 50 -397 q 55 -394 74 -386 l 76 -386 q 79 -386 87 -390 q 95 -394 104 -400 q 113 -405 120 -410 q 128 -416 131 -419 l 179 -419 l 274 -320 l 258 -300 l 220 -335 q 219 -333 210 -335 q 202 -337 200 -335 q 200 -335 195 -332 q 190 -329 185 -326 q 180 -322 175 -319 q 170 -316 170 -316 q 165 -315 164 -309 q 162 -303 162 -296 q 161 -290 160 -285 q 158 -280 152 -280 l 152 -279 l 152 -278 q 153 -276 156 -272 q 159 -269 160 -268 l 160 -225 l 156 -217 l 156 22 l 185 69 q 186 77 192 83 q 197 89 203 94 q 209 99 214 105 q 220 111 221 119 q 229 112 235 104 q 241 96 251 91 q 251 91 252 90 q 253 90 253 89 q 261 77 268 69 q 275 61 287 49 q 287 45 289 45 q 291 43 296 38 q 300 32 302 30 q 304 27 310 21 q 317 15 324 8 q 331 1 337 -6 q 343 -12 346 -14 l 333 -29 l 333 -31 q 333 -37 339 -40 q 345 -44 345 -50 l 345 -99 l 356 -116 l 356 -386 q 351 -396 350 -410 q 350 -423 350 -432 l 345 -443 l 345 -481 q 343 -482 340 -486 q 338 -489 338 -491 l 338 -605 q 331 -612 332 -622 q 334 -632 326 -637 l 326 -675 q 321 -678 321 -685 q 320 -689 320 -702 q 319 -715 318 -719 q 311 -725 310 -737 q 309 -749 306 -757 q 305 -758 302 -762 q 300 -765 299 -766 q 299 -767 298 -770 q 296 -774 295 -776 l 257 -813 l 251 -813 q 251 -813 241 -823 q 231 -833 218 -846 q 204 -860 190 -874 q 175 -889 166 -898 q 161 -903 152 -915 q 143 -927 133 -940 q 123 -954 116 -967 q 109 -980 109 -987 z"},"z":{"x_min":0,"x_max":520,"ha":520,"o":"m 516 -331 q 518 -333 524 -338 q 531 -344 533 -346 q 538 -349 542 -349 q 547 -349 552 -352 q 554 -353 559 -358 q 564 -362 565 -362 q 570 -365 574 -364 q 577 -364 582 -365 q 587 -365 590 -369 q 594 -373 599 -373 l 677 -373 q 685 -365 689 -366 q 693 -368 702 -365 q 704 -364 708 -360 q 713 -357 715 -356 q 720 -353 728 -350 q 737 -346 742 -341 l 860 -223 q 863 -214 868 -206 q 873 -197 878 -188 q 883 -180 886 -171 q 890 -162 890 -151 l 890 -145 l 848 -200 l 821 -216 q 822 -221 813 -226 q 804 -231 792 -235 q 780 -239 768 -242 q 757 -246 753 -249 q 752 -249 750 -250 q 749 -251 749 -251 l 685 -251 q 680 -241 674 -242 q 667 -243 658 -242 q 651 -241 641 -234 q 631 -228 626 -223 q 624 -221 618 -216 q 611 -210 609 -208 q 607 -209 601 -208 q 595 -208 592 -206 l 552 -168 l 548 -158 l 510 -118 q 508 -110 500 -102 q 493 -94 489 -90 l 462 -63 q 450 -58 440 -54 q 431 -49 421 -40 l 417 -40 l 381 -6 q 368 -8 360 -2 q 353 4 343 13 l 339 13 l 305 45 q 297 43 287 49 q 277 55 272 53 l 253 70 q 252 70 248 72 q 243 74 238 77 q 232 80 227 83 q 222 86 221 87 l 153 87 l 153 89 q 155 91 160 97 q 166 103 172 109 q 178 115 184 121 q 189 127 191 129 q 198 137 206 148 q 213 159 225 159 l 261 159 l 320 219 l 300 239 l 290 239 q 290 245 300 259 q 309 273 322 288 q 334 304 346 317 q 357 330 360 334 q 364 338 374 350 q 385 361 397 373 q 409 385 420 396 q 430 407 434 412 q 432 419 437 425 q 442 431 445 437 l 478 475 l 478 479 l 503 506 l 483 526 q 476 523 473 528 q 470 534 465 534 l 464 534 q 451 526 437 520 q 423 515 409 509 l 379 509 q 370 508 365 504 q 360 500 350 500 q 339 500 331 506 q 323 513 312 511 q 310 513 302 520 q 293 526 291 528 q 289 530 285 532 q 281 534 279 534 l 278 534 q 277 534 273 530 q 269 527 267 526 q 267 526 266 526 q 266 527 265 527 l 265 530 l 245 550 l 143 448 q 142 447 140 440 q 138 434 137 431 q 132 416 125 402 q 118 389 109 376 l 109 375 l 109 374 l 128 355 q 129 357 136 367 q 144 377 153 388 q 162 400 162 400 l 181 424 l 196 410 l 204 406 q 206 404 214 398 q 223 391 225 389 q 241 390 255 378 l 282 378 q 285 381 292 384 q 298 387 301 387 l 337 387 l 343 391 q 341 389 340 386 q 338 383 339 380 q 338 378 334 374 q 331 370 328 366 q 324 361 320 356 q 317 352 316 351 q 315 350 314 347 q 312 344 312 342 q 310 340 298 328 q 285 315 270 300 q 256 286 244 274 q 231 261 229 258 q 224 253 220 244 q 216 235 208 233 q 203 236 199 238 q 195 240 190 240 q 189 240 188 240 q 187 239 186 239 l 127 179 l 145 159 l 126 138 l 126 127 q 115 116 107 102 q 99 88 88 76 q 86 73 80 66 q 73 60 66 53 q 59 46 53 40 q 47 33 44 30 q 41 25 42 19 l 9 -15 l 29 -35 l 134 -35 q 138 -38 142 -40 q 147 -42 151 -44 l 179 -67 q 180 -68 186 -70 q 192 -72 198 -74 q 205 -75 211 -76 q 217 -78 219 -78 l 253 -109 l 257 -109 q 259 -111 268 -118 q 276 -124 278 -126 q 283 -130 286 -130 q 289 -130 297 -135 q 301 -135 301 -137 q 305 -140 316 -150 q 327 -159 331 -162 q 337 -167 344 -172 q 352 -177 360 -179 l 364 -179 q 368 -181 370 -186 q 372 -190 371 -194 q 374 -196 380 -202 q 387 -209 394 -216 q 401 -224 408 -230 q 414 -237 417 -240 q 419 -242 426 -249 q 432 -256 430 -261 q 443 -275 460 -291 q 478 -307 491 -318 q 496 -322 502 -328 q 509 -333 516 -331 z"},"B":{"x_min":0,"x_max":667,"ha":667,"o":"m 252 -226 l 255 -229 q 257 -230 258 -232 q 260 -233 260 -233 l 378 -233 q 380 -233 384 -231 q 389 -229 392 -226 l 428 -226 q 428 -226 430 -225 q 433 -224 433 -223 q 434 -222 440 -217 q 445 -212 446 -212 q 448 -211 455 -210 q 462 -210 464 -210 q 465 -210 466 -209 q 468 -208 469 -208 q 481 -200 493 -189 q 505 -178 519 -176 l 592 -93 q 593 -88 596 -84 q 598 -80 600 -75 l 626 -42 q 626 -33 628 -26 q 629 -19 631 -13 q 633 -7 634 0 q 636 6 635 15 l 639 22 q 640 30 640 39 q 641 48 647 56 l 647 261 q 647 262 646 266 q 645 271 644 273 q 644 274 643 276 q 642 277 642 277 q 641 279 640 289 q 640 299 639 301 q 639 303 638 306 q 636 310 634 311 l 634 352 q 634 353 632 357 q 631 361 630 364 q 630 365 629 366 q 628 368 628 368 q 626 388 620 404 q 615 421 612 440 l 612 446 q 607 457 600 473 q 592 489 584 500 q 576 510 568 518 q 560 525 553 535 l 579 566 q 579 588 592 605 l 592 651 q 592 659 590 658 q 588 656 587 664 q 585 674 583 689 q 581 704 574 713 q 568 722 562 732 q 555 743 548 754 q 540 764 532 772 q 523 780 513 783 q 512 784 509 784 q 501 791 494 796 q 486 802 478 808 q 468 813 457 817 q 446 821 438 829 q 436 829 428 830 q 421 830 419 831 q 417 831 414 834 q 411 837 411 837 l 257 837 q 254 837 250 834 q 247 832 245 830 l 204 830 q 196 830 190 824 q 184 817 176 815 q 173 815 165 814 q 157 813 155 813 l 132 789 l 127 789 l 109 769 l 103 769 l 5 656 q 3 654 3 647 q 3 640 3 639 q 3 633 6 624 q 10 616 15 608 q 20 601 26 596 q 33 590 39 590 q 39 590 45 590 q 51 589 53 589 q 55 589 60 590 q 64 590 64 590 l 134 672 l 119 688 l 85 647 q 84 646 82 650 q 79 653 76 658 q 73 663 71 668 q 69 673 69 674 q 69 675 74 684 q 79 693 84 700 q 88 708 89 709 q 90 711 92 714 q 95 717 96 717 l 122 717 q 124 719 134 724 q 144 730 146 730 l 196 730 l 204 738 l 260 738 l 192 659 l 189 647 l 189 205 q 188 204 186 202 q 185 199 185 198 q 184 196 182 194 q 181 192 181 192 l 181 38 l 155 6 l 155 -3 q 155 -4 160 -10 q 164 -15 166 -17 q 168 -19 171 -19 q 175 -19 177 -19 q 182 -19 184 -16 q 187 -13 191 -13 l 224 -13 q 230 -19 239 -19 l 242 -19 l 313 61 l 304 75 l 304 76 q 304 79 306 85 q 309 91 309 100 q 309 101 308 106 q 308 110 308 112 q 304 118 304 124 l 304 628 q 310 633 310 640 q 309 646 312 653 q 313 655 314 660 q 316 666 316 666 l 316 738 l 346 738 q 351 730 361 730 q 371 731 378 729 q 387 727 400 718 q 412 710 421 705 q 425 703 430 702 q 434 702 437 700 q 438 699 442 694 q 445 690 446 689 q 447 688 451 687 q 455 686 456 686 q 457 685 458 684 q 460 684 460 684 q 468 675 473 666 q 478 656 486 645 q 486 644 489 640 q 492 636 492 635 q 495 627 493 622 q 491 618 499 614 l 499 590 l 506 582 l 506 562 q 504 562 500 562 q 495 561 493 560 l 487 555 q 486 554 480 554 q 473 553 472 553 q 472 552 470 550 q 467 549 466 548 q 465 548 464 547 q 463 546 462 546 q 460 546 448 545 q 437 544 433 544 l 426 538 l 406 538 l 335 455 l 345 441 l 333 424 l 362 331 l 385 339 q 376 374 376 392 q 375 409 380 418 q 384 426 392 429 q 399 432 406 438 l 486 438 q 494 429 500 424 q 506 419 512 406 q 516 400 522 388 q 527 375 527 374 l 527 352 q 531 349 534 342 q 536 335 538 327 q 539 319 540 311 q 541 303 541 299 q 542 298 545 294 q 548 289 548 287 l 548 241 l 555 233 l 555 207 q 561 203 561 196 l 561 -5 q 556 -15 556 -26 q 555 -37 548 -46 l 548 -71 q 546 -72 544 -75 q 542 -78 541 -79 q 541 -81 540 -88 q 540 -94 539 -95 q 539 -96 535 -98 q 531 -101 529 -102 q 529 -103 526 -106 q 522 -109 521 -110 q 511 -109 500 -113 q 488 -117 481 -126 l 445 -126 q 443 -128 440 -131 q 437 -134 434 -134 l 324 -134 q 321 -129 316 -128 q 312 -128 308 -127 q 305 -127 297 -127 q 289 -127 280 -126 q 271 -126 263 -126 q 255 -126 252 -126 q 241 -118 222 -115 q 204 -112 192 -110 q 186 -109 180 -104 q 173 -98 165 -96 q 160 -96 156 -96 q 151 -95 147 -91 l 116 -57 q 116 -56 115 -52 q 114 -49 114 -48 q 112 -45 104 -32 q 97 -18 89 6 l 85 100 l 100 135 l 160 158 l 147 171 l 146 172 q 145 172 140 169 q 135 166 130 162 q 124 159 119 155 q 114 151 114 150 l 85 150 l 17 70 q 17 69 16 68 q 15 66 15 66 q 14 64 10 58 q 5 52 3 50 l 3 -61 q 10 -69 9 -78 q 8 -87 13 -95 q 18 -101 25 -112 q 32 -122 34 -134 l 66 -169 q 76 -172 81 -182 q 86 -191 94 -194 q 105 -197 114 -199 q 123 -201 132 -210 q 136 -210 144 -210 q 153 -211 157 -212 q 161 -212 162 -213 q 163 -213 164 -215 q 166 -217 166 -217 q 174 -219 180 -219 q 186 -219 191 -226 z"},"K":{"x_min":0,"x_max":636,"ha":636,"o":"m 836 -570 q 835 -564 840 -562 q 845 -560 851 -560 q 857 -559 863 -558 q 869 -558 871 -555 q 916 -548 951 -533 q 986 -518 1014 -496 q 1041 -474 1064 -444 q 1086 -413 1106 -374 q 1110 -364 1110 -354 q 1111 -345 1110 -336 q 1108 -326 1106 -316 q 1105 -307 1106 -297 q 1108 -302 1104 -304 q 1100 -305 1098 -308 q 1093 -306 1090 -312 q 1088 -318 1083 -316 q 1068 -333 1052 -346 q 1035 -359 1021 -370 q 1024 -370 1026 -374 q 1028 -379 1029 -385 q 1030 -391 1032 -396 q 1034 -400 1037 -400 q 1037 -402 1034 -406 q 1031 -409 1028 -412 q 1026 -416 1024 -418 q 1023 -420 1025 -420 q 1002 -450 974 -464 q 945 -477 913 -481 q 881 -485 846 -484 q 811 -484 774 -485 q 760 -474 748 -470 q 736 -465 725 -454 q 712 -445 702 -441 q 691 -437 679 -426 l 664 -407 q 655 -405 648 -398 q 642 -390 636 -380 q 631 -371 626 -362 q 621 -353 615 -347 q 612 -339 614 -334 q 616 -329 608 -325 q 608 -313 608 -308 q 607 -303 606 -298 q 605 -294 603 -286 q 601 -277 598 -259 q 598 -258 596 -255 q 594 -252 592 -251 l 592 -138 q 592 -136 590 -131 q 589 -126 587 -124 l 587 -70 q 587 -68 584 -65 q 582 -62 581 -61 l 581 -29 q 580 -27 578 -26 q 577 -24 576 -22 q 576 -20 576 -12 q 575 -5 575 -3 q 574 -1 572 2 q 571 4 571 5 l 569 27 q 562 31 564 40 q 565 50 559 57 q 560 69 557 81 q 554 93 550 104 q 546 116 543 127 q 540 138 542 150 q 536 156 530 163 q 525 170 517 182 q 509 193 498 210 q 487 227 470 254 q 462 256 460 261 l 442 261 q 440 264 435 268 q 430 271 427 273 q 426 273 420 273 q 415 273 415 274 q 414 275 410 280 q 406 285 405 286 q 400 288 397 288 q 394 288 390 292 l 350 292 q 349 292 346 290 q 343 289 341 288 q 340 288 339 288 q 338 287 338 287 q 344 294 344 300 q 343 307 348 314 l 366 336 q 367 341 370 346 q 374 352 377 354 q 377 355 378 359 q 378 363 378 363 q 381 370 388 380 q 394 390 399 395 q 401 400 402 408 q 403 417 406 422 q 407 424 412 431 q 418 438 420 440 q 421 448 426 453 q 432 458 432 467 l 454 492 q 457 492 470 503 q 483 514 498 527 q 513 540 526 551 q 540 562 543 563 q 548 564 554 568 q 559 572 564 576 q 570 581 576 584 q 581 587 586 586 q 617 599 646 606 q 676 613 709 620 q 720 618 730 624 q 740 631 751 628 q 799 641 852 646 q 904 652 957 656 q 1010 661 1062 668 q 1115 676 1163 692 q 1211 708 1252 737 q 1294 766 1326 813 q 1325 819 1327 824 q 1329 829 1331 834 q 1333 838 1334 844 q 1335 849 1333 855 q 1330 880 1328 892 q 1326 904 1323 908 q 1320 911 1314 908 q 1309 905 1300 900 q 1298 897 1290 892 q 1282 887 1272 882 q 1263 876 1254 871 q 1246 866 1245 863 q 1252 863 1257 858 q 1262 854 1268 852 q 1266 847 1268 840 q 1270 832 1264 832 l 1264 829 q 1243 809 1224 796 q 1206 784 1187 774 q 1168 765 1147 758 q 1126 750 1100 740 q 1025 733 979 728 q 933 723 902 720 q 872 716 849 712 q 826 709 798 705 l 800 700 q 743 688 698 678 q 652 667 612 652 q 572 636 534 612 q 497 587 455 545 q 454 545 452 544 q 449 542 447 542 l 392 475 l 390 469 l 357 429 l 357 422 q 340 403 330 378 q 320 352 304 332 q 305 323 298 318 q 292 314 292 305 q 290 303 286 297 q 281 291 276 284 q 270 278 265 272 q 260 265 258 263 q 253 257 252 254 q 250 250 243 242 q 241 241 234 241 q 228 241 226 240 q 219 240 217 238 q 210 236 202 226 q 193 215 185 215 l 184 215 q 187 226 195 234 q 203 243 204 254 l 244 304 q 246 306 248 310 q 249 313 251 315 l 267 338 q 276 359 286 378 q 297 398 311 415 q 311 417 312 420 q 313 423 314 424 l 314 426 l 314 428 l 304 440 l 303 440 q 294 440 286 436 q 277 433 268 428 q 260 423 252 418 q 244 413 237 410 q 232 408 228 406 q 225 405 223 405 l 220 405 l 240 431 q 240 432 242 437 q 245 442 245 444 q 250 452 254 466 q 259 479 261 491 q 261 492 262 496 q 262 499 263 499 q 266 511 268 518 q 270 525 274 539 l 274 545 q 277 550 280 554 q 283 557 285 561 q 294 581 299 600 q 306 613 307 628 q 308 642 317 653 q 317 661 318 668 q 318 676 323 681 l 323 699 l 313 711 l 311 711 q 306 711 301 707 q 296 703 290 698 q 285 693 279 688 q 273 684 267 684 q 260 683 256 685 q 253 687 250 690 q 247 693 244 697 q 241 701 237 704 q 229 708 225 706 q 221 703 217 711 l 185 711 q 183 711 180 714 q 178 716 178 718 l 119 725 q 119 725 116 724 q 114 722 112 721 q 102 711 80 704 q 59 698 44 690 q 39 685 34 678 q 29 672 22 670 l -38 598 q -39 598 -40 595 q -41 592 -42 590 q -44 587 -46 581 q -48 575 -48 575 l -48 534 q -48 527 -43 522 q -38 516 -36 510 l 1 469 l 4 469 l 60 534 l 32 569 q 30 574 27 579 q 24 584 21 589 l 21 619 l 22 620 q 30 625 36 628 q 41 632 51 631 q 52 633 62 638 q 72 642 75 642 l 130 636 q 132 634 135 632 q 138 631 140 631 q 143 630 154 629 q 164 628 166 629 q 173 622 180 622 q 186 623 192 613 l 192 612 l 192 611 q 190 607 186 602 q 182 598 182 593 l 182 548 l 177 544 l 177 483 l 172 475 l 172 453 q 170 452 168 449 q 165 446 165 444 l 165 408 q 160 401 158 393 q 157 385 154 376 q 151 364 141 355 q 131 346 131 332 l 131 329 q 136 320 142 318 q 147 317 155 317 q 159 317 161 319 q 163 321 166 322 q 168 322 174 323 q 179 324 181 324 q 185 327 193 327 l 195 327 q 193 323 192 318 q 190 312 188 307 q 186 306 184 304 q 183 302 182 301 q 182 300 182 294 q 182 288 181 287 q 179 280 174 274 q 168 269 164 262 q 164 261 164 259 q 163 257 163 257 q 161 255 157 249 q 153 243 151 242 q 149 228 140 212 q 131 197 123 188 q 122 183 120 179 q 118 175 117 168 l 104 150 q 104 150 104 149 q 103 148 103 146 l 103 144 l 103 142 l 115 128 q 115 128 116 128 q 118 127 120 127 q 123 127 129 129 q 135 131 142 134 q 148 137 154 140 q 159 143 161 146 l 178 146 q 174 141 173 136 q 172 131 170 125 q 168 120 166 114 q 163 107 161 103 q 160 101 159 94 q 158 86 159 84 l 155 77 l 155 56 q 146 47 144 34 q 144 32 144 23 q 144 15 143 13 q 142 11 138 3 q 135 -5 135 -6 q 133 -12 134 -18 q 134 -24 132 -31 q 131 -36 128 -39 q 126 -42 125 -46 q 123 -49 122 -55 q 121 -61 121 -62 q 119 -73 110 -88 q 101 -103 101 -112 l 101 -114 q 104 -119 108 -124 q 111 -128 116 -128 l 117 -128 q 125 -124 133 -118 q 141 -112 149 -107 q 149 -107 154 -103 q 158 -99 159 -98 q 162 -95 163 -96 q 164 -97 169 -97 q 169 -99 170 -101 q 171 -103 170 -105 q 168 -109 164 -120 q 160 -131 160 -136 l 160 -169 q 154 -174 154 -183 q 154 -193 149 -200 l 149 -253 q 147 -256 146 -264 q 145 -271 144 -278 q 143 -286 140 -290 q 138 -295 134 -293 q 132 -295 128 -300 q 123 -305 121 -307 q 118 -311 112 -310 q 107 -309 104 -312 q 102 -314 97 -318 q 92 -322 90 -324 l 66 -324 l 10 -392 l 21 -405 l 48 -405 l 62 -392 l 90 -389 l 103 -377 q 107 -379 113 -383 q 119 -387 117 -395 l 129 -409 l 158 -374 l 240 -374 l 297 -305 l 287 -292 l 195 -292 q 197 -276 202 -261 q 207 -246 212 -232 q 212 -232 212 -230 q 213 -227 213 -226 l 231 -203 q 231 -203 232 -199 q 234 -195 234 -193 q 236 -182 240 -170 q 243 -158 244 -147 q 245 -145 245 -137 q 245 -129 245 -126 q 249 -121 250 -115 q 251 -109 252 -104 q 253 -98 255 -92 q 257 -87 262 -82 l 262 -58 q 267 -51 274 -35 q 281 -19 283 -8 q 284 -7 284 -4 q 285 -2 285 -1 q 289 5 294 12 q 299 20 299 28 l 299 29 l 290 40 q 282 40 279 44 l 271 44 q 269 44 265 44 q 262 44 260 42 l 212 -14 q 206 -14 195 -23 q 201 -18 206 -10 q 211 -3 210 7 l 228 31 q 228 33 229 42 q 230 51 230 54 q 231 68 235 76 q 239 83 244 94 q 245 95 246 99 q 247 103 248 103 q 249 105 252 108 q 255 112 256 114 l 256 142 q 263 151 266 162 q 270 172 274 183 l 274 184 l 295 184 q 302 179 309 180 q 316 180 325 179 q 331 172 338 171 q 346 170 352 165 l 363 154 q 364 153 366 152 q 368 152 368 151 q 369 151 370 150 q 372 149 374 148 q 379 143 386 136 q 392 128 392 128 l 392 119 q 396 115 404 106 q 411 98 413 93 q 413 92 414 89 q 414 86 414 85 q 415 84 416 80 q 417 77 418 75 q 419 75 422 72 q 424 68 424 67 q 424 65 424 60 q 425 56 426 56 q 426 55 428 52 q 429 49 429 49 q 433 41 434 33 q 436 25 441 17 q 442 16 446 10 q 450 5 452 3 l 452 -34 l 457 -45 l 457 -165 q 458 -166 460 -170 q 462 -173 462 -175 l 462 -247 q 463 -248 466 -252 q 468 -256 468 -258 l 468 -300 q 473 -304 473 -309 q 473 -315 475 -321 q 488 -347 500 -376 q 513 -405 533 -427 q 532 -434 537 -440 q 542 -445 550 -450 q 557 -454 565 -457 q 573 -460 576 -463 q 584 -468 590 -474 q 595 -480 604 -482 l 621 -500 q 632 -502 640 -512 q 647 -523 658 -526 q 659 -526 661 -526 q 663 -527 664 -527 q 672 -532 687 -540 q 702 -549 707 -554 q 709 -555 714 -559 q 718 -563 719 -564 q 725 -565 731 -564 q 737 -563 743 -562 q 749 -562 754 -563 q 759 -564 763 -570 l 794 -579 z"},"R":{"x_min":0,"x_max":662,"ha":662,"o":"m 745 -496 q 761 -496 775 -501 q 789 -506 803 -513 q 805 -514 809 -515 q 813 -516 813 -516 l 927 -516 q 935 -508 946 -505 q 958 -502 968 -503 q 978 -494 983 -494 q 988 -493 999 -489 q 1004 -488 1016 -484 q 1029 -479 1033 -477 q 1050 -461 1068 -451 l 1135 -384 l 1135 -380 l 1124 -368 l 1122 -368 q 1117 -368 1112 -372 q 1107 -376 1103 -378 q 1101 -380 1093 -387 q 1085 -394 1083 -395 q 1081 -397 1070 -400 q 1060 -404 1055 -405 q 1050 -407 1045 -407 q 1041 -407 1036 -409 q 1035 -410 1028 -414 q 1021 -418 1020 -419 q 1018 -419 1012 -420 q 1006 -420 1005 -420 q 1001 -422 998 -422 l 1011 -407 l 998 -394 q 998 -394 998 -394 q 997 -393 996 -393 q 993 -393 990 -395 q 988 -397 986 -399 l 936 -399 q 932 -399 926 -394 q 919 -388 917 -386 l 864 -386 q 856 -380 848 -379 q 840 -378 832 -373 l 807 -373 l 800 -366 l 776 -366 q 774 -362 768 -356 q 761 -350 755 -352 l 716 -313 q 712 -314 708 -310 q 705 -306 702 -301 q 699 -296 696 -290 q 694 -285 693 -283 q 692 -281 688 -276 q 683 -271 683 -269 q 681 -265 680 -261 q 680 -257 677 -253 q 675 -250 672 -246 q 670 -242 669 -239 q 667 -234 668 -231 q 668 -228 666 -223 q 664 -218 660 -214 q 657 -210 656 -206 q 655 -204 654 -198 q 654 -192 652 -189 q 651 -188 647 -182 q 643 -177 642 -176 q 640 -170 640 -165 q 640 -161 636 -157 q 636 -154 636 -148 q 635 -142 634 -134 q 634 -127 634 -121 q 634 -115 634 -112 q 634 -101 628 -97 l 628 -35 q 628 -32 622 -22 q 616 -11 615 -6 q 613 7 610 19 q 607 31 605 44 l 602 49 q 602 52 602 62 q 601 73 600 76 q 599 81 596 92 q 593 103 588 106 l 588 133 q 586 135 581 140 q 576 146 575 150 q 575 151 574 157 q 574 163 574 165 q 573 166 570 170 q 566 174 565 175 q 560 182 559 190 q 558 199 552 207 q 551 208 546 212 q 542 217 542 219 q 541 219 540 222 q 539 226 538 227 q 531 238 523 246 q 515 254 506 264 q 501 269 494 278 q 486 287 486 287 l 486 289 l 542 346 q 543 349 545 352 q 547 355 548 358 l 568 378 l 568 405 q 576 410 575 419 q 574 428 580 435 l 580 650 q 571 658 568 675 q 565 692 557 703 q 553 708 546 715 q 538 722 537 730 q 534 733 524 743 q 514 753 511 755 q 510 757 506 760 q 503 762 500 764 q 498 765 494 768 q 491 772 487 776 q 483 779 480 782 q 476 786 475 787 q 473 789 470 792 q 467 794 466 794 q 465 794 460 794 q 454 795 453 795 q 448 797 446 799 q 443 801 438 801 q 433 801 427 800 q 421 799 418 795 l 382 795 q 382 795 372 790 q 362 786 361 785 q 341 775 322 764 q 302 753 283 742 q 283 741 282 740 q 280 740 280 740 q 279 740 276 740 q 272 739 272 738 q 270 737 266 734 q 261 730 260 728 l 260 731 q 260 733 265 742 q 270 752 272 754 l 272 782 l 258 795 l 246 785 q 243 785 240 786 q 238 787 234 787 q 228 787 220 783 q 213 779 208 775 l 183 775 q 165 770 149 760 q 133 751 117 741 q 101 731 84 722 q 68 713 50 709 q 44 704 36 705 q 29 706 23 701 q 15 701 8 698 q 0 695 -8 697 q -34 691 -60 690 q -86 689 -112 690 q -111 687 -112 684 q -112 680 -112 676 q -112 673 -110 671 q -109 669 -104 671 q -92 667 -80 668 q -67 668 -54 670 q -42 671 -30 672 q -17 673 -4 671 q 18 670 40 671 q 61 672 81 678 q 85 680 91 678 q 97 676 96 682 l 95 686 l 95 646 q 89 641 89 633 q 89 626 84 621 q 83 607 76 590 q 69 574 64 561 q 59 549 57 537 q 55 525 45 514 l 45 510 q 45 510 50 506 q 54 501 57 499 q 59 497 63 497 q 67 497 69 497 l 75 497 q 76 497 78 500 q 81 502 82 502 q 84 502 90 502 q 96 503 97 504 q 105 506 112 510 q 118 515 126 515 q 133 516 144 516 q 156 517 156 517 l 164 522 q 164 520 162 515 q 160 510 158 504 q 156 498 154 493 q 152 488 151 487 q 150 486 148 482 q 145 479 144 479 q 141 474 140 469 q 138 464 136 458 q 134 453 130 450 q 126 446 124 442 q 123 440 122 433 q 121 426 121 425 q 116 416 107 406 q 98 397 96 388 q 95 386 94 382 q 94 378 94 376 q 87 370 78 358 q 69 347 64 339 q 63 338 62 334 q 61 330 60 329 q 57 324 54 321 q 50 318 50 312 l 50 311 l 65 296 q 66 296 67 296 q 68 295 69 295 q 70 295 72 296 q 73 296 74 296 q 75 296 78 298 q 80 300 80 301 q 86 303 98 304 q 109 306 114 309 q 116 310 122 315 q 127 320 129 321 q 131 322 139 322 q 147 323 149 323 q 142 313 142 300 q 141 288 141 277 q 136 271 136 264 q 135 257 128 252 l 128 230 q 126 227 122 222 q 117 217 116 212 q 115 210 114 202 q 114 194 114 192 q 107 185 106 176 q 104 166 101 158 q 98 151 94 145 q 91 139 89 131 q 86 121 78 112 q 70 103 70 91 l 70 89 q 72 87 77 82 q 82 76 87 76 q 90 76 94 80 l 116 80 l 122 86 q 123 86 125 86 q 127 87 127 88 q 129 89 135 94 q 141 99 142 99 q 144 100 150 100 q 155 101 156 101 q 157 101 160 104 q 162 106 163 106 q 163 105 167 105 q 167 102 164 95 q 160 88 158 86 q 157 84 156 76 q 155 67 154 64 l 151 58 q 150 57 150 55 q 149 53 149 53 q 149 51 148 42 q 148 34 148 32 q 147 32 146 30 q 146 29 146 29 q 145 28 144 24 q 143 21 142 21 q 141 18 138 10 q 134 3 130 -6 q 125 -15 121 -22 q 117 -30 116 -33 q 117 -43 111 -50 q 105 -56 102 -65 q 102 -66 102 -70 q 101 -74 101 -75 q 99 -82 94 -88 q 90 -94 87 -100 q 73 -128 56 -153 q 39 -178 25 -206 q 21 -213 16 -222 q 10 -230 10 -238 l 10 -239 l 22 -251 l 25 -251 l 92 -184 q 99 -170 106 -156 q 113 -142 121 -129 q 122 -127 128 -118 q 133 -110 139 -101 q 145 -92 150 -84 q 156 -77 157 -77 q 159 -77 160 -78 q 161 -78 163 -78 l 164 -78 l 235 -8 q 243 0 245 9 q 247 18 252 27 q 252 29 257 36 q 262 44 263 46 q 264 46 264 48 q 265 49 265 49 q 267 54 272 70 q 278 86 280 91 q 288 101 290 114 q 293 126 293 138 q 299 147 302 155 q 306 163 308 172 q 311 180 314 188 q 318 195 325 203 l 325 232 l 314 244 l 312 244 q 301 244 290 236 q 280 228 270 224 l 246 202 q 244 204 241 204 q 235 204 231 199 q 227 194 221 192 q 215 190 210 188 q 204 185 198 183 q 196 183 192 182 q 188 180 188 180 q 183 177 176 171 q 169 165 163 165 l 161 165 q 176 175 174 192 l 213 232 q 214 234 216 238 q 218 241 220 242 q 221 243 224 248 q 228 252 232 256 q 236 261 240 265 q 243 269 245 271 q 244 291 254 305 q 265 319 272 336 q 274 343 276 348 q 278 354 282 361 q 284 364 287 368 q 290 373 292 376 q 294 383 293 388 q 292 394 299 398 l 299 418 q 300 419 302 422 q 304 424 305 425 l 305 426 q 305 433 301 437 q 297 441 292 445 l 285 445 q 269 445 258 433 q 247 432 240 432 q 232 431 223 427 q 222 426 220 426 q 217 425 216 425 l 196 406 q 180 405 168 396 q 157 387 146 387 l 146 390 l 158 403 q 162 401 167 404 q 172 406 174 408 l 248 482 q 250 488 257 495 q 264 502 267 505 q 273 513 277 522 q 281 531 287 539 q 287 540 288 542 q 290 543 290 544 q 293 549 294 554 q 295 559 298 564 q 300 566 305 572 q 310 577 312 579 q 312 581 312 588 q 313 596 314 598 q 314 602 316 604 q 319 607 319 612 q 319 614 319 616 q 319 619 317 621 q 315 624 310 628 q 306 633 305 633 l 297 633 q 292 626 285 623 q 278 620 270 618 q 263 617 256 615 q 249 613 243 607 l 216 607 l 210 601 q 212 606 214 610 q 217 613 218 618 q 220 630 222 638 q 223 645 226 650 q 229 655 235 660 q 241 664 252 670 q 253 671 260 674 q 267 677 268 678 q 279 684 289 692 q 299 700 310 703 q 315 698 320 694 q 326 690 324 682 q 338 671 335 651 q 338 648 338 644 q 339 641 340 637 q 340 633 341 630 q 342 626 347 624 q 353 589 351 554 q 349 518 343 484 q 337 449 330 418 q 322 387 316 362 q 315 367 316 372 q 317 377 324 378 q 331 392 338 403 q 345 414 351 428 q 359 432 358 439 q 357 446 362 451 q 376 479 384 510 q 392 541 394 573 q 395 605 391 636 q 387 668 378 697 q 356 700 345 702 q 334 703 330 704 q 327 705 328 706 q 328 708 330 711 l 366 711 q 370 717 379 717 q 385 717 387 713 l 409 710 l 454 666 l 458 656 l 476 638 q 477 635 480 628 q 483 620 486 612 q 489 605 492 598 q 495 592 496 591 l 496 383 q 493 378 492 372 q 492 365 490 359 q 489 359 487 356 q 485 352 485 351 q 484 349 484 345 q 483 341 483 339 q 482 339 481 338 q 480 338 480 338 q 479 337 476 335 q 474 333 473 333 q 466 331 461 332 q 456 332 451 326 l 420 326 q 420 326 420 326 q 419 327 419 328 q 420 328 422 332 q 425 335 426 336 q 426 337 426 341 q 427 345 428 346 q 430 353 434 359 q 437 365 439 373 q 440 374 440 378 q 441 383 441 385 q 443 390 444 393 q 446 396 446 402 l 446 403 l 434 415 l 431 415 l 364 348 q 361 340 358 336 q 355 333 355 324 l 303 271 l 303 267 q 303 266 308 262 q 313 257 315 255 q 316 255 322 254 q 327 254 329 254 l 335 249 q 337 248 343 248 q 349 248 350 247 q 351 247 354 244 q 356 242 357 242 q 359 241 364 240 q 370 240 372 240 l 324 190 l 324 187 q 324 185 328 181 q 333 177 335 175 q 337 174 340 174 q 344 173 345 173 q 344 171 344 168 l 344 167 q 353 156 364 151 q 375 146 387 140 q 388 139 390 138 q 392 137 392 136 q 395 134 404 126 q 412 117 414 115 q 416 105 424 96 q 432 87 436 79 q 437 78 437 72 q 437 67 438 66 q 440 58 448 48 q 456 39 461 34 q 463 28 464 23 q 464 18 470 14 l 470 -8 q 480 -16 482 -30 q 484 -44 485 -55 l 497 -68 l 497 -92 l 504 -98 l 504 -139 q 513 -150 516 -166 q 518 -182 518 -196 q 524 -203 524 -212 q 525 -221 525 -229 q 527 -232 532 -238 q 536 -244 537 -248 q 537 -249 538 -256 q 538 -264 538 -266 q 539 -267 541 -271 q 543 -275 543 -276 q 544 -279 544 -288 q 545 -297 545 -300 q 549 -305 554 -312 q 560 -318 563 -321 q 564 -331 574 -348 q 583 -366 590 -373 q 593 -377 598 -382 q 604 -388 609 -393 q 614 -398 618 -402 q 622 -405 622 -405 l 631 -409 l 662 -441 q 672 -442 674 -444 q 675 -447 683 -452 q 683 -453 686 -454 q 690 -455 691 -456 q 693 -457 700 -464 q 707 -471 709 -472 q 718 -480 728 -484 q 737 -487 745 -496 z m 208 495 q 210 495 210 493 q 210 492 208 492 q 206 492 206 493 q 206 495 208 495 z"},"T":{"x_min":0,"x_max":701,"ha":701,"o":"m 333 -287 q 333 -287 333 -287 q 333 -288 334 -288 l 345 -300 l 349 -300 l 371 -281 q 373 -277 376 -274 q 379 -271 381 -266 l 408 -234 q 408 -233 408 -232 q 409 -231 409 -231 q 411 -229 416 -222 q 422 -216 423 -214 q 424 -212 426 -206 q 428 -199 429 -197 q 430 -195 436 -188 q 442 -182 443 -180 q 444 -179 446 -172 q 448 -165 449 -164 q 451 -162 457 -156 q 463 -150 465 -149 q 468 -152 471 -152 l 473 -152 l 558 -66 q 559 -66 560 -63 q 562 -60 563 -58 q 564 -57 564 -56 q 565 -55 565 -55 l 597 -21 q 598 -13 602 -8 q 605 -2 605 6 l 625 29 q 626 40 636 50 q 646 60 651 68 q 651 68 652 72 q 652 75 652 76 q 653 77 654 79 q 654 81 654 81 q 655 83 658 87 q 662 91 664 93 l 664 96 l 652 108 l 651 108 l 649 108 l 646 106 q 644 106 642 108 l 633 108 q 623 108 618 106 q 612 105 604 100 q 596 95 584 92 q 571 88 563 88 q 567 105 579 117 q 591 129 599 143 q 603 150 604 156 q 605 162 610 167 q 610 169 610 177 q 611 185 612 187 q 613 189 618 194 q 623 200 624 202 q 625 204 626 211 q 626 218 625 220 q 632 225 632 232 q 632 240 638 245 l 638 311 l 644 318 q 644 318 644 322 q 645 327 645 329 q 645 332 644 338 q 644 345 644 346 q 644 348 642 354 q 639 360 639 361 l 639 363 q 639 367 642 369 q 646 371 646 375 l 646 376 l 634 388 l 630 388 q 622 388 615 382 q 608 375 600 373 l 575 349 q 573 351 570 351 l 569 351 l 552 336 l 552 363 q 560 371 562 380 q 563 390 565 401 q 565 403 567 405 q 568 407 572 411 q 576 415 578 416 l 578 470 l 584 478 l 584 613 l 595 608 l 667 608 l 674 602 l 714 602 q 716 600 721 598 q 726 595 728 595 l 790 595 q 792 593 794 591 q 797 589 800 589 l 1060 589 l 1066 595 l 1085 595 q 1087 598 1094 602 q 1100 606 1105 608 q 1106 608 1112 608 q 1117 609 1118 609 q 1120 610 1125 615 q 1130 620 1132 621 q 1137 625 1142 626 q 1148 628 1154 629 l 1221 696 q 1221 698 1222 706 q 1222 715 1222 717 q 1223 721 1225 725 q 1227 729 1227 734 l 1227 738 q 1224 742 1218 748 q 1213 755 1206 762 q 1199 769 1192 774 q 1186 779 1180 779 l 1179 779 q 1178 778 1176 776 q 1173 774 1172 774 l 1159 785 l 1157 785 q 1155 785 1150 784 q 1145 782 1139 780 q 1133 778 1128 776 q 1123 775 1122 774 q 1120 772 1118 772 l 1051 705 l 1051 701 l 1063 690 l 1064 690 q 1068 690 1075 692 q 1082 694 1088 696 q 1095 699 1101 702 q 1107 705 1110 708 q 1112 706 1116 702 q 1121 698 1123 696 q 1126 694 1132 692 q 1137 689 1137 684 l 1137 683 q 1134 680 1133 680 q 1126 679 1119 678 q 1112 678 1107 673 l 859 673 l 852 679 l 783 679 q 781 679 778 682 q 774 684 773 685 l 733 685 l 724 692 l 651 692 l 641 699 l 590 699 l 582 706 l 483 706 l 473 712 l 369 712 q 364 719 356 720 q 347 721 341 726 l 302 726 q 297 733 289 733 q 282 733 277 739 l 221 739 l 215 746 l 176 746 q 175 746 171 748 q 167 751 166 752 l 118 752 q 112 752 112 750 q 112 748 107 747 q 105 746 100 746 q 94 745 92 745 q 90 742 83 736 q 76 730 71 728 q 66 723 53 710 q 40 698 26 684 q 11 670 -2 657 q -15 644 -20 639 q -23 636 -29 630 q -35 623 -35 623 l -35 554 l -7 524 q -5 516 3 512 q 11 507 17 502 l 40 502 l 107 569 l 107 572 q 107 574 102 578 q 98 582 96 584 q 94 585 88 585 q 82 585 81 586 q 80 586 78 588 q 76 589 76 589 q 73 592 69 592 l 49 613 l 49 661 q 54 661 59 662 q 64 663 67 668 l 107 668 q 117 662 130 662 q 143 661 153 661 q 154 660 158 658 q 161 655 163 655 l 218 655 q 223 650 230 648 q 237 646 242 642 l 284 642 q 284 641 289 639 q 294 637 299 634 q 304 632 309 630 q 314 628 314 628 l 416 628 q 422 623 428 622 q 435 622 443 621 l 428 604 l 428 576 l 433 569 l 433 302 q 429 300 428 296 q 428 292 428 287 q 427 285 426 276 q 426 266 426 264 q 420 257 420 250 q 421 242 419 234 q 418 227 416 222 q 414 217 414 209 l 414 202 l 426 190 l 427 190 q 437 190 442 196 q 448 202 455 207 q 466 216 478 222 q 490 228 500 239 l 500 234 q 500 229 498 224 q 497 220 495 215 q 489 192 478 172 q 467 151 456 130 q 453 123 454 116 q 454 110 449 105 q 448 103 445 100 q 442 96 440 95 l 440 74 q 430 65 427 54 q 424 44 419 33 q 415 22 410 12 q 404 3 401 -8 l 399 -14 q 397 -18 396 -20 q 394 -22 394 -26 l 394 -28 q 398 -33 402 -37 q 406 -41 413 -41 l 414 -41 q 416 -39 422 -34 q 429 -28 431 -26 q 432 -26 434 -24 q 435 -23 436 -23 q 437 -23 439 -22 q 441 -21 441 -21 q 442 -20 444 -18 q 447 -17 448 -16 l 471 -13 l 480 -8 l 480 -13 l 480 -18 q 479 -19 477 -22 q 475 -24 475 -24 q 472 -32 470 -42 q 469 -52 466 -60 q 464 -65 460 -70 q 457 -75 455 -80 q 453 -85 452 -90 q 450 -95 448 -100 q 446 -105 442 -108 q 438 -112 436 -117 q 436 -117 436 -120 q 435 -123 434 -123 q 430 -132 422 -140 q 415 -147 414 -157 q 409 -163 401 -172 q 393 -181 389 -190 l 367 -214 q 367 -216 364 -222 q 362 -229 361 -231 q 360 -232 354 -239 q 348 -246 347 -247 q 346 -249 344 -256 q 341 -263 341 -264 q 337 -270 338 -270 q 340 -270 343 -268 q 346 -265 347 -264 q 348 -263 344 -268 q 342 -273 338 -278 q 333 -282 333 -287 z"},"P":{"x_min":0,"x_max":480,"ha":480,"o":"m 99 -493 q 101 -501 107 -506 l 110 -502 l 110 -447 l 117 -436 l 117 -371 l 123 -360 l 123 -276 l 129 -266 l 129 -202 q 129 -200 131 -200 q 133 -200 135 -200 q 138 -200 143 -210 q 148 -221 153 -233 q 158 -245 164 -256 q 169 -266 174 -266 q 176 -266 178 -266 q 180 -265 180 -263 l 180 57 q 180 59 182 60 q 184 60 185 60 q 188 60 194 48 q 200 35 206 20 q 213 6 220 -6 q 226 -19 229 -19 q 234 -19 235 -14 q 236 -8 236 -4 q 236 1 236 4 q 235 8 230 13 l 230 97 q 225 103 227 109 q 229 115 224 121 l 224 192 q 222 195 222 196 q 221 198 221 201 q 221 203 222 206 q 223 208 223 210 l 223 211 q 223 213 222 216 q 220 220 219 222 l 219 272 l 221 275 q 221 274 222 274 q 223 273 223 272 q 228 266 232 258 q 236 249 240 243 q 243 238 250 227 q 257 216 265 204 q 273 193 281 184 q 289 174 293 173 l 306 173 q 316 173 330 176 q 343 179 356 184 q 370 189 382 195 q 394 201 402 207 q 406 209 411 210 q 416 210 419 213 l 447 239 q 447 239 448 240 q 449 242 449 243 q 451 252 452 268 q 452 284 458 291 l 458 338 q 463 343 462 350 q 460 356 465 361 l 465 426 l 470 437 l 470 534 q 470 537 462 548 q 454 559 444 572 q 434 584 424 596 q 414 608 411 614 l 373 654 q 372 656 370 660 q 368 663 367 665 q 366 666 361 671 q 356 676 351 682 q 346 687 341 692 q 336 697 335 699 q 330 704 331 704 q 332 704 326 709 l 316 709 q 299 709 282 702 q 264 696 248 690 q 238 686 234 682 q 229 679 221 679 q 219 679 215 680 q 211 680 211 684 l 211 743 l 206 747 l 153 747 q 152 746 148 744 q 145 743 143 743 l 142 743 l 141 743 q 139 743 136 744 q 132 746 130 747 l 16 747 q 14 747 14 742 l 14 739 q 14 734 14 725 q 15 716 16 710 q 16 704 16 703 l 22 692 l 22 652 l 28 642 l 28 602 q 31 599 32 591 q 34 583 36 574 q 37 565 38 556 q 39 546 40 540 q 40 539 40 534 q 40 529 40 524 q 41 518 42 513 q 42 508 42 507 q 42 505 44 501 q 46 497 46 496 q 48 488 47 477 q 46 466 53 458 l 53 418 l 60 407 l 60 367 l 66 357 l 66 317 q 70 312 70 304 q 71 295 71 290 q 71 285 66 285 q 51 285 40 294 q 30 304 15 304 l 14 304 q 13 304 12 302 q 11 301 10 300 l 10 292 l 10 285 q 10 284 12 280 q 14 276 14 275 q 17 258 18 242 q 20 226 23 209 q 23 208 25 204 q 27 200 27 199 q 29 190 30 181 q 30 172 31 163 q 33 154 36 146 q 38 137 40 129 q 40 128 40 123 q 40 118 40 112 q 41 107 42 102 q 42 96 42 95 q 42 94 44 90 q 46 86 46 85 q 46 83 46 78 q 46 73 46 68 q 47 62 48 57 q 48 52 48 51 q 48 49 50 46 q 52 42 53 40 l 53 0 q 58 -5 58 -8 q 59 -11 59 -16 q 59 -20 59 -22 q 59 -25 54 -25 l 52 -25 l 23 2 l 21 3 q 17 3 16 0 l 16 -9 l 16 -19 q 16 -20 18 -24 q 20 -28 21 -29 q 21 -31 22 -43 q 22 -55 23 -57 q 25 -65 28 -74 q 31 -84 33 -93 q 37 -113 39 -134 q 41 -155 46 -175 q 48 -185 48 -188 q 47 -192 53 -200 l 53 -240 q 62 -252 64 -274 q 65 -297 67 -310 q 69 -321 72 -331 q 76 -341 78 -352 q 82 -378 85 -404 q 88 -429 92 -455 q 92 -456 94 -460 q 96 -465 96 -466 q 97 -469 98 -480 q 99 -490 99 -493 z m 255 273 q 255 278 257 279 l 266 279 q 279 279 290 276 q 300 272 314 272 q 317 271 320 268 q 324 265 324 261 q 324 252 314 242 q 304 231 299 226 l 298 226 l 297 226 q 296 226 294 227 q 293 228 293 228 l 259 262 q 255 265 255 273 z m 215 321 q 215 323 216 326 q 217 328 217 330 l 217 332 q 216 333 214 337 q 213 341 213 342 q 212 342 212 342 q 212 343 212 343 q 212 343 212 343 q 212 344 213 344 q 213 345 214 350 q 216 354 217 355 l 217 356 l 217 357 q 216 358 214 362 q 213 366 213 367 q 212 367 212 367 q 212 368 212 368 q 212 369 213 369 q 213 371 214 375 q 216 379 217 380 l 217 381 l 217 382 q 216 384 214 388 q 213 391 213 393 l 213 426 q 213 427 214 430 q 214 432 215 433 l 215 435 l 215 437 q 213 439 213 443 l 213 629 q 213 633 222 638 q 232 642 244 645 q 257 648 268 650 q 280 652 284 652 l 295 652 q 300 649 303 642 q 306 634 308 624 q 309 615 310 606 q 311 597 312 591 q 312 586 313 571 q 314 556 314 551 l 319 540 l 319 469 l 324 458 l 324 317 l 320 313 q 320 312 317 312 q 315 312 314 312 q 307 312 302 314 q 297 317 290 317 q 283 317 276 311 l 236 311 q 234 311 230 309 q 227 307 225 306 l 224 306 q 220 306 218 312 q 215 318 215 321 z"},"|":{"x_min":0,"x_max":653,"ha":653,"o":"m 11 -82 q 10 -87 12 -92 q 15 -97 18 -101 l 19 -102 q 23 -103 28 -102 q 34 -100 38 -99 l 68 -88 q 69 -88 70 -88 q 71 -88 71 -88 q 94 -81 116 -72 q 117 -73 119 -72 q 121 -71 122 -72 q 123 -72 126 -73 q 130 -74 131 -73 q 136 -73 142 -72 q 148 -70 154 -71 q 156 -71 162 -72 q 169 -74 170 -75 q 171 -74 175 -74 q 179 -73 182 -71 l 258 -33 l 259 -31 q 259 -30 257 -25 q 255 -20 254 -18 q 251 -17 250 -14 l 249 -14 l 247 -13 q 246 -15 240 -17 q 235 -19 233 -20 q 231 -20 225 -18 q 219 -16 217 -16 q 213 -15 210 -16 q 208 -17 204 -16 q 197 -13 196 -3 q 194 7 195 14 q 185 30 184 42 q 183 55 181 72 q 181 83 181 94 q 181 106 179 117 q 179 119 178 124 q 177 128 178 129 q 177 131 178 136 q 180 141 180 143 q 181 146 180 148 q 180 149 178 156 q 175 164 174 165 q 174 167 174 168 q 173 170 173 170 q 173 172 174 177 q 176 182 176 183 q 177 191 174 201 q 172 211 170 219 q 169 225 170 231 q 170 237 167 243 q 168 245 170 252 q 172 259 172 261 q 173 263 174 266 q 174 269 174 270 q 174 275 174 281 q 173 287 173 293 q 173 300 174 305 q 174 310 173 317 q 172 318 172 322 q 171 326 171 326 q 172 333 174 338 q 177 342 176 348 q 176 350 174 358 q 173 366 174 368 q 174 370 176 377 q 178 384 178 386 q 180 393 178 399 q 177 405 176 411 q 176 418 176 426 q 177 433 177 441 q 177 445 176 449 q 174 453 174 457 q 174 463 176 468 q 179 472 174 478 l 180 495 q 177 502 176 506 q 175 510 176 514 q 176 518 177 523 q 178 528 177 535 q 177 539 176 542 q 176 546 176 551 q 175 552 176 558 q 176 564 176 565 q 175 569 172 577 q 170 585 171 590 q 172 598 174 608 q 176 619 175 627 q 175 631 173 635 q 171 639 171 644 q 171 650 172 662 q 173 674 170 679 l 184 721 l 181 728 l 197 775 q 195 780 196 786 q 197 791 198 796 q 200 801 200 806 q 201 811 198 815 l 207 842 q 207 842 207 843 q 207 844 207 846 q 207 846 206 848 q 206 850 205 852 q 205 859 206 868 q 208 876 203 883 l 210 903 q 206 909 208 916 q 211 923 213 929 q 213 934 212 934 q 211 934 210 940 q 210 946 212 947 q 213 948 210 953 q 212 960 214 967 q 216 974 213 982 l 234 1042 q 241 1044 242 1050 q 243 1055 246 1059 q 247 1060 250 1062 q 252 1064 253 1065 l 253 1066 l 254 1067 l 247 1080 l 241 1083 q 239 1082 234 1080 q 228 1078 222 1075 q 217 1072 212 1070 q 207 1068 205 1068 q 204 1067 202 1066 q 199 1066 198 1065 q 186 1062 176 1060 q 167 1057 153 1052 q 148 1051 144 1052 q 139 1053 134 1052 q 127 1051 124 1048 q 122 1046 116 1047 l 42 1011 l 42 1008 l 48 995 l 67 988 l 87 997 q 84 987 88 978 q 93 969 92 959 q 91 957 89 950 q 87 942 87 941 q 86 935 88 930 q 90 924 90 918 q 89 917 88 912 q 87 908 88 907 q 88 901 90 896 q 91 891 90 886 q 91 882 90 879 q 89 877 90 873 q 90 873 90 871 q 91 869 91 868 q 91 867 90 862 q 88 858 89 857 q 89 857 89 855 q 89 853 90 852 q 90 851 92 848 q 93 844 93 843 q 94 838 92 832 q 91 827 92 821 q 92 817 90 815 q 89 813 89 806 q 89 805 90 802 q 92 799 91 798 q 91 798 90 793 q 89 788 89 787 q 89 786 90 784 q 90 782 90 782 q 90 781 90 780 q 91 778 91 778 q 90 773 89 765 q 88 757 88 748 q 87 739 88 731 q 88 723 89 721 q 85 712 85 704 q 85 695 85 686 q 85 681 86 682 q 87 683 86 677 q 86 675 84 667 q 82 659 81 657 q 84 651 82 644 q 80 638 79 631 l 81 625 l 75 607 q 76 605 77 602 q 78 598 78 597 l 68 569 q 73 560 71 550 q 69 540 68 532 q 68 526 70 520 q 72 515 71 509 q 72 507 70 501 q 68 495 68 493 l 71 486 l 63 464 q 68 458 66 445 q 63 432 63 426 q 62 425 64 422 q 65 419 65 418 q 64 412 62 408 q 60 405 65 400 l 60 385 l 63 377 l 58 361 q 64 349 62 340 q 60 330 55 316 q 60 310 58 307 q 56 304 55 298 q 55 297 56 294 q 58 292 57 291 q 57 290 56 286 q 55 281 55 280 q 55 279 56 277 q 57 275 56 275 q 56 274 56 272 q 57 271 57 270 q 56 267 54 260 q 52 252 51 251 q 55 240 54 229 q 52 218 49 208 q 50 207 50 204 q 51 202 51 201 q 51 200 50 196 q 49 193 50 192 q 49 190 52 183 q 55 176 54 175 q 54 173 52 167 q 51 161 51 159 q 55 151 54 142 q 52 134 53 126 q 56 121 60 110 q 63 99 62 92 q 62 90 60 83 q 58 77 59 76 q 59 74 62 68 q 64 63 64 61 q 67 52 66 43 q 64 34 65 24 q 67 18 70 9 q 72 0 72 -4 q 72 -6 71 -10 q 70 -15 70 -16 q 69 -17 70 -20 q 72 -23 72 -23 q 71 -24 70 -29 q 69 -34 70 -35 q 70 -37 72 -41 q 73 -45 74 -47 l 18 -76 q 16 -77 14 -78 q 12 -80 11 -82 z"},"t":{"x_min":0,"x_max":301,"ha":301,"o":"m 72 -189 q 75 -194 77 -202 q 79 -209 84 -212 q 86 -213 94 -218 q 101 -222 103 -223 q 136 -243 172 -258 q 207 -272 244 -284 q 260 -289 276 -296 q 292 -302 309 -302 q 311 -302 315 -302 q 319 -301 320 -301 l 325 -299 q 325 -299 329 -295 q 333 -291 338 -286 q 342 -282 346 -277 q 351 -272 354 -269 q 355 -268 358 -264 q 360 -260 360 -259 q 361 -258 362 -256 q 364 -255 365 -255 q 376 -245 385 -234 q 394 -223 405 -212 q 405 -212 406 -210 q 407 -209 407 -208 l 407 -207 l 407 -206 l 403 -202 q 396 -202 384 -201 q 372 -200 365 -195 l 253 -195 l 249 -198 q 253 -203 268 -206 q 282 -208 298 -210 q 313 -213 325 -216 q 337 -219 337 -226 l 337 -227 q 335 -229 328 -236 q 322 -242 320 -244 q 314 -250 304 -260 q 293 -269 288 -269 q 277 -269 271 -262 q 265 -255 257 -252 q 252 -250 250 -250 q 248 -250 244 -248 q 241 -246 238 -244 q 235 -241 232 -240 q 230 -239 226 -238 q 221 -238 219 -236 l 202 -219 q 199 -216 199 -214 l 199 -92 q 196 -88 196 -84 q 196 -80 197 -77 q 198 -74 198 -71 q 198 -64 193 -56 l 193 136 q 189 141 189 144 q 189 147 190 148 q 190 150 192 153 l 192 193 q 191 194 190 196 q 190 198 189 199 l 189 201 q 189 204 190 206 q 192 209 192 211 l 192 212 q 191 213 190 217 q 188 221 187 223 l 187 224 l 187 225 q 188 226 190 230 q 191 234 192 235 l 192 236 l 192 237 q 191 238 190 242 q 188 247 187 248 l 187 249 l 187 250 q 188 251 190 255 q 191 259 192 261 l 192 262 l 192 263 q 191 264 190 268 q 188 272 187 273 l 187 332 q 187 334 191 336 q 195 337 200 338 q 205 340 210 341 q 215 342 217 344 l 270 344 l 274 349 l 274 383 l 270 388 l 192 388 l 186 394 l 186 434 l 180 444 l 180 535 q 178 538 177 544 q 176 550 176 556 q 175 563 174 568 q 172 573 168 573 q 166 573 164 571 q 151 551 141 531 q 131 511 120 491 q 115 481 108 473 q 101 465 94 457 q 74 431 54 405 q 35 379 12 356 q 12 355 11 354 q 10 352 10 351 l 10 350 q 10 347 14 343 q 17 339 21 339 l 66 339 l 66 280 q 69 276 69 271 q 69 269 68 266 q 67 264 67 262 l 67 261 q 67 259 69 255 q 71 251 71 250 l 71 249 q 71 244 69 241 q 67 238 67 233 q 67 230 68 227 q 69 224 69 220 q 69 218 68 216 q 67 213 67 211 l 67 210 q 68 208 70 204 q 71 201 72 199 z"},"M":{"x_min":0,"x_max":919,"ha":919,"o":"m 799 -382 q 801 -382 804 -387 q 808 -392 812 -397 q 817 -402 821 -406 q 825 -411 829 -411 l 831 -411 l 842 -400 l 846 -400 q 851 -400 854 -402 q 858 -405 863 -405 l 914 -405 q 919 -401 922 -401 q 925 -401 930 -398 q 935 -395 939 -390 q 943 -384 950 -383 l 1011 -308 q 1012 -300 1018 -293 q 1025 -286 1028 -281 q 1029 -281 1030 -278 q 1030 -274 1031 -273 q 1033 -271 1038 -264 q 1042 -258 1044 -256 q 1045 -255 1045 -252 q 1045 -250 1046 -248 q 1046 -248 1048 -246 q 1049 -244 1049 -243 q 1051 -236 1050 -226 q 1050 -217 1050 -210 l 1050 -189 q 1049 -188 1046 -184 q 1044 -180 1042 -176 l 1021 -151 l 982 -151 l 919 -227 l 930 -242 l 966 -242 q 968 -252 973 -258 l 973 -294 q 973 -296 968 -304 q 964 -312 962 -312 l 915 -312 q 915 -312 911 -310 q 907 -309 903 -308 q 899 -306 896 -304 q 892 -302 892 -302 q 890 -300 884 -294 q 879 -287 879 -285 q 872 -285 868 -282 q 864 -278 861 -273 q 858 -268 852 -262 q 846 -256 846 -256 l 846 -221 q 846 -219 844 -214 q 841 -210 841 -209 l 841 -113 l 846 -107 l 846 -39 l 852 -33 l 852 -12 l 858 -3 l 858 35 l 864 43 l 864 80 q 866 82 867 84 q 868 87 870 89 q 871 100 871 106 q 871 112 878 120 l 878 190 q 878 193 880 196 q 881 199 883 201 l 883 316 l 890 325 l 890 437 l 895 445 l 895 685 l 901 692 l 901 764 l 907 772 l 907 843 q 907 843 906 845 q 906 847 906 848 q 903 853 901 860 q 899 866 897 872 q 895 874 890 882 q 884 890 882 893 q 881 894 880 897 q 879 900 879 900 q 877 904 873 908 q 869 913 868 913 l 814 913 q 806 913 798 905 q 791 897 785 893 q 778 888 768 887 q 759 886 751 881 q 750 881 748 879 q 746 877 746 877 q 745 876 738 876 q 732 876 730 876 q 725 874 721 870 q 717 867 712 865 l 654 800 q 652 799 650 797 q 648 795 646 794 l 616 762 q 614 764 614 770 q 613 775 611 777 l 611 828 q 611 828 610 830 q 609 832 608 833 q 605 839 604 846 q 603 852 600 857 q 599 858 596 862 q 592 867 592 868 q 592 870 590 873 q 589 876 589 877 l 573 898 q 563 899 558 903 q 554 907 548 907 q 541 907 535 900 q 510 898 497 890 q 484 883 467 863 q 456 861 448 854 q 441 847 432 843 l 383 786 l 376 786 q 374 784 370 779 q 366 774 362 769 q 357 764 353 760 q 349 755 348 754 q 341 743 330 740 l 330 811 q 330 821 325 826 q 320 831 318 839 q 318 841 318 847 q 318 853 317 855 q 316 857 312 862 q 309 867 307 868 q 306 868 303 868 q 300 869 299 869 q 282 869 272 857 q 265 853 262 849 q 260 845 254 843 l 231 818 l 230 818 l 229 818 q 228 819 226 820 q 225 821 225 822 l 222 822 l 221 822 l 190 804 q 183 803 180 802 q 176 801 174 799 q 171 797 168 794 q 165 791 160 788 q 160 788 154 786 q 148 783 146 782 q 141 778 132 771 q 124 764 119 758 q 109 750 100 745 q 90 740 80 735 l 18 661 l 18 658 l 29 644 l 30 644 q 37 644 48 650 q 58 656 68 664 q 79 673 88 681 q 98 689 104 694 q 105 695 108 696 q 112 696 112 696 l 123 707 q 124 707 125 708 q 126 709 128 709 q 129 709 134 710 q 140 711 141 711 q 143 713 152 717 q 160 721 162 723 q 163 723 164 722 q 164 722 164 722 q 165 721 166 720 q 166 718 166 718 l 166 363 l 172 351 l 172 308 l 178 301 l 178 -127 l 172 -134 l 172 -173 q 172 -173 171 -174 q 170 -176 168 -176 l 164 -178 q 162 -179 158 -180 q 153 -180 151 -180 l 89 -254 l 89 -258 l 101 -271 l 105 -271 q 120 -271 133 -260 q 146 -250 160 -245 l 187 -213 q 192 -214 206 -209 q 219 -204 222 -199 l 241 -199 q 244 -203 247 -203 l 249 -203 q 250 -203 251 -202 q 252 -201 253 -201 q 254 -201 257 -203 q 260 -205 261 -205 l 272 -205 l 278 -205 l 342 -131 l 342 -127 q 342 -125 337 -120 q 332 -115 330 -113 q 329 -112 323 -112 q 317 -112 315 -112 q 313 -112 313 -109 l 313 -108 l 313 -107 q 313 -106 315 -103 q 317 -100 318 -99 l 318 33 l 325 42 l 325 571 l 330 579 l 330 689 q 330 689 335 694 q 340 699 343 701 q 343 701 344 702 q 345 702 345 703 q 347 704 349 706 q 351 708 352 709 q 354 711 360 718 q 366 724 372 731 q 378 738 383 744 q 388 751 390 754 q 392 753 398 754 q 403 755 405 756 q 406 756 410 760 q 414 765 415 766 q 416 767 420 768 q 425 770 430 772 q 436 773 441 774 q 446 776 447 776 l 454 776 q 455 775 458 770 q 462 766 462 764 q 464 762 468 756 q 471 749 471 747 l 471 661 q 473 658 475 655 q 477 652 477 647 q 477 642 474 640 q 471 638 471 633 l 471 19 q 469 18 466 14 q 464 10 464 8 l 464 -71 q 462 -73 460 -76 q 458 -79 458 -82 l 458 -151 q 453 -155 453 -163 q 453 -172 453 -177 l 453 -188 q 457 -190 458 -193 q 458 -196 458 -200 l 458 -205 l 445 -219 l 459 -234 q 459 -234 462 -234 q 464 -235 466 -235 q 477 -235 484 -228 q 490 -221 498 -212 l 575 -212 q 580 -205 586 -205 l 649 -131 l 649 -127 l 637 -113 l 633 -113 q 626 -113 620 -120 l 594 -120 l 597 -113 q 597 -111 597 -103 q 597 -95 598 -93 q 598 -92 600 -88 q 603 -83 603 -82 q 604 -80 604 -71 q 604 -63 604 -61 q 605 -59 608 -56 q 610 -54 611 -53 l 611 489 l 615 496 l 615 629 q 615 631 614 636 q 612 641 612 642 l 612 703 l 639 737 q 646 739 650 746 q 654 754 661 754 l 676 767 q 681 767 685 770 q 689 774 694 778 q 698 783 702 786 q 707 790 713 790 q 715 790 718 788 q 720 785 722 784 q 724 784 729 784 q 734 783 736 782 q 736 780 736 776 q 737 772 738 770 q 739 768 744 762 q 748 756 749 756 q 752 747 750 742 q 748 738 756 733 l 756 711 l 762 703 l 762 454 l 756 448 l 756 387 l 750 369 l 750 274 q 749 273 747 268 q 745 262 742 255 q 740 248 738 242 q 737 236 737 235 l 737 167 q 736 165 734 162 q 731 158 731 156 l 731 17 q 728 15 727 10 q 726 4 726 2 l 726 -64 q 730 -66 730 -70 q 731 -73 731 -77 q 731 -84 728 -88 q 726 -91 726 -96 l 726 -207 l 731 -213 l 731 -240 q 736 -245 736 -251 q 736 -257 738 -265 q 741 -278 748 -290 q 755 -301 762 -310 q 764 -315 765 -320 q 766 -326 769 -330 q 770 -332 775 -338 q 780 -343 780 -345 q 781 -347 782 -353 q 783 -359 782 -361 z m 531 -103 l 531 -105 q 531 -108 530 -109 l 530 -108 l 530 -107 q 530 -106 530 -104 q 531 -103 531 -103 z m 244 426 l 244 448 l 246 448 l 246 424 z m 244 767 q 247 764 247 760 l 247 759 l 247 758 q 247 756 244 756 z"}}}
